<svg id="visual" viewBox="0 0 900 600" width="900" height="600" xmlns="http://www.w3.org/2000/svg" xmlns:xlink="http://www.w3.org/1999/xlink" version="1.1"><rect x="0" y="0" width="900" height="600" fill="#4e0104"></rect><g transform="translate(457.50718788879124 281.0129906907544)"><path d="M105.6 -138.2C137.9 -121.9 166 -92.5 170.5 -59.8C175 -27.2 156 8.7 153 59.6C150.1 110.6 163.2 176.6 140.4 189.1C117.6 201.5 58.8 160.2 5.7 152.4C-47.4 144.6 -94.8 170.2 -129.5 161.6C-164.3 153.1 -186.3 110.4 -186.2 70.1C-186.1 29.8 -163.9 -8.1 -140.2 -34.6C-116.5 -61 -91.3 -76 -67.7 -95.2C-44.1 -114.3 -22 -137.7 7.3 -147.7C36.6 -157.8 73.3 -154.5 105.6 -138.2" fill="#720004"></path></g></svg>