<svg xmlns="http://www.w3.org/2000/svg" viewBox="0 0 45.964 45.964">
            <path fill="#f7f7f7" d="M32.399,40.565H11.113v1.297c0,2.24,1.838,4.051,4.076,4.051h26.733c2.239,0,4.042-1.811,4.042-4.051V15.13c0-2.237-1.803-4.068-4.042-4.068h-1.415v21.395C40.507,36.904,36.845,40.566,32.399,40.565z"/>
            <path fill="#f7f7f7" d="M0,4.102l0,28.355c0,2.241,1.814,4.067,4.051,4.067h28.365c2.237,0,4.066-1.826,4.066-4.067l0-28.356c0-2.238-1.828-4.051-4.066-4.051H4.051C1.814,0.05,0,1.862,0,4.102z"/>
        </svg>