<svg xmlns="http://www.w3.org/2000/svg" xmlns:xlink="http://www.w3.org/1999/xlink" version="1.1" x="0px" y="0px" viewBox="0 0 48 60" style="enable-background:new 0 0 48 48;" xml:space="preserve">
    <style type="text/css">
        .st0{display:none;}
        .st1{display:inline;}
    </style>
    <g>
        <g>
        <path d="M34.9,2h-7.2l1.1,2l6.1,11H44h2v-1.9C46,7,41,2,34.9,2z" fill="#ffffff"/>
        <path d="M19.9,15h12.7L26.5,4l-1.1-2H13.1c-0.1,0-0.3,0-0.4,0l1.1,2L19.9,15z" fill="#ffffff"/>

        <path d="M17.6,15l-6-10.9l-1-1.8C5.7,3.5,2,7.9,2,13.1V15h2H17.6z" fill="#ffffff"/>

        <path d="M36,17h-2.3H21h-2.3H4H2v17.9C2,41,7,46,13.1,46h21.8C41,46,46,41,46,34.9V17h-2H36z M19,24c0-0.4,0.3-0.7,0.5-0.8    c0.2-0.1,0.5-0.2,0.8-0.2c0.3,0,0.6,0.1,0.9,0.2l10.2,6.5c0.3,0.2,0.5,0.5,0.5,0.8c0,0.3-0.2,0.6-0.5,0.8l-10.2,6.5    c-0.6,0.4-1.3,0.3-1.7,0C19.3,37.7,19,37.4,19,37V24z" fill="#ffffff"/>
        </g>
    </g>
</svg>