<svg id="visual" viewBox="0 0 900 600" width="900" height="600" xmlns="http://www.w3.org/2000/svg" xmlns:xlink="http://www.w3.org/1999/xlink" version="1.1"><path d="M0 271L82 109L164 235L245 139L327 193L409 193L491 175L573 127L655 199L736 121L818 169L900 145L900 0L818 0L736 0L655 0L573 0L491 0L409 0L327 0L245 0L164 0L82 0L0 0Z" fill="#720004"></path><path d="M0 379L82 355L164 373L245 283L327 313L409 277L491 409L573 307L655 349L736 343L818 343L900 331L900 143L818 167L736 119L655 197L573 125L491 173L409 191L327 191L245 137L164 233L82 107L0 269Z" fill="#930007"></path><path d="M0 439L82 451L164 499L245 361L327 379L409 403L491 487L573 421L655 433L736 421L818 445L900 451L900 329L818 341L736 341L655 347L573 305L491 407L409 275L327 311L245 281L164 371L82 353L0 377Z" fill="#a70107"></path><path d="M0 559L82 547L164 559L245 499L327 535L409 529L491 565L573 553L655 559L736 565L818 529L900 547L900 449L818 443L736 419L655 431L573 419L491 485L409 401L327 377L245 359L164 497L82 449L0 437Z" fill="#930007"></path><path d="M0 601L82 601L164 601L245 601L327 601L409 601L491 601L573 601L655 601L736 601L818 601L900 601L900 545L818 527L736 563L655 557L573 551L491 563L409 527L327 533L245 497L164 557L82 545L0 557Z" fill="#720004"></path></svg>