<?xml version="1.0" encoding="UTF-8"?><svg id="Layer_2" xmlns="http://www.w3.org/2000/svg" viewBox="0 0 1082.4 722.4"><defs><style>.cls-1{fill-rule:evenodd;stroke-width:0px;}</style></defs><g id="Layer_1-2"><path class="cls-1" d="m0,2.4h2.4V0H0v2.4Zm24,0h2.4V0h-2.4v2.4ZM0,26.4h2.4v-2.4H0v2.4Zm24,0h2.4v-2.4h-2.4v2.4ZM48,2.4h2.4V0h-2.4v2.4Zm0,24h2.4v-2.4h-2.4v2.4ZM0,50.4h2.4v-2.4H0v2.4Zm24,0h2.4v-2.4h-2.4v2.4ZM0,74.4h2.4v-2.4H0v2.4Zm24,0h2.4v-2.4h-2.4v2.4Zm24-24h2.4v-2.4h-2.4v2.4Zm0,24h2.4v-2.4h-2.4v2.4ZM72,2.4h2.4V0h-2.4v2.4Zm24,0h2.4V0h-2.4v2.4Zm-24,24h2.4v-2.4h-2.4v2.4Zm24,0h2.4v-2.4h-2.4v2.4ZM120,2.4h2.4V0h-2.4v2.4Zm0,24h2.4v-2.4h-2.4v2.4Zm-48,24h2.4v-2.4h-2.4v2.4Zm24,0h2.4v-2.4h-2.4v2.4Zm-24,24h2.4v-2.4h-2.4v2.4Zm24,0h2.4v-2.4h-2.4v2.4Zm24-24h2.4v-2.4h-2.4v2.4Zm0,24h2.4v-2.4h-2.4v2.4ZM0,98.4h2.4v-2.4H0v2.4Zm24,0h2.4v-2.4h-2.4v2.4ZM0,122.4h2.4v-2.4H0v2.4Zm24,0h2.4v-2.4h-2.4v2.4Zm24-24h2.4v-2.4h-2.4v2.4Zm0,24h2.4v-2.4h-2.4v2.4ZM0,146.4h2.4v-2.4H0v2.4Zm24,0h2.4v-2.4h-2.4v2.4ZM0,170.4h2.4v-2.4H0v2.4Zm24,0h2.4v-2.4h-2.4v2.4Zm24-24h2.4v-2.4h-2.4v2.4Zm0,24h2.4v-2.4h-2.4v2.4Zm24-72h2.4v-2.4h-2.4v2.4Zm24,0h2.4v-2.4h-2.4v2.4Zm-24,24h2.4v-2.4h-2.4v2.4Zm24,0h2.4v-2.4h-2.4v2.4Zm24-24h2.4v-2.4h-2.4v2.4Zm0,24h2.4v-2.4h-2.4v2.4Zm-48,24h2.4v-2.4h-2.4v2.4Zm24,0h2.4v-2.4h-2.4v2.4Zm-24,24h2.4v-2.4h-2.4v2.4Zm24,0h2.4v-2.4h-2.4v2.4Zm24-24h2.4v-2.4h-2.4v2.4Zm0,24h2.4v-2.4h-2.4v2.4ZM144,2.4h2.4V0h-2.4v2.4Zm24,0h2.4V0h-2.4v2.4Zm-24,24h2.4v-2.4h-2.4v2.4Zm24,0h2.4v-2.4h-2.4v2.4Zm24-24h2.4V0h-2.4v2.4Zm0,24h2.4v-2.4h-2.4v2.4Zm-48,24h2.4v-2.4h-2.4v2.4Zm24,0h2.4v-2.4h-2.4v2.4Zm-24,24h2.4v-2.4h-2.4v2.4Zm24,0h2.4v-2.4h-2.4v2.4Zm24-24h2.4v-2.4h-2.4v2.4Zm0,24h2.4v-2.4h-2.4v2.4ZM216,2.4h2.4V0h-2.4v2.4Zm24,0h2.4V0h-2.4v2.4Zm-24,24h2.4v-2.4h-2.4v2.4Zm24,0h2.4v-2.4h-2.4v2.4Zm24-24h2.4V0h-2.4v2.4Zm0,24h2.4v-2.4h-2.4v2.4Zm-48,24h2.4v-2.4h-2.4v2.4Zm24,0h2.4v-2.4h-2.4v2.4Zm-24,24h2.4v-2.4h-2.4v2.4Zm24,0h2.4v-2.4h-2.4v2.4Zm24-24h2.4v-2.4h-2.4v2.4Zm0,24h2.4v-2.4h-2.4v2.4Zm-120,24h2.4v-2.4h-2.4v2.4Zm24,0h2.4v-2.4h-2.4v2.4Zm-24,24h2.4v-2.4h-2.4v2.4Zm24,0h2.4v-2.4h-2.4v2.4Zm24-24h2.4v-2.4h-2.4v2.4Zm0,24h2.4v-2.4h-2.4v2.4Zm-48,24h2.4v-2.4h-2.4v2.4Zm24,0h2.4v-2.4h-2.4v2.4Zm-24,24h2.4v-2.4h-2.4v2.4Zm24,0h2.4v-2.4h-2.4v2.4Zm24-24h2.4v-2.4h-2.4v2.4Zm0,24h2.4v-2.4h-2.4v2.4Zm24-72h2.4v-2.4h-2.4v2.4Zm24,0h2.4v-2.4h-2.4v2.4Zm-24,24h2.4v-2.4h-2.4v2.4Zm24,0h2.4v-2.4h-2.4v2.4Zm24-24h2.4v-2.4h-2.4v2.4Zm0,24h2.4v-2.4h-2.4v2.4Zm-48,24h2.4v-2.4h-2.4v2.4Zm24,0h2.4v-2.4h-2.4v2.4Zm-24,24h2.4v-2.4h-2.4v2.4Zm24,0h2.4v-2.4h-2.4v2.4Zm24-24h2.4v-2.4h-2.4v2.4Zm0,24h2.4v-2.4h-2.4v2.4ZM0,194.4h2.4v-2.4H0v2.4Zm24,0h2.4v-2.4h-2.4v2.4ZM0,218.4h2.4v-2.4H0v2.4Zm24,0h2.4v-2.4h-2.4v2.4Zm24-24h2.4v-2.4h-2.4v2.4Zm0,24h2.4v-2.4h-2.4v2.4ZM0,242.4h2.4v-2.4H0v2.4Zm24,0h2.4v-2.4h-2.4v2.4ZM0,266.4h2.4v-2.4H0v2.4Zm24,0h2.4v-2.4h-2.4v2.4Zm24-24h2.4v-2.4h-2.4v2.4Zm0,24h2.4v-2.4h-2.4v2.4Zm24-72h2.4v-2.4h-2.4v2.4Zm24,0h2.4v-2.4h-2.4v2.4Zm-24,24h2.4v-2.4h-2.4v2.4Zm24,0h2.4v-2.4h-2.4v2.4Zm24-24h2.4v-2.4h-2.4v2.4Zm0,24h2.4v-2.4h-2.4v2.4Zm-48,24h2.4v-2.4h-2.4v2.4Zm24,0h2.4v-2.4h-2.4v2.4Zm-24,24h2.4v-2.4h-2.4v2.4Zm24,0h2.4v-2.4h-2.4v2.4Zm24-24h2.4v-2.4h-2.4v2.4Zm0,24h2.4v-2.4h-2.4v2.4ZM0,290.4h2.4v-2.4H0v2.4Zm24,0h2.4v-2.4h-2.4v2.4ZM0,314.4h2.4v-2.4H0v2.4Zm24,0h2.4v-2.4h-2.4v2.4Zm24-24h2.4v-2.4h-2.4v2.4Zm0,24h2.4v-2.4h-2.4v2.4ZM0,338.4h2.4v-2.4H0v2.4Zm24,0h2.4v-2.4h-2.4v2.4ZM0,362.4h2.4v-2.4H0v2.4Zm24,0h2.4v-2.4h-2.4v2.4Zm24-24h2.4v-2.4h-2.4v2.4Zm0,24h2.4v-2.4h-2.4v2.4Zm24-72h2.4v-2.4h-2.4v2.4Zm24,0h2.4v-2.4h-2.4v2.4Zm-24,24h2.4v-2.4h-2.4v2.4Zm24,0h2.4v-2.4h-2.4v2.4Zm24-24h2.4v-2.4h-2.4v2.4Zm0,24h2.4v-2.4h-2.4v2.4Zm-48,24h2.4v-2.4h-2.4v2.4Zm24,0h2.4v-2.4h-2.4v2.4Zm-24,24h2.4v-2.4h-2.4v2.4Zm24,0h2.4v-2.4h-2.4v2.4Zm24-24h2.4v-2.4h-2.4v2.4Zm0,24h2.4v-2.4h-2.4v2.4Zm24-168h2.4v-2.4h-2.4v2.4Zm24,0h2.4v-2.4h-2.4v2.4Zm-24,24h2.4v-2.4h-2.4v2.4Zm24,0h2.4v-2.4h-2.4v2.4Zm24-24h2.4v-2.4h-2.4v2.4Zm0,24h2.4v-2.4h-2.4v2.4Zm-48,24h2.4v-2.4h-2.4v2.4Zm24,0h2.4v-2.4h-2.4v2.4Zm-24,24h2.4v-2.4h-2.4v2.4Zm24,0h2.4v-2.4h-2.4v2.4Zm24-24h2.4v-2.4h-2.4v2.4Zm0,24h2.4v-2.4h-2.4v2.4Zm24-72h2.4v-2.4h-2.4v2.4Zm24,0h2.4v-2.4h-2.4v2.4Zm-24,24h2.4v-2.4h-2.4v2.4Zm24,0h2.4v-2.4h-2.4v2.4Zm24-24h2.4v-2.4h-2.4v2.4Zm0,24h2.4v-2.4h-2.4v2.4Zm-48,24h2.4v-2.4h-2.4v2.4Zm24,0h2.4v-2.4h-2.4v2.4Zm-24,24h2.4v-2.4h-2.4v2.4Zm24,0h2.4v-2.4h-2.4v2.4Zm24-24h2.4v-2.4h-2.4v2.4Zm0,24h2.4v-2.4h-2.4v2.4Zm-120,24h2.4v-2.4h-2.4v2.4Zm24,0h2.4v-2.4h-2.4v2.4Zm-24,24h2.4v-2.4h-2.4v2.4Zm24,0h2.4v-2.4h-2.4v2.4Zm24-24h2.4v-2.4h-2.4v2.4Zm0,24h2.4v-2.4h-2.4v2.4Zm-48,24h2.4v-2.4h-2.4v2.4Zm24,0h2.4v-2.4h-2.4v2.4Zm-24,24h2.4v-2.4h-2.4v2.4Zm24,0h2.4v-2.4h-2.4v2.4Zm24-24h2.4v-2.4h-2.4v2.4Zm0,24h2.4v-2.4h-2.4v2.4Zm24-72h2.4v-2.4h-2.4v2.4Zm24,0h2.4v-2.4h-2.4v2.4Zm-24,24h2.4v-2.4h-2.4v2.4Zm24,0h2.4v-2.4h-2.4v2.4Zm24-24h2.4v-2.4h-2.4v2.4Zm0,24h2.4v-2.4h-2.4v2.4Zm-48,24h2.4v-2.4h-2.4v2.4Zm24,0h2.4v-2.4h-2.4v2.4Zm-24,24h2.4v-2.4h-2.4v2.4Zm24,0h2.4v-2.4h-2.4v2.4Zm24-24h2.4v-2.4h-2.4v2.4Zm0,24h2.4v-2.4h-2.4v2.4ZM288,2.4h2.4V0h-2.4v2.4Zm24,0h2.4V0h-2.4v2.4Zm-24,24h2.4v-2.4h-2.4v2.4Zm24,0h2.4v-2.4h-2.4v2.4Zm24-24h2.4V0h-2.4v2.4Zm0,24h2.4v-2.4h-2.4v2.4Zm-48,24h2.4v-2.4h-2.4v2.4Zm24,0h2.4v-2.4h-2.4v2.4Zm-24,24h2.4v-2.4h-2.4v2.4Zm24,0h2.4v-2.4h-2.4v2.4Zm24-24h2.4v-2.4h-2.4v2.4Zm0,24h2.4v-2.4h-2.4v2.4ZM360,2.4h2.4V0h-2.4v2.4Zm24,0h2.4V0h-2.4v2.4Zm-24,24h2.4v-2.4h-2.4v2.4Zm24,0h2.4v-2.4h-2.4v2.4Zm24-24h2.4V0h-2.4v2.4Zm0,24h2.4v-2.4h-2.4v2.4Zm-48,24h2.4v-2.4h-2.4v2.4Zm24,0h2.4v-2.4h-2.4v2.4Zm-24,24h2.4v-2.4h-2.4v2.4Zm24,0h2.4v-2.4h-2.4v2.4Zm24-24h2.4v-2.4h-2.4v2.4Zm0,24h2.4v-2.4h-2.4v2.4Zm-120,24h2.4v-2.4h-2.4v2.4Zm24,0h2.4v-2.4h-2.4v2.4Zm-24,24h2.4v-2.4h-2.4v2.4Zm24,0h2.4v-2.4h-2.4v2.4Zm24-24h2.4v-2.4h-2.4v2.4Zm0,24h2.4v-2.4h-2.4v2.4Zm-48,24h2.4v-2.4h-2.4v2.4Zm24,0h2.4v-2.4h-2.4v2.4Zm-24,24h2.4v-2.4h-2.4v2.4Zm24,0h2.4v-2.4h-2.4v2.4Zm24-24h2.4v-2.4h-2.4v2.4Zm0,24h2.4v-2.4h-2.4v2.4Zm24-72h2.4v-2.4h-2.4v2.4Zm24,0h2.4v-2.4h-2.4v2.4Zm-24,24h2.4v-2.4h-2.4v2.4Zm24,0h2.4v-2.4h-2.4v2.4Zm24-24h2.4v-2.4h-2.4v2.4Zm0,24h2.4v-2.4h-2.4v2.4Zm-48,24h2.4v-2.4h-2.4v2.4Zm24,0h2.4v-2.4h-2.4v2.4Zm-24,24h2.4v-2.4h-2.4v2.4Zm24,0h2.4v-2.4h-2.4v2.4Zm24-24h2.4v-2.4h-2.4v2.4Zm0,24h2.4v-2.4h-2.4v2.4ZM432,2.4h2.4V0h-2.4v2.4Zm24,0h2.4V0h-2.4v2.4Zm-24,24h2.4v-2.4h-2.4v2.4Zm24,0h2.4v-2.4h-2.4v2.4Zm24-24h2.4V0h-2.4v2.4Zm0,24h2.4v-2.4h-2.4v2.4Zm-48,24h2.4v-2.4h-2.4v2.4Zm24,0h2.4v-2.4h-2.4v2.4Zm-24,24h2.4v-2.4h-2.4v2.4Zm24,0h2.4v-2.4h-2.4v2.4Zm24-24h2.4v-2.4h-2.4v2.4Zm0,24h2.4v-2.4h-2.4v2.4ZM504,2.4h2.4V0h-2.4v2.4Zm24,0h2.4V0h-2.4v2.4Zm-24,24h2.4v-2.4h-2.4v2.4Zm24,0h2.4v-2.4h-2.4v2.4Zm24-24h2.4V0h-2.4v2.4Zm0,24h2.4v-2.4h-2.4v2.4Zm-48,24h2.4v-2.4h-2.4v2.4Zm24,0h2.4v-2.4h-2.4v2.4Zm-24,24h2.4v-2.4h-2.4v2.4Zm24,0h2.4v-2.4h-2.4v2.4Zm24-24h2.4v-2.4h-2.4v2.4Zm0,24h2.4v-2.4h-2.4v2.4Zm-120,24h2.4v-2.4h-2.4v2.4Zm24,0h2.4v-2.4h-2.4v2.4Zm-24,24h2.4v-2.4h-2.4v2.4Zm24,0h2.4v-2.4h-2.4v2.4Zm24-24h2.4v-2.4h-2.4v2.4Zm0,24h2.4v-2.4h-2.4v2.4Zm-48,24h2.4v-2.4h-2.4v2.4Zm24,0h2.4v-2.4h-2.4v2.4Zm-24,24h2.4v-2.4h-2.4v2.4Zm24,0h2.4v-2.4h-2.4v2.4Zm24-24h2.4v-2.4h-2.4v2.4Zm0,24h2.4v-2.4h-2.4v2.4Zm24-72h2.4v-2.4h-2.4v2.4Zm24,0h2.4v-2.4h-2.4v2.4Zm-24,24h2.4v-2.4h-2.4v2.4Zm24,0h2.4v-2.4h-2.4v2.4Zm24-24h2.4v-2.4h-2.4v2.4Zm0,24h2.4v-2.4h-2.4v2.4Zm-48,24h2.4v-2.4h-2.4v2.4Zm24,0h2.4v-2.4h-2.4v2.4Zm-24,24h2.4v-2.4h-2.4v2.4Zm24,0h2.4v-2.4h-2.4v2.4Zm24-24h2.4v-2.4h-2.4v2.4Zm0,24h2.4v-2.4h-2.4v2.4Zm-264,24h2.4v-2.4h-2.4v2.4Zm24,0h2.4v-2.4h-2.4v2.4Zm-24,24h2.4v-2.4h-2.4v2.4Zm24,0h2.4v-2.4h-2.4v2.4Zm24-24h2.4v-2.4h-2.4v2.4Zm0,24h2.4v-2.4h-2.4v2.4Zm-48,24h2.4v-2.4h-2.4v2.4Zm24,0h2.4v-2.4h-2.4v2.4Zm-24,24h2.4v-2.4h-2.4v2.4Zm24,0h2.4v-2.4h-2.4v2.4Zm24-24h2.4v-2.4h-2.4v2.4Zm0,24h2.4v-2.4h-2.4v2.4Zm24-72h2.4v-2.4h-2.4v2.4Zm24,0h2.4v-2.4h-2.4v2.4Zm-24,24h2.4v-2.4h-2.4v2.4Zm24,0h2.4v-2.4h-2.4v2.4Zm24-24h2.4v-2.4h-2.4v2.4Zm0,24h2.4v-2.4h-2.4v2.4Zm-48,24h2.4v-2.4h-2.4v2.4Zm24,0h2.4v-2.4h-2.4v2.4Zm-24,24h2.4v-2.4h-2.4v2.4Zm24,0h2.4v-2.4h-2.4v2.4Zm24-24h2.4v-2.4h-2.4v2.4Zm0,24h2.4v-2.4h-2.4v2.4Zm-120,24h2.4v-2.4h-2.4v2.4Zm24,0h2.4v-2.4h-2.4v2.4Zm-24,24h2.4v-2.4h-2.4v2.4Zm24,0h2.4v-2.4h-2.4v2.4Zm24-24h2.4v-2.4h-2.4v2.4Zm0,24h2.4v-2.4h-2.4v2.4Zm-48,24h2.4v-2.4h-2.4v2.4Zm24,0h2.4v-2.4h-2.4v2.4Zm-24,24h2.4v-2.4h-2.4v2.4Zm24,0h2.4v-2.4h-2.4v2.4Zm24-24h2.4v-2.4h-2.4v2.4Zm0,24h2.4v-2.4h-2.4v2.4Zm24-72h2.4v-2.4h-2.4v2.4Zm24,0h2.4v-2.4h-2.4v2.4Zm-24,24h2.4v-2.4h-2.4v2.4Zm24,0h2.4v-2.4h-2.4v2.4Zm24-24h2.4v-2.4h-2.4v2.4Zm0,24h2.4v-2.4h-2.4v2.4Zm-48,24h2.4v-2.4h-2.4v2.4Zm24,0h2.4v-2.4h-2.4v2.4Zm-24,24h2.4v-2.4h-2.4v2.4Zm24,0h2.4v-2.4h-2.4v2.4Zm24-24h2.4v-2.4h-2.4v2.4Zm0,24h2.4v-2.4h-2.4v2.4Zm24-168h2.4v-2.4h-2.4v2.4Zm24,0h2.4v-2.4h-2.4v2.4Zm-24,24h2.4v-2.4h-2.4v2.4Zm24,0h2.4v-2.4h-2.4v2.4Zm24-24h2.4v-2.4h-2.4v2.4Zm0,24h2.4v-2.4h-2.4v2.4Zm-48,24h2.4v-2.4h-2.4v2.4Zm24,0h2.4v-2.4h-2.4v2.4Zm-24,24h2.4v-2.4h-2.4v2.4Zm24,0h2.4v-2.4h-2.4v2.4Zm24-24h2.4v-2.4h-2.4v2.4Zm0,24h2.4v-2.4h-2.4v2.4Zm24-72h2.4v-2.4h-2.4v2.4Zm24,0h2.4v-2.4h-2.4v2.4Zm-24,24h2.4v-2.4h-2.4v2.4Zm24,0h2.4v-2.4h-2.4v2.4Zm24-24h2.4v-2.4h-2.4v2.4Zm0,24h2.4v-2.4h-2.4v2.4Zm-48,24h2.4v-2.4h-2.4v2.4Zm24,0h2.4v-2.4h-2.4v2.4Zm-24,24h2.4v-2.4h-2.4v2.4Zm24,0h2.4v-2.4h-2.4v2.4Zm24-24h2.4v-2.4h-2.4v2.4Zm0,24h2.4v-2.4h-2.4v2.4Zm-120,24h2.4v-2.4h-2.4v2.4Zm24,0h2.4v-2.4h-2.4v2.4Zm-24,24h2.4v-2.4h-2.4v2.4Zm24,0h2.4v-2.4h-2.4v2.4Zm24-24h2.4v-2.4h-2.4v2.4Zm0,24h2.4v-2.4h-2.4v2.4Zm-48,24h2.4v-2.4h-2.4v2.4Zm24,0h2.4v-2.4h-2.4v2.4Zm-24,24h2.4v-2.4h-2.4v2.4Zm24,0h2.4v-2.4h-2.4v2.4Zm24-24h2.4v-2.4h-2.4v2.4Zm0,24h2.4v-2.4h-2.4v2.4Zm24-72h2.4v-2.4h-2.4v2.4Zm24,0h2.4v-2.4h-2.4v2.4Zm-24,24h2.4v-2.4h-2.4v2.4Zm24,0h2.4v-2.4h-2.4v2.4Zm24-24h2.4v-2.4h-2.4v2.4Zm0,24h2.4v-2.4h-2.4v2.4Zm-48,24h2.4v-2.4h-2.4v2.4Zm24,0h2.4v-2.4h-2.4v2.4Zm-24,24h2.4v-2.4h-2.4v2.4Zm24,0h2.4v-2.4h-2.4v2.4Zm24-24h2.4v-2.4h-2.4v2.4Zm0,24h2.4v-2.4h-2.4v2.4ZM0,386.4h2.4v-2.4H0v2.4Zm24,0h2.4v-2.4h-2.4v2.4ZM0,410.4h2.4v-2.4H0v2.4Zm24,0h2.4v-2.4h-2.4v2.4Zm24-24h2.4v-2.4h-2.4v2.4Zm0,24h2.4v-2.4h-2.4v2.4ZM0,434.4h2.4v-2.4H0v2.4Zm24,0h2.4v-2.4h-2.4v2.4ZM0,458.4h2.4v-2.4H0v2.4Zm24,0h2.4v-2.4h-2.4v2.4Zm24-24h2.4v-2.4h-2.4v2.4Zm0,24h2.4v-2.4h-2.4v2.4Zm24-72h2.4v-2.4h-2.4v2.4Zm24,0h2.4v-2.4h-2.4v2.4Zm-24,24h2.4v-2.4h-2.4v2.4Zm24,0h2.4v-2.4h-2.4v2.4Zm24-24h2.4v-2.4h-2.4v2.4Zm0,24h2.4v-2.4h-2.4v2.4Zm-48,24h2.4v-2.4h-2.4v2.4Zm24,0h2.4v-2.4h-2.4v2.4Zm-24,24h2.4v-2.4h-2.4v2.4Zm24,0h2.4v-2.4h-2.4v2.4Zm24-24h2.4v-2.4h-2.4v2.4Zm0,24h2.4v-2.4h-2.4v2.4ZM0,482.4h2.4v-2.4H0v2.4Zm24,0h2.4v-2.4h-2.4v2.4ZM0,506.4h2.4v-2.4H0v2.4Zm24,0h2.4v-2.4h-2.4v2.4Zm24-24h2.4v-2.4h-2.4v2.4Zm0,24h2.4v-2.4h-2.4v2.4ZM0,530.4h2.4v-2.4H0v2.4Zm24,0h2.4v-2.4h-2.4v2.4ZM0,554.4h2.4v-2.4H0v2.4Zm24,0h2.4v-2.4h-2.4v2.4Zm24-24h2.4v-2.4h-2.4v2.4Zm0,24h2.4v-2.4h-2.4v2.4Zm24-72h2.4v-2.4h-2.4v2.4Zm24,0h2.4v-2.4h-2.4v2.4Zm-24,24h2.4v-2.4h-2.4v2.4Zm24,0h2.4v-2.4h-2.4v2.4Zm24-24h2.4v-2.4h-2.4v2.4Zm0,24h2.4v-2.4h-2.4v2.4Zm-48,24h2.4v-2.4h-2.4v2.4Zm24,0h2.4v-2.4h-2.4v2.4Zm-24,24h2.4v-2.4h-2.4v2.4Zm24,0h2.4v-2.4h-2.4v2.4Zm24-24h2.4v-2.4h-2.4v2.4Zm0,24h2.4v-2.4h-2.4v2.4Zm24-168h2.4v-2.4h-2.4v2.4Zm24,0h2.4v-2.4h-2.4v2.4Zm-24,24h2.4v-2.4h-2.4v2.4Zm24,0h2.4v-2.4h-2.4v2.4Zm24-24h2.4v-2.4h-2.4v2.4Zm0,24h2.4v-2.4h-2.4v2.4Zm-48,24h2.4v-2.4h-2.4v2.4Zm24,0h2.4v-2.4h-2.4v2.4Zm-24,24h2.4v-2.4h-2.4v2.4Zm24,0h2.4v-2.4h-2.4v2.4Zm24-24h2.4v-2.4h-2.4v2.4Zm0,24h2.4v-2.4h-2.4v2.4Zm24-72h2.4v-2.4h-2.4v2.4Zm24,0h2.4v-2.4h-2.4v2.4Zm-24,24h2.4v-2.4h-2.4v2.4Zm24,0h2.4v-2.4h-2.4v2.4Zm24-24h2.4v-2.4h-2.4v2.4Zm0,24h2.4v-2.4h-2.4v2.4Zm-48,24h2.4v-2.4h-2.4v2.4Zm24,0h2.4v-2.4h-2.4v2.4Zm-24,24h2.4v-2.4h-2.4v2.4Zm24,0h2.4v-2.4h-2.4v2.4Zm24-24h2.4v-2.4h-2.4v2.4Zm0,24h2.4v-2.4h-2.4v2.4Zm-120,24h2.4v-2.4h-2.4v2.4Zm24,0h2.4v-2.4h-2.4v2.4Zm-24,24h2.4v-2.4h-2.4v2.4Zm24,0h2.4v-2.4h-2.4v2.4Zm24-24h2.4v-2.4h-2.4v2.4Zm0,24h2.4v-2.4h-2.4v2.4Zm-48,24h2.4v-2.4h-2.4v2.4Zm24,0h2.4v-2.4h-2.4v2.4Zm-24,24h2.4v-2.4h-2.4v2.4Zm24,0h2.4v-2.4h-2.4v2.4Zm24-24h2.4v-2.4h-2.4v2.4Zm0,24h2.4v-2.4h-2.4v2.4Zm24-72h2.4v-2.4h-2.4v2.4Zm24,0h2.4v-2.4h-2.4v2.4Zm-24,24h2.4v-2.4h-2.4v2.4Zm24,0h2.4v-2.4h-2.4v2.4Zm24-24h2.4v-2.4h-2.4v2.4Zm0,24h2.4v-2.4h-2.4v2.4Zm-48,24h2.4v-2.4h-2.4v2.4Zm24,0h2.4v-2.4h-2.4v2.4Zm-24,24h2.4v-2.4h-2.4v2.4Zm24,0h2.4v-2.4h-2.4v2.4Zm24-24h2.4v-2.4h-2.4v2.4Zm0,24h2.4v-2.4h-2.4v2.4ZM0,578.4h2.4v-2.4H0v2.4Zm24,0h2.4v-2.4h-2.4v2.4ZM0,602.4h2.4v-2.4H0v2.4Zm24,0h2.4v-2.4h-2.4v2.4Zm24-24h2.4v-2.4h-2.4v2.4Zm0,24h2.4v-2.4h-2.4v2.4ZM0,626.4h2.4v-2.4H0v2.4Zm24,0h2.4v-2.4h-2.4v2.4ZM0,650.4h2.4v-2.4H0v2.4Zm24,0h2.4v-2.4h-2.4v2.4Zm24-24h2.4v-2.4h-2.4v2.4Zm0,24h2.4v-2.4h-2.4v2.4Zm24-72h2.4v-2.4h-2.4v2.4Zm24,0h2.4v-2.4h-2.4v2.4Zm-24,24h2.4v-2.4h-2.4v2.4Zm24,0h2.4v-2.4h-2.4v2.4Zm24-24h2.4v-2.4h-2.4v2.4Zm0,24h2.4v-2.4h-2.4v2.4Zm-48,24h2.4v-2.4h-2.4v2.4Zm24,0h2.4v-2.4h-2.4v2.4Zm-24,24h2.4v-2.4h-2.4v2.4Zm24,0h2.4v-2.4h-2.4v2.4Zm24-24h2.4v-2.4h-2.4v2.4Zm0,24h2.4v-2.4h-2.4v2.4ZM0,674.4h2.4v-2.4H0v2.4Zm24,0h2.4v-2.4h-2.4v2.4ZM0,698.4h2.4v-2.4H0v2.4Zm24,0h2.4v-2.4h-2.4v2.4Zm24-24h2.4v-2.4h-2.4v2.4Zm0,24h2.4v-2.4h-2.4v2.4ZM0,722.4h2.4v-2.4H0v2.4Zm24,0h2.4v-2.4h-2.4v2.4Zm24,0h2.4v-2.4h-2.4v2.4Zm24-48h2.4v-2.4h-2.4v2.4Zm24,0h2.4v-2.4h-2.4v2.4Zm-24,24h2.4v-2.4h-2.4v2.4Zm24,0h2.4v-2.4h-2.4v2.4Zm24-24h2.4v-2.4h-2.4v2.4Zm0,24h2.4v-2.4h-2.4v2.4Zm-48,24h2.4v-2.4h-2.4v2.4Zm24,0h2.4v-2.4h-2.4v2.4Zm24,0h2.4v-2.4h-2.4v2.4Zm24-144h2.4v-2.4h-2.4v2.4Zm24,0h2.4v-2.4h-2.4v2.4Zm-24,24h2.4v-2.4h-2.4v2.4Zm24,0h2.4v-2.4h-2.4v2.4Zm24-24h2.4v-2.4h-2.4v2.4Zm0,24h2.4v-2.4h-2.4v2.4Zm-48,24h2.4v-2.4h-2.4v2.4Zm24,0h2.4v-2.4h-2.4v2.4Zm-24,24h2.4v-2.4h-2.4v2.4Zm24,0h2.4v-2.4h-2.4v2.4Zm24-24h2.4v-2.4h-2.4v2.4Zm0,24h2.4v-2.4h-2.4v2.4Zm24-72h2.4v-2.4h-2.4v2.4Zm24,0h2.4v-2.4h-2.4v2.4Zm-24,24h2.4v-2.4h-2.4v2.4Zm24,0h2.4v-2.4h-2.4v2.4Zm24-24h2.4v-2.4h-2.4v2.4Zm0,24h2.4v-2.4h-2.4v2.4Zm-48,24h2.4v-2.4h-2.4v2.4Zm24,0h2.4v-2.4h-2.4v2.4Zm-24,24h2.4v-2.4h-2.4v2.4Zm24,0h2.4v-2.4h-2.4v2.4Zm24-24h2.4v-2.4h-2.4v2.4Zm0,24h2.4v-2.4h-2.4v2.4Zm-120,24h2.4v-2.4h-2.4v2.4Zm24,0h2.4v-2.4h-2.4v2.4Zm-24,24h2.4v-2.4h-2.4v2.4Zm24,0h2.4v-2.4h-2.4v2.4Zm24-24h2.4v-2.4h-2.4v2.4Zm0,24h2.4v-2.4h-2.4v2.4Zm-48,24h2.4v-2.4h-2.4v2.4Zm24,0h2.4v-2.4h-2.4v2.4Zm24,0h2.4v-2.4h-2.4v2.4Zm24-48h2.4v-2.4h-2.4v2.4Zm24,0h2.4v-2.4h-2.4v2.4Zm-24,24h2.4v-2.4h-2.4v2.4Zm24,0h2.4v-2.4h-2.4v2.4Zm24-24h2.4v-2.4h-2.4v2.4Zm0,24h2.4v-2.4h-2.4v2.4Zm-48,24h2.4v-2.4h-2.4v2.4Zm24,0h2.4v-2.4h-2.4v2.4Zm24,0h2.4v-2.4h-2.4v2.4Zm24-336h2.4v-2.4h-2.4v2.4Zm24,0h2.4v-2.4h-2.4v2.4Zm-24,24h2.4v-2.4h-2.4v2.4Zm24,0h2.4v-2.4h-2.4v2.4Zm24-24h2.4v-2.4h-2.4v2.4Zm0,24h2.4v-2.4h-2.4v2.4Zm-48,24h2.4v-2.4h-2.4v2.4Zm24,0h2.4v-2.4h-2.4v2.4Zm-24,24h2.4v-2.4h-2.4v2.4Zm24,0h2.4v-2.4h-2.4v2.4Zm24-24h2.4v-2.4h-2.4v2.4Zm0,24h2.4v-2.4h-2.4v2.4Zm24-72h2.4v-2.4h-2.4v2.4Zm24,0h2.4v-2.4h-2.4v2.4Zm-24,24h2.4v-2.4h-2.4v2.4Zm24,0h2.4v-2.4h-2.4v2.4Zm24-24h2.4v-2.4h-2.4v2.4Zm0,24h2.4v-2.4h-2.4v2.4Zm-48,24h2.4v-2.4h-2.4v2.4Zm24,0h2.4v-2.4h-2.4v2.4Zm-24,24h2.4v-2.4h-2.4v2.4Zm24,0h2.4v-2.4h-2.4v2.4Zm24-24h2.4v-2.4h-2.4v2.4Zm0,24h2.4v-2.4h-2.4v2.4Zm-120,24h2.4v-2.4h-2.4v2.4Zm24,0h2.4v-2.4h-2.4v2.4Zm-24,24h2.4v-2.4h-2.4v2.4Zm24,0h2.4v-2.4h-2.4v2.4Zm24-24h2.4v-2.4h-2.4v2.4Zm0,24h2.4v-2.4h-2.4v2.4Zm-48,24h2.4v-2.4h-2.4v2.4Zm24,0h2.4v-2.4h-2.4v2.4Zm-24,24h2.4v-2.4h-2.4v2.4Zm24,0h2.4v-2.4h-2.4v2.4Zm24-24h2.4v-2.4h-2.4v2.4Zm0,24h2.4v-2.4h-2.4v2.4Zm24-72h2.4v-2.4h-2.4v2.4Zm24,0h2.4v-2.4h-2.4v2.4Zm-24,24h2.4v-2.4h-2.4v2.4Zm24,0h2.4v-2.4h-2.4v2.4Zm24-24h2.4v-2.4h-2.4v2.4Zm0,24h2.4v-2.4h-2.4v2.4Zm-48,24h2.4v-2.4h-2.4v2.4Zm24,0h2.4v-2.4h-2.4v2.4Zm-24,24h2.4v-2.4h-2.4v2.4Zm24,0h2.4v-2.4h-2.4v2.4Zm24-24h2.4v-2.4h-2.4v2.4Zm0,24h2.4v-2.4h-2.4v2.4Zm24-168h2.4v-2.4h-2.4v2.4Zm24,0h2.4v-2.4h-2.4v2.4Zm-24,24h2.4v-2.4h-2.4v2.4Zm24,0h2.4v-2.4h-2.4v2.4Zm24-24h2.4v-2.4h-2.4v2.4Zm0,24h2.4v-2.4h-2.4v2.4Zm-48,24h2.4v-2.4h-2.4v2.4Zm24,0h2.4v-2.4h-2.4v2.4Zm-24,24h2.4v-2.4h-2.4v2.4Zm24,0h2.4v-2.4h-2.4v2.4Zm24-24h2.4v-2.4h-2.4v2.4Zm0,24h2.4v-2.4h-2.4v2.4Zm24-72h2.4v-2.4h-2.4v2.4Zm24,0h2.4v-2.4h-2.4v2.4Zm-24,24h2.4v-2.4h-2.4v2.4Zm24,0h2.4v-2.4h-2.4v2.4Zm24-24h2.4v-2.4h-2.4v2.4Zm0,24h2.4v-2.4h-2.4v2.4Zm-48,24h2.4v-2.4h-2.4v2.4Zm24,0h2.4v-2.4h-2.4v2.4Zm-24,24h2.4v-2.4h-2.4v2.4Zm24,0h2.4v-2.4h-2.4v2.4Zm24-24h2.4v-2.4h-2.4v2.4Zm0,24h2.4v-2.4h-2.4v2.4Zm-120,24h2.4v-2.4h-2.4v2.4Zm24,0h2.4v-2.4h-2.4v2.4Zm-24,24h2.4v-2.4h-2.4v2.4Zm24,0h2.4v-2.4h-2.4v2.4Zm24-24h2.4v-2.4h-2.4v2.4Zm0,24h2.4v-2.4h-2.4v2.4Zm-48,24h2.4v-2.4h-2.4v2.4Zm24,0h2.4v-2.4h-2.4v2.4Zm-24,24h2.4v-2.4h-2.4v2.4Zm24,0h2.4v-2.4h-2.4v2.4Zm24-24h2.4v-2.4h-2.4v2.4Zm0,24h2.4v-2.4h-2.4v2.4Zm24-72h2.4v-2.4h-2.4v2.4Zm24,0h2.4v-2.4h-2.4v2.4Zm-24,24h2.4v-2.4h-2.4v2.4Zm24,0h2.4v-2.4h-2.4v2.4Zm24-24h2.4v-2.4h-2.4v2.4Zm0,24h2.4v-2.4h-2.4v2.4Zm-48,24h2.4v-2.4h-2.4v2.4Zm24,0h2.4v-2.4h-2.4v2.4Zm-24,24h2.4v-2.4h-2.4v2.4Zm24,0h2.4v-2.4h-2.4v2.4Zm24-24h2.4v-2.4h-2.4v2.4Zm0,24h2.4v-2.4h-2.4v2.4Zm-264,24h2.4v-2.4h-2.4v2.4Zm24,0h2.4v-2.4h-2.4v2.4Zm-24,24h2.4v-2.4h-2.4v2.4Zm24,0h2.4v-2.4h-2.4v2.4Zm24-24h2.4v-2.4h-2.4v2.4Zm0,24h2.4v-2.4h-2.4v2.4Zm-48,24h2.4v-2.4h-2.4v2.4Zm24,0h2.4v-2.4h-2.4v2.4Zm-24,24h2.4v-2.4h-2.4v2.4Zm24,0h2.4v-2.4h-2.4v2.4Zm24-24h2.4v-2.4h-2.4v2.4Zm0,24h2.4v-2.4h-2.4v2.4Zm24-72h2.4v-2.4h-2.4v2.4Zm24,0h2.4v-2.4h-2.4v2.4Zm-24,24h2.4v-2.4h-2.4v2.4Zm24,0h2.4v-2.4h-2.4v2.4Zm24-24h2.4v-2.4h-2.4v2.4Zm0,24h2.4v-2.4h-2.4v2.4Zm-48,24h2.4v-2.4h-2.4v2.4Zm24,0h2.4v-2.4h-2.4v2.4Zm-24,24h2.4v-2.4h-2.4v2.4Zm24,0h2.4v-2.4h-2.4v2.4Zm24-24h2.4v-2.4h-2.4v2.4Zm0,24h2.4v-2.4h-2.4v2.4Zm-120,24h2.4v-2.4h-2.4v2.4Zm24,0h2.4v-2.4h-2.4v2.4Zm-24,24h2.4v-2.4h-2.4v2.4Zm24,0h2.4v-2.4h-2.4v2.4Zm24-24h2.4v-2.4h-2.4v2.4Zm0,24h2.4v-2.4h-2.4v2.4Zm-48,24h2.4v-2.4h-2.4v2.4Zm24,0h2.4v-2.4h-2.4v2.4Zm24,0h2.4v-2.4h-2.4v2.4Zm24-48h2.4v-2.4h-2.4v2.4Zm24,0h2.4v-2.4h-2.4v2.4Zm-24,24h2.4v-2.4h-2.4v2.4Zm24,0h2.4v-2.4h-2.4v2.4Zm24-24h2.4v-2.4h-2.4v2.4Zm0,24h2.4v-2.4h-2.4v2.4Zm-48,24h2.4v-2.4h-2.4v2.4Zm24,0h2.4v-2.4h-2.4v2.4Zm24,0h2.4v-2.4h-2.4v2.4Zm24-144h2.4v-2.4h-2.4v2.4Zm24,0h2.4v-2.4h-2.4v2.4Zm-24,24h2.4v-2.4h-2.4v2.4Zm24,0h2.4v-2.4h-2.4v2.4Zm24-24h2.4v-2.4h-2.4v2.4Zm0,24h2.4v-2.4h-2.4v2.4Zm-48,24h2.4v-2.4h-2.4v2.4Zm24,0h2.4v-2.4h-2.4v2.4Zm-24,24h2.4v-2.4h-2.4v2.4Zm24,0h2.4v-2.4h-2.4v2.4Zm24-24h2.4v-2.4h-2.4v2.4Zm0,24h2.4v-2.4h-2.4v2.4Zm24-72h2.4v-2.4h-2.4v2.4Zm24,0h2.4v-2.4h-2.4v2.4Zm-24,24h2.4v-2.4h-2.4v2.4Zm24,0h2.4v-2.4h-2.4v2.4Zm24-24h2.4v-2.4h-2.4v2.4Zm0,24h2.4v-2.4h-2.4v2.4Zm-48,24h2.4v-2.4h-2.4v2.4Zm24,0h2.4v-2.4h-2.4v2.4Zm-24,24h2.4v-2.4h-2.4v2.4Zm24,0h2.4v-2.4h-2.4v2.4Zm24-24h2.4v-2.4h-2.4v2.4Zm0,24h2.4v-2.4h-2.4v2.4Zm-120,24h2.4v-2.4h-2.4v2.4Zm24,0h2.4v-2.4h-2.4v2.4Zm-24,24h2.4v-2.4h-2.4v2.4Zm24,0h2.4v-2.4h-2.4v2.4Zm24-24h2.4v-2.4h-2.4v2.4Zm0,24h2.4v-2.4h-2.4v2.4Zm-48,24h2.4v-2.4h-2.4v2.4Zm24,0h2.4v-2.4h-2.4v2.4Zm24,0h2.4v-2.4h-2.4v2.4Zm24-48h2.4v-2.4h-2.4v2.4Zm24,0h2.4v-2.4h-2.4v2.4Zm-24,24h2.4v-2.4h-2.4v2.4Zm24,0h2.4v-2.4h-2.4v2.4Zm24-24h2.4v-2.4h-2.4v2.4Zm0,24h2.4v-2.4h-2.4v2.4Zm-48,24h2.4v-2.4h-2.4v2.4Zm24,0h2.4v-2.4h-2.4v2.4Zm24,0h2.4v-2.4h-2.4v2.4ZM576,2.4h2.4V0h-2.4v2.4Zm24,0h2.4V0h-2.4v2.4Zm-24,24h2.4v-2.4h-2.4v2.4Zm24,0h2.4v-2.4h-2.4v2.4Zm24-24h2.4V0h-2.4v2.4Zm0,24h2.4v-2.4h-2.4v2.4Zm-48,24h2.4v-2.4h-2.4v2.4Zm24,0h2.4v-2.4h-2.4v2.4Zm-24,24h2.4v-2.4h-2.4v2.4Zm24,0h2.4v-2.4h-2.4v2.4Zm24-24h2.4v-2.4h-2.4v2.4Zm0,24h2.4v-2.4h-2.4v2.4Zm24-72h2.4V0h-2.4v2.4Zm24,0h2.4V0h-2.4v2.4Zm-24,24h2.4v-2.4h-2.4v2.4Zm24,0h2.4v-2.4h-2.4v2.4Zm24-24h2.4V0h-2.4v2.4Zm0,24h2.4v-2.4h-2.4v2.4Zm-48,24h2.4v-2.4h-2.4v2.4Zm24,0h2.4v-2.4h-2.4v2.4Zm-24,24h2.4v-2.4h-2.4v2.4Zm24,0h2.4v-2.4h-2.4v2.4Zm24-24h2.4v-2.4h-2.4v2.4Zm0,24h2.4v-2.4h-2.4v2.4Zm-120,24h2.4v-2.4h-2.4v2.4Zm24,0h2.4v-2.4h-2.4v2.4Zm-24,24h2.4v-2.4h-2.4v2.4Zm24,0h2.4v-2.4h-2.4v2.4Zm24-24h2.4v-2.4h-2.4v2.4Zm0,24h2.4v-2.4h-2.4v2.4Zm-48,24h2.4v-2.4h-2.4v2.4Zm24,0h2.4v-2.4h-2.4v2.4Zm-24,24h2.4v-2.4h-2.4v2.4Zm24,0h2.4v-2.4h-2.4v2.4Zm24-24h2.4v-2.4h-2.4v2.4Zm0,24h2.4v-2.4h-2.4v2.4Zm24-72h2.4v-2.4h-2.4v2.4Zm24,0h2.4v-2.4h-2.4v2.4Zm-24,24h2.4v-2.4h-2.4v2.4Zm24,0h2.4v-2.4h-2.4v2.4Zm24-24h2.4v-2.4h-2.4v2.4Zm0,24h2.4v-2.4h-2.4v2.4Zm-48,24h2.4v-2.4h-2.4v2.4Zm24,0h2.4v-2.4h-2.4v2.4Zm-24,24h2.4v-2.4h-2.4v2.4Zm24,0h2.4v-2.4h-2.4v2.4Zm24-24h2.4v-2.4h-2.4v2.4Zm0,24h2.4v-2.4h-2.4v2.4ZM720,2.4h2.4V0h-2.4v2.4Zm24,0h2.4V0h-2.4v2.4Zm-24,24h2.4v-2.4h-2.4v2.4Zm24,0h2.4v-2.4h-2.4v2.4Zm24-24h2.4V0h-2.4v2.4Zm0,24h2.4v-2.4h-2.4v2.4Zm-48,24h2.4v-2.4h-2.4v2.4Zm24,0h2.4v-2.4h-2.4v2.4Zm-24,24h2.4v-2.4h-2.4v2.4Zm24,0h2.4v-2.4h-2.4v2.4Zm24-24h2.4v-2.4h-2.4v2.4Zm0,24h2.4v-2.4h-2.4v2.4Zm24-72h2.4V0h-2.4v2.4Zm24,0h2.4V0h-2.4v2.4Zm-24,24h2.4v-2.4h-2.4v2.4Zm24,0h2.4v-2.4h-2.4v2.4Zm24-24h2.4V0h-2.4v2.4Zm0,24h2.4v-2.4h-2.4v2.4Zm-48,24h2.4v-2.4h-2.4v2.4Zm24,0h2.4v-2.4h-2.4v2.4Zm-24,24h2.4v-2.4h-2.4v2.4Zm24,0h2.4v-2.4h-2.4v2.4Zm24-24h2.4v-2.4h-2.4v2.4Zm0,24h2.4v-2.4h-2.4v2.4Zm-120,24h2.4v-2.4h-2.4v2.4Zm24,0h2.4v-2.4h-2.4v2.4Zm-24,24h2.4v-2.4h-2.4v2.4Zm24,0h2.4v-2.4h-2.4v2.4Zm24-24h2.4v-2.4h-2.4v2.4Zm0,24h2.4v-2.4h-2.4v2.4Zm-48,24h2.4v-2.4h-2.4v2.4Zm24,0h2.4v-2.4h-2.4v2.4Zm-24,24h2.4v-2.4h-2.4v2.4Zm24,0h2.4v-2.4h-2.4v2.4Zm24-24h2.4v-2.4h-2.4v2.4Zm0,24h2.4v-2.4h-2.4v2.4Zm24-72h2.4v-2.4h-2.4v2.4Zm24,0h2.4v-2.4h-2.4v2.4Zm-24,24h2.4v-2.4h-2.4v2.4Zm24,0h2.4v-2.4h-2.4v2.4Zm24-24h2.4v-2.4h-2.4v2.4Zm0,24h2.4v-2.4h-2.4v2.4Zm-48,24h2.4v-2.4h-2.4v2.4Zm24,0h2.4v-2.4h-2.4v2.4Zm-24,24h2.4v-2.4h-2.4v2.4Zm24,0h2.4v-2.4h-2.4v2.4Zm24-24h2.4v-2.4h-2.4v2.4Zm0,24h2.4v-2.4h-2.4v2.4Zm-264,24h2.4v-2.4h-2.4v2.4Zm24,0h2.4v-2.4h-2.4v2.4Zm-24,24h2.4v-2.4h-2.4v2.4Zm24,0h2.4v-2.4h-2.4v2.4Zm24-24h2.4v-2.4h-2.4v2.4Zm0,24h2.4v-2.4h-2.4v2.4Zm-48,24h2.4v-2.4h-2.4v2.4Zm24,0h2.4v-2.4h-2.4v2.4Zm-24,24h2.4v-2.4h-2.4v2.4Zm24,0h2.4v-2.4h-2.4v2.4Zm24-24h2.4v-2.4h-2.4v2.4Zm0,24h2.4v-2.4h-2.4v2.4Zm24-72h2.4v-2.4h-2.4v2.4Zm24,0h2.4v-2.4h-2.4v2.4Zm-24,24h2.4v-2.4h-2.4v2.4Zm24,0h2.4v-2.4h-2.4v2.4Zm24-24h2.4v-2.4h-2.4v2.4Zm0,24h2.4v-2.4h-2.4v2.4Zm-48,24h2.4v-2.4h-2.4v2.4Zm24,0h2.4v-2.4h-2.4v2.4Zm-24,24h2.4v-2.4h-2.4v2.4Zm24,0h2.4v-2.4h-2.4v2.4Zm24-24h2.4v-2.4h-2.4v2.4Zm0,24h2.4v-2.4h-2.4v2.4Zm-120,24h2.4v-2.4h-2.4v2.4Zm24,0h2.4v-2.4h-2.4v2.4Zm-24,24h2.4v-2.4h-2.4v2.4Zm24,0h2.4v-2.4h-2.4v2.4Zm24-24h2.4v-2.4h-2.4v2.4Zm0,24h2.4v-2.4h-2.4v2.4Zm-48,24h2.4v-2.4h-2.4v2.4Zm24,0h2.4v-2.4h-2.4v2.4Zm-24,24h2.4v-2.4h-2.4v2.4Zm24,0h2.4v-2.4h-2.4v2.4Zm24-24h2.4v-2.4h-2.4v2.4Zm0,24h2.4v-2.4h-2.4v2.4Zm24-72h2.4v-2.4h-2.4v2.4Zm24,0h2.4v-2.4h-2.4v2.4Zm-24,24h2.4v-2.4h-2.4v2.4Zm24,0h2.4v-2.4h-2.4v2.4Zm24-24h2.4v-2.4h-2.4v2.4Zm0,24h2.4v-2.4h-2.4v2.4Zm-48,24h2.4v-2.4h-2.4v2.4Zm24,0h2.4v-2.4h-2.4v2.4Zm-24,24h2.4v-2.4h-2.4v2.4Zm24,0h2.4v-2.4h-2.4v2.4Zm24-24h2.4v-2.4h-2.4v2.4Zm0,24h2.4v-2.4h-2.4v2.4Zm24-168h2.4v-2.4h-2.4v2.4Zm24,0h2.4v-2.4h-2.4v2.4Zm-24,24h2.4v-2.4h-2.4v2.4Zm24,0h2.4v-2.4h-2.4v2.4Zm24-24h2.4v-2.4h-2.4v2.4Zm0,24h2.4v-2.4h-2.4v2.4Zm-48,24h2.4v-2.4h-2.4v2.4Zm24,0h2.4v-2.4h-2.4v2.4Zm-24,24h2.4v-2.4h-2.4v2.4Zm24,0h2.4v-2.4h-2.4v2.4Zm24-24h2.4v-2.4h-2.4v2.4Zm0,24h2.4v-2.4h-2.4v2.4Zm24-72h2.4v-2.4h-2.4v2.4Zm24,0h2.4v-2.4h-2.4v2.4Zm-24,24h2.4v-2.4h-2.4v2.4Zm24,0h2.4v-2.4h-2.4v2.4Zm24-24h2.4v-2.4h-2.4v2.4Zm0,24h2.4v-2.4h-2.4v2.4Zm-48,24h2.4v-2.4h-2.4v2.4Zm24,0h2.4v-2.4h-2.4v2.4Zm-24,24h2.4v-2.4h-2.4v2.4Zm24,0h2.4v-2.4h-2.4v2.4Zm24-24h2.4v-2.4h-2.4v2.4Zm0,24h2.4v-2.4h-2.4v2.4Zm-120,24h2.4v-2.4h-2.4v2.4Zm24,0h2.4v-2.4h-2.4v2.4Zm-24,24h2.4v-2.4h-2.4v2.4Zm24,0h2.4v-2.4h-2.4v2.4Zm24-24h2.4v-2.4h-2.4v2.4Zm0,24h2.4v-2.4h-2.4v2.4Zm-48,24h2.4v-2.4h-2.4v2.4Zm24,0h2.4v-2.4h-2.4v2.4Zm-24,24h2.4v-2.4h-2.4v2.4Zm24,0h2.4v-2.4h-2.4v2.4Zm24-24h2.4v-2.4h-2.4v2.4Zm0,24h2.4v-2.4h-2.4v2.4Zm24-72h2.4v-2.4h-2.4v2.4Zm24,0h2.4v-2.4h-2.4v2.4Zm-24,24h2.4v-2.4h-2.4v2.4Zm24,0h2.4v-2.4h-2.4v2.4Zm24-24h2.4v-2.4h-2.4v2.4Zm0,24h2.4v-2.4h-2.4v2.4Zm-48,24h2.4v-2.4h-2.4v2.4Zm24,0h2.4v-2.4h-2.4v2.4Zm-24,24h2.4v-2.4h-2.4v2.4Zm24,0h2.4v-2.4h-2.4v2.4Zm24-24h2.4v-2.4h-2.4v2.4Zm0,24h2.4v-2.4h-2.4v2.4ZM864,2.4h2.4V0h-2.4v2.4Zm24,0h2.4V0h-2.4v2.4Zm-24,24h2.4v-2.4h-2.4v2.4Zm24,0h2.4v-2.4h-2.4v2.4Zm24-24h2.4V0h-2.4v2.4Zm0,24h2.4v-2.4h-2.4v2.4Zm-48,24h2.4v-2.4h-2.4v2.4Zm24,0h2.4v-2.4h-2.4v2.4Zm-24,24h2.4v-2.4h-2.4v2.4Zm24,0h2.4v-2.4h-2.4v2.4Zm24-24h2.4v-2.4h-2.4v2.4Zm0,24h2.4v-2.4h-2.4v2.4Zm24-72h2.4V0h-2.4v2.4Zm24,0h2.4V0h-2.4v2.4Zm-24,24h2.4v-2.4h-2.4v2.4Zm24,0h2.4v-2.4h-2.4v2.4Zm24-24h2.4V0h-2.4v2.4Zm0,24h2.4v-2.4h-2.4v2.4Zm-48,24h2.4v-2.4h-2.4v2.4Zm24,0h2.4v-2.4h-2.4v2.4Zm-24,24h2.4v-2.4h-2.4v2.4Zm24,0h2.4v-2.4h-2.4v2.4Zm24-24h2.4v-2.4h-2.4v2.4Zm0,24h2.4v-2.4h-2.4v2.4Zm-120,24h2.4v-2.4h-2.4v2.4Zm24,0h2.4v-2.4h-2.4v2.4Zm-24,24h2.4v-2.4h-2.4v2.4Zm24,0h2.4v-2.4h-2.4v2.4Zm24-24h2.4v-2.4h-2.4v2.4Zm0,24h2.4v-2.4h-2.4v2.4Zm-48,24h2.4v-2.4h-2.4v2.4Zm24,0h2.4v-2.4h-2.4v2.4Zm-24,24h2.4v-2.4h-2.4v2.4Zm24,0h2.4v-2.4h-2.4v2.4Zm24-24h2.4v-2.4h-2.4v2.4Zm0,24h2.4v-2.4h-2.4v2.4Zm24-72h2.4v-2.4h-2.4v2.4Zm24,0h2.4v-2.4h-2.4v2.4Zm-24,24h2.4v-2.4h-2.4v2.4Zm24,0h2.4v-2.4h-2.4v2.4Zm24-24h2.4v-2.4h-2.4v2.4Zm0,24h2.4v-2.4h-2.4v2.4Zm-48,24h2.4v-2.4h-2.4v2.4Zm24,0h2.4v-2.4h-2.4v2.4Zm-24,24h2.4v-2.4h-2.4v2.4Zm24,0h2.4v-2.4h-2.4v2.4Zm24-24h2.4v-2.4h-2.4v2.4Zm0,24h2.4v-2.4h-2.4v2.4ZM1008,2.4h2.4V0h-2.4v2.4Zm24,0h2.4V0h-2.4v2.4Zm-24,24h2.4v-2.4h-2.4v2.4Zm24,0h2.4v-2.4h-2.4v2.4Zm24-24h2.4V0h-2.4v2.4Zm0,24h2.4v-2.4h-2.4v2.4Zm-48,24h2.4v-2.4h-2.4v2.4Zm24,0h2.4v-2.4h-2.4v2.4Zm-24,24h2.4v-2.4h-2.4v2.4Zm24,0h2.4v-2.4h-2.4v2.4Zm24-24h2.4v-2.4h-2.4v2.4Zm0,24h2.4v-2.4h-2.4v2.4ZM1080,0v2.4h2.4V0h-2.4Zm0,26.4h2.4v-2.4h-2.4v2.4Zm0,24h2.4v-2.4h-2.4v2.4Zm0,24h2.4v-2.4h-2.4v2.4Zm-72,24h2.4v-2.4h-2.4v2.4Zm24,0h2.4v-2.4h-2.4v2.4Zm-24,24h2.4v-2.4h-2.4v2.4Zm24,0h2.4v-2.4h-2.4v2.4Zm24-24h2.4v-2.4h-2.4v2.4Zm0,24h2.4v-2.4h-2.4v2.4Zm-48,24h2.4v-2.4h-2.4v2.4Zm24,0h2.4v-2.4h-2.4v2.4Zm-24,24h2.4v-2.4h-2.4v2.4Zm24,0h2.4v-2.4h-2.4v2.4Zm24-24h2.4v-2.4h-2.4v2.4Zm0,24h2.4v-2.4h-2.4v2.4Zm24-72h2.4v-2.4h-2.4v2.4Zm0,24h2.4v-2.4h-2.4v2.4Zm0,24h2.4v-2.4h-2.4v2.4Zm0,24h2.4v-2.4h-2.4v2.4Zm-216,24h2.4v-2.4h-2.4v2.4Zm24,0h2.4v-2.4h-2.4v2.4Zm-24,24h2.4v-2.4h-2.4v2.4Zm24,0h2.4v-2.4h-2.4v2.4Zm24-24h2.4v-2.4h-2.4v2.4Zm0,24h2.4v-2.4h-2.4v2.4Zm-48,24h2.4v-2.4h-2.4v2.4Zm24,0h2.4v-2.4h-2.4v2.4Zm-24,24h2.4v-2.4h-2.4v2.4Zm24,0h2.4v-2.4h-2.4v2.4Zm24-24h2.4v-2.4h-2.4v2.4Zm0,24h2.4v-2.4h-2.4v2.4Zm24-72h2.4v-2.4h-2.4v2.4Zm24,0h2.4v-2.4h-2.4v2.4Zm-24,24h2.4v-2.4h-2.4v2.4Zm24,0h2.4v-2.4h-2.4v2.4Zm24-24h2.4v-2.4h-2.4v2.4Zm0,24h2.4v-2.4h-2.4v2.4Zm-48,24h2.4v-2.4h-2.4v2.4Zm24,0h2.4v-2.4h-2.4v2.4Zm-24,24h2.4v-2.4h-2.4v2.4Zm24,0h2.4v-2.4h-2.4v2.4Zm24-24h2.4v-2.4h-2.4v2.4Zm0,24h2.4v-2.4h-2.4v2.4Zm-120,24h2.4v-2.4h-2.4v2.4Zm24,0h2.4v-2.4h-2.4v2.4Zm-24,24h2.4v-2.4h-2.4v2.4Zm24,0h2.4v-2.4h-2.4v2.4Zm24-24h2.4v-2.4h-2.4v2.4Zm0,24h2.4v-2.4h-2.4v2.4Zm-48,24h2.4v-2.4h-2.4v2.4Zm24,0h2.4v-2.4h-2.4v2.4Zm-24,24h2.4v-2.4h-2.4v2.4Zm24,0h2.4v-2.4h-2.4v2.4Zm24-24h2.4v-2.4h-2.4v2.4Zm0,24h2.4v-2.4h-2.4v2.4Zm24-72h2.4v-2.4h-2.4v2.4Zm24,0h2.4v-2.4h-2.4v2.4Zm-24,24h2.4v-2.4h-2.4v2.4Zm24,0h2.4v-2.4h-2.4v2.4Zm24-24h2.4v-2.4h-2.4v2.4Zm0,24h2.4v-2.4h-2.4v2.4Zm-48,24h2.4v-2.4h-2.4v2.4Zm24,0h2.4v-2.4h-2.4v2.4Zm-24,24h2.4v-2.4h-2.4v2.4Zm24,0h2.4v-2.4h-2.4v2.4Zm24-24h2.4v-2.4h-2.4v2.4Zm0,24h2.4v-2.4h-2.4v2.4Zm24-168h2.4v-2.4h-2.4v2.4Zm24,0h2.4v-2.4h-2.4v2.4Zm-24,24h2.4v-2.4h-2.4v2.4Zm24,0h2.4v-2.4h-2.4v2.4Zm24-24h2.4v-2.4h-2.4v2.4Zm0,24h2.4v-2.4h-2.4v2.4Zm-48,24h2.4v-2.4h-2.4v2.4Zm24,0h2.4v-2.4h-2.4v2.4Zm-24,24h2.4v-2.4h-2.4v2.4Zm24,0h2.4v-2.4h-2.4v2.4Zm24-24h2.4v-2.4h-2.4v2.4Zm0,24h2.4v-2.4h-2.4v2.4Zm24-72h2.4v-2.4h-2.4v2.4Zm0,24h2.4v-2.4h-2.4v2.4Zm0,24h2.4v-2.4h-2.4v2.4Zm0,24h2.4v-2.4h-2.4v2.4Zm-72,24h2.4v-2.4h-2.4v2.4Zm24,0h2.4v-2.4h-2.4v2.4Zm-24,24h2.4v-2.4h-2.4v2.4Zm24,0h2.4v-2.4h-2.4v2.4Zm24-24h2.4v-2.4h-2.4v2.4Zm0,24h2.4v-2.4h-2.4v2.4Zm-48,24h2.4v-2.4h-2.4v2.4Zm24,0h2.4v-2.4h-2.4v2.4Zm-24,24h2.4v-2.4h-2.4v2.4Zm24,0h2.4v-2.4h-2.4v2.4Zm24-24h2.4v-2.4h-2.4v2.4Zm0,24h2.4v-2.4h-2.4v2.4Zm24-72h2.4v-2.4h-2.4v2.4Zm0,24h2.4v-2.4h-2.4v2.4Zm0,24h2.4v-2.4h-2.4v2.4Zm0,24h2.4v-2.4h-2.4v2.4Zm-504,24h2.4v-2.4h-2.4v2.4Zm24,0h2.4v-2.4h-2.4v2.4Zm-24,24h2.4v-2.4h-2.4v2.4Zm24,0h2.4v-2.4h-2.4v2.4Zm24-24h2.4v-2.4h-2.4v2.4Zm0,24h2.4v-2.4h-2.4v2.4Zm-48,24h2.4v-2.4h-2.4v2.4Zm24,0h2.4v-2.4h-2.4v2.4Zm-24,24h2.4v-2.4h-2.4v2.4Zm24,0h2.4v-2.4h-2.4v2.4Zm24-24h2.4v-2.4h-2.4v2.4Zm0,24h2.4v-2.4h-2.4v2.4Zm24-72h2.4v-2.4h-2.4v2.4Zm24,0h2.4v-2.4h-2.4v2.4Zm-24,24h2.4v-2.4h-2.4v2.4Zm24,0h2.4v-2.4h-2.4v2.4Zm24-24h2.4v-2.4h-2.4v2.4Zm0,24h2.4v-2.4h-2.4v2.4Zm-48,24h2.4v-2.4h-2.4v2.4Zm24,0h2.4v-2.4h-2.4v2.4Zm-24,24h2.4v-2.4h-2.4v2.4Zm24,0h2.4v-2.4h-2.4v2.4Zm24-24h2.4v-2.4h-2.4v2.4Zm0,24h2.4v-2.4h-2.4v2.4Zm-120,24h2.4v-2.4h-2.4v2.4Zm24,0h2.4v-2.4h-2.4v2.4Zm-24,24h2.4v-2.4h-2.4v2.4Zm24,0h2.4v-2.4h-2.4v2.4Zm24-24h2.4v-2.4h-2.4v2.4Zm0,24h2.4v-2.4h-2.4v2.4Zm-48,24h2.4v-2.4h-2.4v2.4Zm24,0h2.4v-2.4h-2.4v2.4Zm-24,24h2.4v-2.4h-2.4v2.4Zm24,0h2.4v-2.4h-2.4v2.4Zm24-24h2.4v-2.4h-2.4v2.4Zm0,24h2.4v-2.4h-2.4v2.4Zm24-72h2.4v-2.4h-2.4v2.4Zm24,0h2.4v-2.4h-2.4v2.4Zm-24,24h2.4v-2.4h-2.4v2.4Zm24,0h2.4v-2.4h-2.4v2.4Zm24-24h2.4v-2.4h-2.4v2.4Zm0,24h2.4v-2.4h-2.4v2.4Zm-48,24h2.4v-2.4h-2.4v2.4Zm24,0h2.4v-2.4h-2.4v2.4Zm-24,24h2.4v-2.4h-2.4v2.4Zm24,0h2.4v-2.4h-2.4v2.4Zm24-24h2.4v-2.4h-2.4v2.4Zm0,24h2.4v-2.4h-2.4v2.4Zm24-168h2.4v-2.4h-2.4v2.4Zm24,0h2.4v-2.4h-2.4v2.4Zm-24,24h2.4v-2.4h-2.4v2.4Zm24,0h2.4v-2.4h-2.4v2.4Zm24-24h2.4v-2.4h-2.4v2.4Zm0,24h2.4v-2.4h-2.4v2.4Zm-48,24h2.4v-2.4h-2.4v2.4Zm24,0h2.4v-2.4h-2.4v2.4Zm-24,24h2.4v-2.4h-2.4v2.4Zm24,0h2.4v-2.4h-2.4v2.4Zm24-24h2.4v-2.4h-2.4v2.4Zm0,24h2.4v-2.4h-2.4v2.4Zm24-72h2.4v-2.4h-2.4v2.4Zm24,0h2.4v-2.4h-2.4v2.4Zm-24,24h2.4v-2.4h-2.4v2.4Zm24,0h2.4v-2.4h-2.4v2.4Zm24-24h2.4v-2.4h-2.4v2.4Zm0,24h2.4v-2.4h-2.4v2.4Zm-48,24h2.4v-2.4h-2.4v2.4Zm24,0h2.4v-2.4h-2.4v2.4Zm-24,24h2.4v-2.4h-2.4v2.4Zm24,0h2.4v-2.4h-2.4v2.4Zm24-24h2.4v-2.4h-2.4v2.4Zm0,24h2.4v-2.4h-2.4v2.4Zm-120,24h2.4v-2.4h-2.4v2.4Zm24,0h2.4v-2.4h-2.4v2.4Zm-24,24h2.4v-2.4h-2.4v2.4Zm24,0h2.4v-2.4h-2.4v2.4Zm24-24h2.4v-2.4h-2.4v2.4Zm0,24h2.4v-2.4h-2.4v2.4Zm-48,24h2.4v-2.4h-2.4v2.4Zm24,0h2.4v-2.4h-2.4v2.4Zm-24,24h2.4v-2.4h-2.4v2.4Zm24,0h2.4v-2.4h-2.4v2.4Zm24-24h2.4v-2.4h-2.4v2.4Zm0,24h2.4v-2.4h-2.4v2.4Zm24-72h2.4v-2.4h-2.4v2.4Zm24,0h2.4v-2.4h-2.4v2.4Zm-24,24h2.4v-2.4h-2.4v2.4Zm24,0h2.4v-2.4h-2.4v2.4Zm24-24h2.4v-2.4h-2.4v2.4Zm0,24h2.4v-2.4h-2.4v2.4Zm-48,24h2.4v-2.4h-2.4v2.4Zm24,0h2.4v-2.4h-2.4v2.4Zm-24,24h2.4v-2.4h-2.4v2.4Zm24,0h2.4v-2.4h-2.4v2.4Zm24-24h2.4v-2.4h-2.4v2.4Zm0,24h2.4v-2.4h-2.4v2.4Zm-264,24h2.4v-2.4h-2.4v2.4Zm24,0h2.4v-2.4h-2.4v2.4Zm-24,24h2.4v-2.4h-2.4v2.4Zm24,0h2.4v-2.4h-2.4v2.4Zm24-24h2.4v-2.4h-2.4v2.4Zm0,24h2.4v-2.4h-2.4v2.4Zm-48,24h2.4v-2.4h-2.4v2.4Zm24,0h2.4v-2.4h-2.4v2.4Zm-24,24h2.4v-2.4h-2.4v2.4Zm24,0h2.4v-2.4h-2.4v2.4Zm24-24h2.4v-2.4h-2.4v2.4Zm0,24h2.4v-2.4h-2.4v2.4Zm24-72h2.4v-2.4h-2.4v2.4Zm24,0h2.4v-2.4h-2.4v2.4Zm-24,24h2.4v-2.4h-2.4v2.4Zm24,0h2.4v-2.4h-2.4v2.4Zm24-24h2.4v-2.4h-2.4v2.4Zm0,24h2.4v-2.4h-2.4v2.4Zm-48,24h2.4v-2.4h-2.4v2.4Zm24,0h2.4v-2.4h-2.4v2.4Zm-24,24h2.4v-2.4h-2.4v2.4Zm24,0h2.4v-2.4h-2.4v2.4Zm24-24h2.4v-2.4h-2.4v2.4Zm0,24h2.4v-2.4h-2.4v2.4Zm-120,24h2.4v-2.4h-2.4v2.4Zm24,0h2.4v-2.4h-2.4v2.4Zm-24,24h2.4v-2.4h-2.4v2.4Zm24,0h2.4v-2.4h-2.4v2.4Zm24-24h2.4v-2.4h-2.4v2.4Zm0,24h2.4v-2.4h-2.4v2.4Zm-48,24h2.4v-2.4h-2.4v2.4Zm24,0h2.4v-2.4h-2.4v2.4Zm24,0h2.4v-2.4h-2.4v2.4Zm24-48h2.4v-2.4h-2.4v2.4Zm24,0h2.4v-2.4h-2.4v2.4Zm-24,24h2.4v-2.4h-2.4v2.4Zm24,0h2.4v-2.4h-2.4v2.4Zm24-24h2.4v-2.4h-2.4v2.4Zm0,24h2.4v-2.4h-2.4v2.4Zm-48,24h2.4v-2.4h-2.4v2.4Zm24,0h2.4v-2.4h-2.4v2.4Zm24,0h2.4v-2.4h-2.4v2.4Zm24-144h2.4v-2.4h-2.4v2.4Zm24,0h2.4v-2.4h-2.4v2.4Zm-24,24h2.4v-2.4h-2.4v2.4Zm24,0h2.4v-2.4h-2.4v2.4Zm24-24h2.4v-2.4h-2.4v2.4Zm0,24h2.4v-2.4h-2.4v2.4Zm-48,24h2.4v-2.4h-2.4v2.4Zm24,0h2.4v-2.4h-2.4v2.4Zm-24,24h2.4v-2.4h-2.4v2.4Zm24,0h2.4v-2.4h-2.4v2.4Zm24-24h2.4v-2.4h-2.4v2.4Zm0,24h2.4v-2.4h-2.4v2.4Zm24-72h2.4v-2.4h-2.4v2.4Zm24,0h2.4v-2.4h-2.4v2.4Zm-24,24h2.4v-2.4h-2.4v2.4Zm24,0h2.4v-2.4h-2.4v2.4Zm24-24h2.4v-2.4h-2.4v2.4Zm0,24h2.4v-2.4h-2.4v2.4Zm-48,24h2.4v-2.4h-2.4v2.4Zm24,0h2.4v-2.4h-2.4v2.4Zm-24,24h2.4v-2.4h-2.4v2.4Zm24,0h2.4v-2.4h-2.4v2.4Zm24-24h2.4v-2.4h-2.4v2.4Zm0,24h2.4v-2.4h-2.4v2.4Zm-120,24h2.4v-2.4h-2.4v2.4Zm24,0h2.4v-2.4h-2.4v2.4Zm-24,24h2.4v-2.4h-2.4v2.4Zm24,0h2.4v-2.4h-2.4v2.4Zm24-24h2.4v-2.4h-2.4v2.4Zm0,24h2.4v-2.4h-2.4v2.4Zm-48,24h2.4v-2.4h-2.4v2.4Zm24,0h2.4v-2.4h-2.4v2.4Zm24,0h2.4v-2.4h-2.4v2.4Zm24-48h2.4v-2.4h-2.4v2.4Zm24,0h2.4v-2.4h-2.4v2.4Zm-24,24h2.4v-2.4h-2.4v2.4Zm24,0h2.4v-2.4h-2.4v2.4Zm24-24h2.4v-2.4h-2.4v2.4Zm0,24h2.4v-2.4h-2.4v2.4Zm-48,24h2.4v-2.4h-2.4v2.4Zm24,0h2.4v-2.4h-2.4v2.4Zm24,0h2.4v-2.4h-2.4v2.4Zm24-336h2.4v-2.4h-2.4v2.4Zm24,0h2.4v-2.4h-2.4v2.4Zm-24,24h2.4v-2.4h-2.4v2.4Zm24,0h2.4v-2.4h-2.4v2.4Zm24-24h2.4v-2.4h-2.4v2.4Zm0,24h2.4v-2.4h-2.4v2.4Zm-48,24h2.4v-2.4h-2.4v2.4Zm24,0h2.4v-2.4h-2.4v2.4Zm-24,24h2.4v-2.4h-2.4v2.4Zm24,0h2.4v-2.4h-2.4v2.4Zm24-24h2.4v-2.4h-2.4v2.4Zm0,24h2.4v-2.4h-2.4v2.4Zm24-72h2.4v-2.4h-2.4v2.4Zm24,0h2.4v-2.4h-2.4v2.4Zm-24,24h2.4v-2.4h-2.4v2.4Zm24,0h2.4v-2.4h-2.4v2.4Zm24-24h2.4v-2.4h-2.4v2.4Zm0,24h2.4v-2.4h-2.4v2.4Zm-48,24h2.4v-2.4h-2.4v2.4Zm24,0h2.4v-2.4h-2.4v2.4Zm-24,24h2.4v-2.4h-2.4v2.4Zm24,0h2.4v-2.4h-2.4v2.4Zm24-24h2.4v-2.4h-2.4v2.4Zm0,24h2.4v-2.4h-2.4v2.4Zm-120,24h2.4v-2.4h-2.4v2.4Zm24,0h2.4v-2.4h-2.4v2.4Zm-24,24h2.4v-2.4h-2.4v2.4Zm24,0h2.4v-2.4h-2.4v2.4Zm24-24h2.4v-2.4h-2.4v2.4Zm0,24h2.4v-2.4h-2.4v2.4Zm-48,24h2.4v-2.4h-2.4v2.4Zm24,0h2.4v-2.4h-2.4v2.4Zm-24,24h2.4v-2.4h-2.4v2.4Zm24,0h2.4v-2.4h-2.4v2.4Zm24-24h2.4v-2.4h-2.4v2.4Zm0,24h2.4v-2.4h-2.4v2.4Zm24-72h2.4v-2.4h-2.4v2.4Zm24,0h2.4v-2.4h-2.4v2.4Zm-24,24h2.4v-2.4h-2.4v2.4Zm24,0h2.4v-2.4h-2.4v2.4Zm24-24h2.4v-2.4h-2.4v2.4Zm0,24h2.4v-2.4h-2.4v2.4Zm-48,24h2.4v-2.4h-2.4v2.4Zm24,0h2.4v-2.4h-2.4v2.4Zm-24,24h2.4v-2.4h-2.4v2.4Zm24,0h2.4v-2.4h-2.4v2.4Zm24-24h2.4v-2.4h-2.4v2.4Zm0,24h2.4v-2.4h-2.4v2.4Zm24-168h2.4v-2.4h-2.4v2.4Zm24,0h2.4v-2.4h-2.4v2.4Zm-24,24h2.4v-2.4h-2.4v2.4Zm24,0h2.4v-2.4h-2.4v2.4Zm24-24h2.4v-2.4h-2.4v2.4Zm0,24h2.4v-2.4h-2.4v2.4Zm-48,24h2.4v-2.4h-2.4v2.4Zm24,0h2.4v-2.4h-2.4v2.4Zm-24,24h2.4v-2.4h-2.4v2.4Zm24,0h2.4v-2.4h-2.4v2.4Zm24-24h2.4v-2.4h-2.4v2.4Zm0,24h2.4v-2.4h-2.4v2.4Zm24-72h2.4v-2.4h-2.4v2.4Zm0,24h2.4v-2.4h-2.4v2.4Zm0,24h2.4v-2.4h-2.4v2.4Zm0,24h2.4v-2.4h-2.4v2.4Zm-72,24h2.4v-2.4h-2.4v2.4Zm24,0h2.4v-2.4h-2.4v2.4Zm-24,24h2.4v-2.4h-2.4v2.4Zm24,0h2.4v-2.4h-2.4v2.4Zm24-24h2.4v-2.4h-2.4v2.4Zm0,24h2.4v-2.4h-2.4v2.4Zm-48,24h2.4v-2.4h-2.4v2.4Zm24,0h2.4v-2.4h-2.4v2.4Zm-24,24h2.4v-2.4h-2.4v2.4Zm24,0h2.4v-2.4h-2.4v2.4Zm24-24h2.4v-2.4h-2.4v2.4Zm0,24h2.4v-2.4h-2.4v2.4Zm24-72h2.4v-2.4h-2.4v2.4Zm0,24h2.4v-2.4h-2.4v2.4Zm0,24h2.4v-2.4h-2.4v2.4Zm0,24h2.4v-2.4h-2.4v2.4Zm-216,24h2.4v-2.4h-2.4v2.4Zm24,0h2.4v-2.4h-2.4v2.4Zm-24,24h2.4v-2.4h-2.4v2.4Zm24,0h2.4v-2.4h-2.4v2.4Zm24-24h2.4v-2.4h-2.4v2.4Zm0,24h2.4v-2.4h-2.4v2.4Zm-48,24h2.4v-2.4h-2.4v2.4Zm24,0h2.4v-2.4h-2.4v2.4Zm-24,24h2.4v-2.4h-2.4v2.4Zm24,0h2.4v-2.4h-2.4v2.4Zm24-24h2.4v-2.4h-2.4v2.4Zm0,24h2.4v-2.4h-2.4v2.4Zm24-72h2.4v-2.4h-2.4v2.4Zm24,0h2.4v-2.4h-2.4v2.4Zm-24,24h2.4v-2.4h-2.4v2.4Zm24,0h2.4v-2.4h-2.4v2.4Zm24-24h2.4v-2.4h-2.4v2.4Zm0,24h2.4v-2.4h-2.4v2.4Zm-48,24h2.4v-2.4h-2.4v2.4Zm24,0h2.4v-2.4h-2.4v2.4Zm-24,24h2.4v-2.4h-2.4v2.4Zm24,0h2.4v-2.4h-2.4v2.4Zm24-24h2.4v-2.4h-2.4v2.4Zm0,24h2.4v-2.4h-2.4v2.4Zm-120,24h2.4v-2.4h-2.4v2.4Zm24,0h2.4v-2.4h-2.4v2.4Zm-24,24h2.4v-2.4h-2.4v2.4Zm24,0h2.4v-2.4h-2.4v2.4Zm24-24h2.4v-2.4h-2.4v2.4Zm0,24h2.4v-2.4h-2.4v2.4Zm-48,24h2.4v-2.4h-2.4v2.4Zm24,0h2.4v-2.4h-2.4v2.4Zm24,0h2.4v-2.4h-2.4v2.4Zm24-48h2.4v-2.4h-2.4v2.4Zm24,0h2.4v-2.4h-2.4v2.4Zm-24,24h2.4v-2.4h-2.4v2.4Zm24,0h2.4v-2.4h-2.4v2.4Zm24-24h2.4v-2.4h-2.4v2.4Zm0,24h2.4v-2.4h-2.4v2.4Zm-48,24h2.4v-2.4h-2.4v2.4Zm24,0h2.4v-2.4h-2.4v2.4Zm24,0h2.4v-2.4h-2.4v2.4Zm24-144h2.4v-2.4h-2.4v2.4Zm24,0h2.4v-2.4h-2.4v2.4Zm-24,24h2.4v-2.4h-2.4v2.4Zm24,0h2.4v-2.4h-2.4v2.4Zm24-24h2.4v-2.4h-2.4v2.4Zm0,24h2.4v-2.4h-2.4v2.4Zm-48,24h2.4v-2.4h-2.4v2.4Zm24,0h2.4v-2.4h-2.4v2.4Zm-24,24h2.4v-2.4h-2.4v2.4Zm24,0h2.4v-2.4h-2.4v2.4Zm24-24h2.4v-2.4h-2.4v2.4Zm0,24h2.4v-2.4h-2.4v2.4Zm24-72h2.4v-2.4h-2.4v2.4Zm0,24h2.4v-2.4h-2.4v2.4Zm0,24h2.4v-2.4h-2.4v2.4Zm0,24h2.4v-2.4h-2.4v2.4Zm-72,24h2.4v-2.4h-2.4v2.4Zm24,0h2.4v-2.4h-2.4v2.4Zm-24,24h2.4v-2.4h-2.4v2.4Zm24,0h2.4v-2.4h-2.4v2.4Zm24-24h2.4v-2.4h-2.4v2.4Zm0,24h2.4v-2.4h-2.4v2.4Zm-48,24h2.4v-2.4h-2.4v2.4Zm24,0h2.4v-2.4h-2.4v2.4Zm24,0h2.4v-2.4h-2.4v2.4Zm24-48h2.4v-2.4h-2.4v2.4Zm0,24h2.4v-2.4h-2.4v2.4Zm0,24h2.4v-2.4h-2.4v2.4Z"/></g></svg>