<?xml version="1.0" encoding="UTF-8"?><svg id="Layer_2" xmlns="http://www.w3.org/2000/svg" viewBox="0 0 1089.6 729.6"><defs><style>.cls-1{fill-rule:evenodd;stroke-width:0px;}</style></defs><g id="Layer_1-2"><path class="cls-1" d="m4.56,26.4v2.16h-2.16v.48h2.16v2.16h.48v-2.16h2.16v-.48h-2.16v-2.16h-.48Zm-2.16,26.64h2.16v2.16h.48v-2.16h2.16v-.48h-2.16v-2.16h-.48v2.16h-2.16v.48Zm0,24h2.16v2.16h.48v-2.16h2.16v-.48h-2.16v-2.16h-.48v2.16h-2.16v.48Zm0,24h2.16v2.16h.48v-2.16h2.16v-.48h-2.16v-2.16h-.48v2.16h-2.16v.48ZM29.04,26.4h-.48v2.16h-2.16v.48h2.16v2.16h.48v-2.16h2.16v-.48h-2.16v-2.16Zm0,24h-.48v2.16h-2.16v.48h2.16v2.16h.48v-2.16h2.16v-.48h-2.16v-2.16Zm0,24h-.48v2.16h-2.16v.48h2.16v2.16h.48v-2.16h2.16v-.48h-2.16v-2.16Zm0,24h-.48v2.16h-2.16v.48h2.16v2.16h.48v-2.16h2.16v-.48h-2.16v-2.16ZM53.04,26.4h-.48v2.16h-2.16v.48h2.16v2.16h.48v-2.16h2.16v-.48h-2.16v-2.16Zm0,24h-.48v2.16h-2.16v.48h2.16v2.16h.48v-2.16h2.16v-.48h-2.16v-2.16Zm0,24h-.48v2.16h-2.16v.48h2.16v2.16h.48v-2.16h2.16v-.48h-2.16v-2.16Zm0,24h-.48v2.16h-2.16v.48h2.16v2.16h.48v-2.16h2.16v-.48h-2.16v-2.16Zm24-72h-.48v2.16h-2.16v.48h2.16v2.16h.48v-2.16h2.16v-.48h-2.16v-2.16Zm0,24h-.48v2.16h-2.16v.48h2.16v2.16h.48v-2.16h2.16v-.48h-2.16v-2.16Zm0,24h-.48v2.16h-2.16v.48h2.16v2.16h.48v-2.16h2.16v-.48h-2.16v-2.16Zm0,24h-.48v2.16h-2.16v.48h2.16v2.16h.48v-2.16h2.16v-.48h-2.16v-2.16Zm24-72h-.48v2.16h-2.16v.48h2.16v2.16h.48v-2.16h2.16v-.48h-2.16v-2.16Zm0,24h-.48v2.16h-2.16v.48h2.16v2.16h.48v-2.16h2.16v-.48h-2.16v-2.16Zm0,24h-.48v2.16h-2.16v.48h2.16v2.16h.48v-2.16h2.16v-.48h-2.16v-2.16Zm0,24h-.48v2.16h-2.16v.48h2.16v2.16h.48v-2.16h2.16v-.48h-2.16v-2.16Zm23.52-72v2.16h-2.16v.48h2.16v2.16h.48v-2.16h2.16v-.48h-2.16v-2.16h-.48Zm-2.16,26.64h2.16v2.16h.48v-2.16h2.16v-.48h-2.16v-2.16h-.48v2.16h-2.16v.48Zm0,24h2.16v2.16h.48v-2.16h2.16v-.48h-2.16v-2.16h-.48v2.16h-2.16v.48Zm0,24h2.16v2.16h.48v-2.16h2.16v-.48h-2.16v-2.16h-.48v2.16h-2.16v.48ZM29.04,2.4h-.48v2.16h-2.16v.48h2.16v2.16h.48v-2.16h2.16v-.48h-2.16v-2.16Zm24,0h-.48v2.16h-2.16v.48h2.16v2.16h.48v-2.16h2.16v-.48h-2.16v-2.16Zm24,0h-.48v2.16h-2.16v.48h2.16v2.16h.48v-2.16h2.16v-.48h-2.16v-2.16Zm24,0h-.48v2.16h-2.16v.48h2.16v2.16h.48v-2.16h2.16v-.48h-2.16v-2.16ZM29.04,122.4h-.48v2.16h-2.16v.48h2.16v2.16h.48v-2.16h2.16v-.48h-2.16v-2.16Zm24,0h-.48v2.16h-2.16v.48h2.16v2.16h.48v-2.16h2.16v-.48h-2.16v-2.16Zm24,0h-.48v2.16h-2.16v.48h2.16v2.16h.48v-2.16h2.16v-.48h-2.16v-2.16Zm24,0h-.48v2.16h-2.16v.48h2.16v2.16h.48v-2.16h2.16v-.48h-2.16v-2.16Zm48-96h-.48v2.16h-2.16v.48h2.16v2.16h.48v-2.16h2.16v-.48h-2.16v-2.16Zm0,24h-.48v2.16h-2.16v.48h2.16v2.16h.48v-2.16h2.16v-.48h-2.16v-2.16Zm0,24h-.48v2.16h-2.16v.48h2.16v2.16h.48v-2.16h2.16v-.48h-2.16v-2.16Zm0,24h-.48v2.16h-2.16v.48h2.16v2.16h.48v-2.16h2.16v-.48h-2.16v-2.16Zm24-72h-.48v2.16h-2.16v.48h2.16v2.16h.48v-2.16h2.16v-.48h-2.16v-2.16Zm0,24h-.48v2.16h-2.16v.48h2.16v2.16h.48v-2.16h2.16v-.48h-2.16v-2.16Zm0,24h-.48v2.16h-2.16v.48h2.16v2.16h.48v-2.16h2.16v-.48h-2.16v-2.16Zm0,24h-.48v2.16h-2.16v.48h2.16v2.16h.48v-2.16h2.16v-.48h-2.16v-2.16Zm24-72h-.48v2.16h-2.16v.48h2.16v2.16h.48v-2.16h2.16v-.48h-2.16v-2.16Zm0,24h-.48v2.16h-2.16v.48h2.16v2.16h.48v-2.16h2.16v-.48h-2.16v-2.16Zm0,24h-.48v2.16h-2.16v.48h2.16v2.16h.48v-2.16h2.16v-.48h-2.16v-2.16Zm0,24h-.48v2.16h-2.16v.48h2.16v2.16h.48v-2.16h2.16v-.48h-2.16v-2.16Zm24-72h-.48v2.16h-2.16v.48h2.16v2.16h.48v-2.16h2.16v-.48h-2.16v-2.16Zm0,24h-.48v2.16h-2.16v.48h2.16v2.16h.48v-2.16h2.16v-.48h-2.16v-2.16Zm0,24h-.48v2.16h-2.16v.48h2.16v2.16h.48v-2.16h2.16v-.48h-2.16v-2.16Zm0,24h-.48v2.16h-2.16v.48h2.16v2.16h.48v-2.16h2.16v-.48h-2.16v-2.16Zm23.52-72v2.16h-2.16v.48h2.16v2.16h.48v-2.16h2.16v-.48h-2.16v-2.16h-.48Zm-2.16,26.64h2.16v2.16h.48v-2.16h2.16v-.48h-2.16v-2.16h-.48v2.16h-2.16v.48Zm0,24h2.16v2.16h.48v-2.16h2.16v-.48h-2.16v-2.16h-.48v2.16h-2.16v.48Zm0,24h2.16v2.16h.48v-2.16h2.16v-.48h-2.16v-2.16h-.48v2.16h-2.16v.48ZM149.04,2.4h-.48v2.16h-2.16v.48h2.16v2.16h.48v-2.16h2.16v-.48h-2.16v-2.16Zm24,0h-.48v2.16h-2.16v.48h2.16v2.16h.48v-2.16h2.16v-.48h-2.16v-2.16Zm24,0h-.48v2.16h-2.16v.48h2.16v2.16h.48v-2.16h2.16v-.48h-2.16v-2.16Zm24,0h-.48v2.16h-2.16v.48h2.16v2.16h.48v-2.16h2.16v-.48h-2.16v-2.16Zm-72,120h-.48v2.16h-2.16v.48h2.16v2.16h.48v-2.16h2.16v-.48h-2.16v-2.16Zm24,0h-.48v2.16h-2.16v.48h2.16v2.16h.48v-2.16h2.16v-.48h-2.16v-2.16Zm24,0h-.48v2.16h-2.16v.48h2.16v2.16h.48v-2.16h2.16v-.48h-2.16v-2.16Zm24,0h-.48v2.16h-2.16v.48h2.16v2.16h.48v-2.16h2.16v-.48h-2.16v-2.16ZM4.56,146.4v2.16h-2.16v.48h2.16v2.16h.48v-2.16h2.16v-.48h-2.16v-2.16h-.48Zm-2.16,26.64h2.16v2.16h.48v-2.16h2.16v-.48h-2.16v-2.16h-.48v2.16h-2.16v.48Zm0,24h2.16v2.16h.48v-2.16h2.16v-.48h-2.16v-2.16h-.48v2.16h-2.16v.48Zm0,24h2.16v2.16h.48v-2.16h2.16v-.48h-2.16v-2.16h-.48v2.16h-2.16v.48Zm26.64-74.64h-.48v2.16h-2.16v.48h2.16v2.16h.48v-2.16h2.16v-.48h-2.16v-2.16Zm0,24h-.48v2.16h-2.16v.48h2.16v2.16h.48v-2.16h2.16v-.48h-2.16v-2.16Zm0,24h-.48v2.16h-2.16v.48h2.16v2.16h.48v-2.16h2.16v-.48h-2.16v-2.16Zm0,24h-.48v2.16h-2.16v.48h2.16v2.16h.48v-2.16h2.16v-.48h-2.16v-2.16Zm24-72h-.48v2.16h-2.16v.48h2.16v2.16h.48v-2.16h2.16v-.48h-2.16v-2.16Zm0,24h-.48v2.16h-2.16v.48h2.16v2.16h.48v-2.16h2.16v-.48h-2.16v-2.16Zm0,24h-.48v2.16h-2.16v.48h2.16v2.16h.48v-2.16h2.16v-.48h-2.16v-2.16Zm0,24h-.48v2.16h-2.16v.48h2.16v2.16h.48v-2.16h2.16v-.48h-2.16v-2.16Zm24-72h-.48v2.16h-2.16v.48h2.16v2.16h.48v-2.16h2.16v-.48h-2.16v-2.16Zm0,24h-.48v2.16h-2.16v.48h2.16v2.16h.48v-2.16h2.16v-.48h-2.16v-2.16Zm0,24h-.48v2.16h-2.16v.48h2.16v2.16h.48v-2.16h2.16v-.48h-2.16v-2.16Zm0,24h-.48v2.16h-2.16v.48h2.16v2.16h.48v-2.16h2.16v-.48h-2.16v-2.16Zm24-72h-.48v2.16h-2.16v.48h2.16v2.16h.48v-2.16h2.16v-.48h-2.16v-2.16Zm0,24h-.48v2.16h-2.16v.48h2.16v2.16h.48v-2.16h2.16v-.48h-2.16v-2.16Zm0,24h-.48v2.16h-2.16v.48h2.16v2.16h.48v-2.16h2.16v-.48h-2.16v-2.16Zm0,24h-.48v2.16h-2.16v.48h2.16v2.16h.48v-2.16h2.16v-.48h-2.16v-2.16Zm23.52-72v2.16h-2.16v.48h2.16v2.16h.48v-2.16h2.16v-.48h-2.16v-2.16h-.48Zm-2.16,26.64h2.16v2.16h.48v-2.16h2.16v-.48h-2.16v-2.16h-.48v2.16h-2.16v.48Zm0,24h2.16v2.16h.48v-2.16h2.16v-.48h-2.16v-2.16h-.48v2.16h-2.16v.48Zm0,24h2.16v2.16h.48v-2.16h2.16v-.48h-2.16v-2.16h-.48v2.16h-2.16v.48Zm-93.36,21.36h-.48v2.16h-2.16v.48h2.16v2.16h.48v-2.16h2.16v-.48h-2.16v-2.16Zm24,0h-.48v2.16h-2.16v.48h2.16v2.16h.48v-2.16h2.16v-.48h-2.16v-2.16Zm24,0h-.48v2.16h-2.16v.48h2.16v2.16h.48v-2.16h2.16v-.48h-2.16v-2.16Zm24,0h-.48v2.16h-2.16v.48h2.16v2.16h.48v-2.16h2.16v-.48h-2.16v-2.16Zm48-96h-.48v2.16h-2.16v.48h2.16v2.16h.48v-2.16h2.16v-.48h-2.16v-2.16Zm0,24h-.48v2.16h-2.16v.48h2.16v2.16h.48v-2.16h2.16v-.48h-2.16v-2.16Zm0,24h-.48v2.16h-2.16v.48h2.16v2.16h.48v-2.16h2.16v-.48h-2.16v-2.16Zm0,24h-.48v2.16h-2.16v.48h2.16v2.16h.48v-2.16h2.16v-.48h-2.16v-2.16Zm24-72h-.48v2.16h-2.16v.48h2.16v2.16h.48v-2.16h2.16v-.48h-2.16v-2.16Zm0,24h-.48v2.16h-2.16v.48h2.16v2.16h.48v-2.16h2.16v-.48h-2.16v-2.16Zm0,24h-.48v2.16h-2.16v.48h2.16v2.16h.48v-2.16h2.16v-.48h-2.16v-2.16Zm0,24h-.48v2.16h-2.16v.48h2.16v2.16h.48v-2.16h2.16v-.48h-2.16v-2.16Zm24-72h-.48v2.16h-2.16v.48h2.16v2.16h.48v-2.16h2.16v-.48h-2.16v-2.16Zm0,24h-.48v2.16h-2.16v.48h2.16v2.16h.48v-2.16h2.16v-.48h-2.16v-2.16Zm0,24h-.48v2.16h-2.16v.48h2.16v2.16h.48v-2.16h2.16v-.48h-2.16v-2.16Zm0,24h-.48v2.16h-2.16v.48h2.16v2.16h.48v-2.16h2.16v-.48h-2.16v-2.16Zm24-72h-.48v2.16h-2.16v.48h2.16v2.16h.48v-2.16h2.16v-.48h-2.16v-2.16Zm0,24h-.48v2.16h-2.16v.48h2.16v2.16h.48v-2.16h2.16v-.48h-2.16v-2.16Zm0,24h-.48v2.16h-2.16v.48h2.16v2.16h.48v-2.16h2.16v-.48h-2.16v-2.16Zm0,24h-.48v2.16h-2.16v.48h2.16v2.16h.48v-2.16h2.16v-.48h-2.16v-2.16Zm23.52-72v2.16h-2.16v.48h2.16v2.16h.48v-2.16h2.16v-.48h-2.16v-2.16h-.48Zm-2.16,26.64h2.16v2.16h.48v-2.16h2.16v-.48h-2.16v-2.16h-.48v2.16h-2.16v.48Zm0,24h2.16v2.16h.48v-2.16h2.16v-.48h-2.16v-2.16h-.48v2.16h-2.16v.48Zm0,24h2.16v2.16h.48v-2.16h2.16v-.48h-2.16v-2.16h-.48v2.16h-2.16v.48Zm-93.36,21.36h-.48v2.16h-2.16v.48h2.16v2.16h.48v-2.16h2.16v-.48h-2.16v-2.16Zm24,0h-.48v2.16h-2.16v.48h2.16v2.16h.48v-2.16h2.16v-.48h-2.16v-2.16Zm24,0h-.48v2.16h-2.16v.48h2.16v2.16h.48v-2.16h2.16v-.48h-2.16v-2.16Zm24,0h-.48v2.16h-2.16v.48h2.16v2.16h.48v-2.16h2.16v-.48h-2.16v-2.16ZM4.56,266.4v2.16h-2.16v.48h2.16v2.16h.48v-2.16h2.16v-.48h-2.16v-2.16h-.48Zm-2.16,26.64h2.16v2.16h.48v-2.16h2.16v-.48h-2.16v-2.16h-.48v2.16h-2.16v.48Zm0,24h2.16v2.16h.48v-2.16h2.16v-.48h-2.16v-2.16h-.48v2.16h-2.16v.48Zm0,24h2.16v2.16h.48v-2.16h2.16v-.48h-2.16v-2.16h-.48v2.16h-2.16v.48Zm26.64-74.64h-.48v2.16h-2.16v.48h2.16v2.16h.48v-2.16h2.16v-.48h-2.16v-2.16Zm0,24h-.48v2.16h-2.16v.48h2.16v2.16h.48v-2.16h2.16v-.48h-2.16v-2.16Zm0,24h-.48v2.16h-2.16v.48h2.16v2.16h.48v-2.16h2.16v-.48h-2.16v-2.16Zm0,24h-.48v2.16h-2.16v.48h2.16v2.16h.48v-2.16h2.16v-.48h-2.16v-2.16Zm24-72h-.48v2.16h-2.16v.48h2.16v2.16h.48v-2.16h2.16v-.48h-2.16v-2.16Zm0,24h-.48v2.16h-2.16v.48h2.16v2.16h.48v-2.16h2.16v-.48h-2.16v-2.16Zm0,24h-.48v2.16h-2.16v.48h2.16v2.16h.48v-2.16h2.16v-.48h-2.16v-2.16Zm0,24h-.48v2.16h-2.16v.48h2.16v2.16h.48v-2.16h2.16v-.48h-2.16v-2.16Zm24-72h-.48v2.16h-2.16v.48h2.16v2.16h.48v-2.16h2.16v-.48h-2.16v-2.16Zm0,24h-.48v2.16h-2.16v.48h2.16v2.16h.48v-2.16h2.16v-.48h-2.16v-2.16Zm0,24h-.48v2.16h-2.16v.48h2.16v2.16h.48v-2.16h2.16v-.48h-2.16v-2.16Zm0,24h-.48v2.16h-2.16v.48h2.16v2.16h.48v-2.16h2.16v-.48h-2.16v-2.16Zm24-72h-.48v2.16h-2.16v.48h2.16v2.16h.48v-2.16h2.16v-.48h-2.16v-2.16Zm0,24h-.48v2.16h-2.16v.48h2.16v2.16h.48v-2.16h2.16v-.48h-2.16v-2.16Zm0,24h-.48v2.16h-2.16v.48h2.16v2.16h.48v-2.16h2.16v-.48h-2.16v-2.16Zm0,24h-.48v2.16h-2.16v.48h2.16v2.16h.48v-2.16h2.16v-.48h-2.16v-2.16Zm23.52-72v2.16h-2.16v.48h2.16v2.16h.48v-2.16h2.16v-.48h-2.16v-2.16h-.48Zm-2.16,26.64h2.16v2.16h.48v-2.16h2.16v-.48h-2.16v-2.16h-.48v2.16h-2.16v.48Zm0,24h2.16v2.16h.48v-2.16h2.16v-.48h-2.16v-2.16h-.48v2.16h-2.16v.48Zm0,24h2.16v2.16h.48v-2.16h2.16v-.48h-2.16v-2.16h-.48v2.16h-2.16v.48Zm-93.36,21.36h-.48v2.16h-2.16v.48h2.16v2.16h.48v-2.16h2.16v-.48h-2.16v-2.16Zm24,0h-.48v2.16h-2.16v.48h2.16v2.16h.48v-2.16h2.16v-.48h-2.16v-2.16Zm24,0h-.48v2.16h-2.16v.48h2.16v2.16h.48v-2.16h2.16v-.48h-2.16v-2.16Zm24,0h-.48v2.16h-2.16v.48h2.16v2.16h.48v-2.16h2.16v-.48h-2.16v-2.16Zm48-96h-.48v2.16h-2.16v.48h2.16v2.16h.48v-2.16h2.16v-.48h-2.16v-2.16Zm0,24h-.48v2.16h-2.16v.48h2.16v2.16h.48v-2.16h2.16v-.48h-2.16v-2.16Zm0,24h-.48v2.16h-2.16v.48h2.16v2.16h.48v-2.16h2.16v-.48h-2.16v-2.16Zm0,24h-.48v2.16h-2.16v.48h2.16v2.16h.48v-2.16h2.16v-.48h-2.16v-2.16Zm24-72h-.48v2.16h-2.16v.48h2.16v2.16h.48v-2.16h2.16v-.48h-2.16v-2.16Zm0,24h-.48v2.16h-2.16v.48h2.16v2.16h.48v-2.16h2.16v-.48h-2.16v-2.16Zm0,24h-.48v2.16h-2.16v.48h2.16v2.16h.48v-2.16h2.16v-.48h-2.16v-2.16Zm0,24h-.48v2.16h-2.16v.48h2.16v2.16h.48v-2.16h2.16v-.48h-2.16v-2.16Zm24-72h-.48v2.16h-2.16v.48h2.16v2.16h.48v-2.16h2.16v-.48h-2.16v-2.16Zm0,24h-.48v2.16h-2.16v.48h2.16v2.16h.48v-2.16h2.16v-.48h-2.16v-2.16Zm0,24h-.48v2.16h-2.16v.48h2.16v2.16h.48v-2.16h2.16v-.48h-2.16v-2.16Zm0,24h-.48v2.16h-2.16v.48h2.16v2.16h.48v-2.16h2.16v-.48h-2.16v-2.16Zm24-72h-.48v2.16h-2.16v.48h2.16v2.16h.48v-2.16h2.16v-.48h-2.16v-2.16Zm0,24h-.48v2.16h-2.16v.48h2.16v2.16h.48v-2.16h2.16v-.48h-2.16v-2.16Zm0,24h-.48v2.16h-2.16v.48h2.16v2.16h.48v-2.16h2.16v-.48h-2.16v-2.16Zm0,24h-.48v2.16h-2.16v.48h2.16v2.16h.48v-2.16h2.16v-.48h-2.16v-2.16Zm23.52-72v2.16h-2.16v.48h2.16v2.16h.48v-2.16h2.16v-.48h-2.16v-2.16h-.48Zm-2.16,26.64h2.16v2.16h.48v-2.16h2.16v-.48h-2.16v-2.16h-.48v2.16h-2.16v.48Zm0,24h2.16v2.16h.48v-2.16h2.16v-.48h-2.16v-2.16h-.48v2.16h-2.16v.48Zm0,24h2.16v2.16h.48v-2.16h2.16v-.48h-2.16v-2.16h-.48v2.16h-2.16v.48Zm-93.36,21.36h-.48v2.16h-2.16v.48h2.16v2.16h.48v-2.16h2.16v-.48h-2.16v-2.16Zm24,0h-.48v2.16h-2.16v.48h2.16v2.16h.48v-2.16h2.16v-.48h-2.16v-2.16Zm24,0h-.48v2.16h-2.16v.48h2.16v2.16h.48v-2.16h2.16v-.48h-2.16v-2.16Zm24,0h-.48v2.16h-2.16v.48h2.16v2.16h.48v-2.16h2.16v-.48h-2.16v-2.16ZM4.56,386.4v2.16h-2.16v.48h2.16v2.16h.48v-2.16h2.16v-.48h-2.16v-2.16h-.48Zm-2.16,26.64h2.16v2.16h.48v-2.16h2.16v-.48h-2.16v-2.16h-.48v2.16h-2.16v.48Zm0,24h2.16v2.16h.48v-2.16h2.16v-.48h-2.16v-2.16h-.48v2.16h-2.16v.48Zm0,24h2.16v2.16h.48v-2.16h2.16v-.48h-2.16v-2.16h-.48v2.16h-2.16v.48Zm26.64-74.64h-.48v2.16h-2.16v.48h2.16v2.16h.48v-2.16h2.16v-.48h-2.16v-2.16Zm0,24h-.48v2.16h-2.16v.48h2.16v2.16h.48v-2.16h2.16v-.48h-2.16v-2.16Zm0,24h-.48v2.16h-2.16v.48h2.16v2.16h.48v-2.16h2.16v-.48h-2.16v-2.16Zm0,24h-.48v2.16h-2.16v.48h2.16v2.16h.48v-2.16h2.16v-.48h-2.16v-2.16Zm24-72h-.48v2.16h-2.16v.48h2.16v2.16h.48v-2.16h2.16v-.48h-2.16v-2.16Zm0,24h-.48v2.16h-2.16v.48h2.16v2.16h.48v-2.16h2.16v-.48h-2.16v-2.16Zm0,24h-.48v2.16h-2.16v.48h2.16v2.16h.48v-2.16h2.16v-.48h-2.16v-2.16Zm0,24h-.48v2.16h-2.16v.48h2.16v2.16h.48v-2.16h2.16v-.48h-2.16v-2.16Zm24-72h-.48v2.16h-2.16v.48h2.16v2.16h.48v-2.16h2.16v-.48h-2.16v-2.16Zm0,24h-.48v2.16h-2.16v.48h2.16v2.16h.48v-2.16h2.16v-.48h-2.16v-2.16Zm0,24h-.48v2.16h-2.16v.48h2.16v2.16h.48v-2.16h2.16v-.48h-2.16v-2.16Zm0,24h-.48v2.16h-2.16v.48h2.16v2.16h.48v-2.16h2.16v-.48h-2.16v-2.16Zm24-72h-.48v2.16h-2.16v.48h2.16v2.16h.48v-2.16h2.16v-.48h-2.16v-2.16Zm0,24h-.48v2.16h-2.16v.48h2.16v2.16h.48v-2.16h2.16v-.48h-2.16v-2.16Zm0,24h-.48v2.16h-2.16v.48h2.16v2.16h.48v-2.16h2.16v-.48h-2.16v-2.16Zm0,24h-.48v2.16h-2.16v.48h2.16v2.16h.48v-2.16h2.16v-.48h-2.16v-2.16Zm23.52-72v2.16h-2.16v.48h2.16v2.16h.48v-2.16h2.16v-.48h-2.16v-2.16h-.48Zm-2.16,26.64h2.16v2.16h.48v-2.16h2.16v-.48h-2.16v-2.16h-.48v2.16h-2.16v.48Zm0,24h2.16v2.16h.48v-2.16h2.16v-.48h-2.16v-2.16h-.48v2.16h-2.16v.48Zm0,24h2.16v2.16h.48v-2.16h2.16v-.48h-2.16v-2.16h-.48v2.16h-2.16v.48Zm-93.36,21.36h-.48v2.16h-2.16v.48h2.16v2.16h.48v-2.16h2.16v-.48h-2.16v-2.16Zm24,0h-.48v2.16h-2.16v.48h2.16v2.16h.48v-2.16h2.16v-.48h-2.16v-2.16Zm24,0h-.48v2.16h-2.16v.48h2.16v2.16h.48v-2.16h2.16v-.48h-2.16v-2.16Zm24,0h-.48v2.16h-2.16v.48h2.16v2.16h.48v-2.16h2.16v-.48h-2.16v-2.16Zm48-96h-.48v2.16h-2.16v.48h2.16v2.16h.48v-2.16h2.16v-.48h-2.16v-2.16Zm0,24h-.48v2.16h-2.16v.48h2.16v2.16h.48v-2.16h2.16v-.48h-2.16v-2.16Zm0,24h-.48v2.16h-2.16v.48h2.16v2.16h.48v-2.16h2.16v-.48h-2.16v-2.16Zm0,24h-.48v2.16h-2.16v.48h2.16v2.16h.48v-2.16h2.16v-.48h-2.16v-2.16Zm24-72h-.48v2.16h-2.16v.48h2.16v2.16h.48v-2.16h2.16v-.48h-2.16v-2.16Zm0,24h-.48v2.16h-2.16v.48h2.16v2.16h.48v-2.16h2.16v-.48h-2.16v-2.16Zm0,24h-.48v2.16h-2.16v.48h2.16v2.16h.48v-2.16h2.16v-.48h-2.16v-2.16Zm0,24h-.48v2.16h-2.16v.48h2.16v2.16h.48v-2.16h2.16v-.48h-2.16v-2.16Zm24-72h-.48v2.16h-2.16v.48h2.16v2.16h.48v-2.16h2.16v-.48h-2.16v-2.16Zm0,24h-.48v2.16h-2.16v.48h2.16v2.16h.48v-2.16h2.16v-.48h-2.16v-2.16Zm0,24h-.48v2.16h-2.16v.48h2.16v2.16h.48v-2.16h2.16v-.48h-2.16v-2.16Zm0,24h-.48v2.16h-2.16v.48h2.16v2.16h.48v-2.16h2.16v-.48h-2.16v-2.16Zm24-72h-.48v2.16h-2.16v.48h2.16v2.16h.48v-2.16h2.16v-.48h-2.16v-2.16Zm0,24h-.48v2.16h-2.16v.48h2.16v2.16h.48v-2.16h2.16v-.48h-2.16v-2.16Zm0,24h-.48v2.16h-2.16v.48h2.16v2.16h.48v-2.16h2.16v-.48h-2.16v-2.16Zm0,24h-.48v2.16h-2.16v.48h2.16v2.16h.48v-2.16h2.16v-.48h-2.16v-2.16Zm23.52-72v2.16h-2.16v.48h2.16v2.16h.48v-2.16h2.16v-.48h-2.16v-2.16h-.48Zm-2.16,26.64h2.16v2.16h.48v-2.16h2.16v-.48h-2.16v-2.16h-.48v2.16h-2.16v.48Zm0,24h2.16v2.16h.48v-2.16h2.16v-.48h-2.16v-2.16h-.48v2.16h-2.16v.48Zm0,24h2.16v2.16h.48v-2.16h2.16v-.48h-2.16v-2.16h-.48v2.16h-2.16v.48Zm-93.36,21.36h-.48v2.16h-2.16v.48h2.16v2.16h.48v-2.16h2.16v-.48h-2.16v-2.16Zm24,0h-.48v2.16h-2.16v.48h2.16v2.16h.48v-2.16h2.16v-.48h-2.16v-2.16Zm24,0h-.48v2.16h-2.16v.48h2.16v2.16h.48v-2.16h2.16v-.48h-2.16v-2.16Zm24,0h-.48v2.16h-2.16v.48h2.16v2.16h.48v-2.16h2.16v-.48h-2.16v-2.16ZM4.56,506.4v2.16h-2.16v.48h2.16v2.16h.48v-2.16h2.16v-.48h-2.16v-2.16h-.48Zm-2.16,26.64h2.16v2.16h.48v-2.16h2.16v-.48h-2.16v-2.16h-.48v2.16h-2.16v.48Zm0,24h2.16v2.16h.48v-2.16h2.16v-.48h-2.16v-2.16h-.48v2.16h-2.16v.48Zm0,24h2.16v2.16h.48v-2.16h2.16v-.48h-2.16v-2.16h-.48v2.16h-2.16v.48Zm26.64-74.64h-.48v2.16h-2.16v.48h2.16v2.16h.48v-2.16h2.16v-.48h-2.16v-2.16Zm0,24h-.48v2.16h-2.16v.48h2.16v2.16h.48v-2.16h2.16v-.48h-2.16v-2.16Zm0,24h-.48v2.16h-2.16v.48h2.16v2.16h.48v-2.16h2.16v-.48h-2.16v-2.16Zm0,24h-.48v2.16h-2.16v.48h2.16v2.16h.48v-2.16h2.16v-.48h-2.16v-2.16Zm24-72h-.48v2.16h-2.16v.48h2.16v2.16h.48v-2.16h2.16v-.48h-2.16v-2.16Zm0,24h-.48v2.16h-2.16v.48h2.16v2.16h.48v-2.16h2.16v-.48h-2.16v-2.16Zm0,24h-.48v2.16h-2.16v.48h2.16v2.16h.48v-2.16h2.16v-.48h-2.16v-2.16Zm0,24h-.48v2.16h-2.16v.48h2.16v2.16h.48v-2.16h2.16v-.48h-2.16v-2.16Zm24-72h-.48v2.16h-2.16v.48h2.16v2.16h.48v-2.16h2.16v-.48h-2.16v-2.16Zm0,24h-.48v2.16h-2.16v.48h2.16v2.16h.48v-2.16h2.16v-.48h-2.16v-2.16Zm0,24h-.48v2.16h-2.16v.48h2.16v2.16h.48v-2.16h2.16v-.48h-2.16v-2.16Zm0,24h-.48v2.16h-2.16v.48h2.16v2.16h.48v-2.16h2.16v-.48h-2.16v-2.16Zm24-72h-.48v2.16h-2.16v.48h2.16v2.16h.48v-2.16h2.16v-.48h-2.16v-2.16Zm0,24h-.48v2.16h-2.16v.48h2.16v2.16h.48v-2.16h2.16v-.48h-2.16v-2.16Zm0,24h-.48v2.16h-2.16v.48h2.16v2.16h.48v-2.16h2.16v-.48h-2.16v-2.16Zm0,24h-.48v2.16h-2.16v.48h2.16v2.16h.48v-2.16h2.16v-.48h-2.16v-2.16Zm23.52-72v2.16h-2.16v.48h2.16v2.16h.48v-2.16h2.16v-.48h-2.16v-2.16h-.48Zm-2.16,26.64h2.16v2.16h.48v-2.16h2.16v-.48h-2.16v-2.16h-.48v2.16h-2.16v.48Zm0,24h2.16v2.16h.48v-2.16h2.16v-.48h-2.16v-2.16h-.48v2.16h-2.16v.48Zm0,24h2.16v2.16h.48v-2.16h2.16v-.48h-2.16v-2.16h-.48v2.16h-2.16v.48Zm-93.36,21.36h-.48v2.16h-2.16v.48h2.16v2.16h.48v-2.16h2.16v-.48h-2.16v-2.16Zm24,0h-.48v2.16h-2.16v.48h2.16v2.16h.48v-2.16h2.16v-.48h-2.16v-2.16Zm24,0h-.48v2.16h-2.16v.48h2.16v2.16h.48v-2.16h2.16v-.48h-2.16v-2.16Zm24,0h-.48v2.16h-2.16v.48h2.16v2.16h.48v-2.16h2.16v-.48h-2.16v-2.16Zm48-96h-.48v2.16h-2.16v.48h2.16v2.16h.48v-2.16h2.16v-.48h-2.16v-2.16Zm0,24h-.48v2.16h-2.16v.48h2.16v2.16h.48v-2.16h2.16v-.48h-2.16v-2.16Zm0,24h-.48v2.16h-2.16v.48h2.16v2.16h.48v-2.16h2.16v-.48h-2.16v-2.16Zm0,24h-.48v2.16h-2.16v.48h2.16v2.16h.48v-2.16h2.16v-.48h-2.16v-2.16Zm24-72h-.48v2.16h-2.16v.48h2.16v2.16h.48v-2.16h2.16v-.48h-2.16v-2.16Zm0,24h-.48v2.16h-2.16v.48h2.16v2.16h.48v-2.16h2.16v-.48h-2.16v-2.16Zm0,24h-.48v2.16h-2.16v.48h2.16v2.16h.48v-2.16h2.16v-.48h-2.16v-2.16Zm0,24h-.48v2.16h-2.16v.48h2.16v2.16h.48v-2.16h2.16v-.48h-2.16v-2.16Zm24-72h-.48v2.16h-2.16v.48h2.16v2.16h.48v-2.16h2.16v-.48h-2.16v-2.16Zm0,24h-.48v2.16h-2.16v.48h2.16v2.16h.48v-2.16h2.16v-.48h-2.16v-2.16Zm0,24h-.48v2.16h-2.16v.48h2.16v2.16h.48v-2.16h2.16v-.48h-2.16v-2.16Zm0,24h-.48v2.16h-2.16v.48h2.16v2.16h.48v-2.16h2.16v-.48h-2.16v-2.16Zm24-72h-.48v2.16h-2.16v.48h2.16v2.16h.48v-2.16h2.16v-.48h-2.16v-2.16Zm0,24h-.48v2.16h-2.16v.48h2.16v2.16h.48v-2.16h2.16v-.48h-2.16v-2.16Zm0,24h-.48v2.16h-2.16v.48h2.16v2.16h.48v-2.16h2.16v-.48h-2.16v-2.16Zm0,24h-.48v2.16h-2.16v.48h2.16v2.16h.48v-2.16h2.16v-.48h-2.16v-2.16Zm23.52-72v2.16h-2.16v.48h2.16v2.16h.48v-2.16h2.16v-.48h-2.16v-2.16h-.48Zm-2.16,26.64h2.16v2.16h.48v-2.16h2.16v-.48h-2.16v-2.16h-.48v2.16h-2.16v.48Zm0,24h2.16v2.16h.48v-2.16h2.16v-.48h-2.16v-2.16h-.48v2.16h-2.16v.48Zm0,24h2.16v2.16h.48v-2.16h2.16v-.48h-2.16v-2.16h-.48v2.16h-2.16v.48Zm-93.36,21.36h-.48v2.16h-2.16v.48h2.16v2.16h.48v-2.16h2.16v-.48h-2.16v-2.16Zm24,0h-.48v2.16h-2.16v.48h2.16v2.16h.48v-2.16h2.16v-.48h-2.16v-2.16Zm24,0h-.48v2.16h-2.16v.48h2.16v2.16h.48v-2.16h2.16v-.48h-2.16v-2.16Zm24,0h-.48v2.16h-2.16v.48h2.16v2.16h.48v-2.16h2.16v-.48h-2.16v-2.16Zm-216.48,24v2.16h-2.16v.48h2.16v2.16h.48v-2.16h2.16v-.48h-2.16v-2.16h-.48Zm-2.16,26.64h2.16v2.16h.48v-2.16h2.16v-.48h-2.16v-2.16h-.48v2.16h-2.16v.48Zm0,24h2.16v2.16h.48v-2.16h2.16v-.48h-2.16v-2.16h-.48v2.16h-2.16v.48Zm0,24h2.16v2.16h.48v-2.16h2.16v-.48h-2.16v-2.16h-.48v2.16h-2.16v.48Zm26.64-74.64h-.48v2.16h-2.16v.48h2.16v2.16h.48v-2.16h2.16v-.48h-2.16v-2.16Zm0,24h-.48v2.16h-2.16v.48h2.16v2.16h.48v-2.16h2.16v-.48h-2.16v-2.16Zm0,24h-.48v2.16h-2.16v.48h2.16v2.16h.48v-2.16h2.16v-.48h-2.16v-2.16Zm0,24h-.48v2.16h-2.16v.48h2.16v2.16h.48v-2.16h2.16v-.48h-2.16v-2.16Zm24-72h-.48v2.16h-2.16v.48h2.16v2.16h.48v-2.16h2.16v-.48h-2.16v-2.16Zm0,24h-.48v2.16h-2.16v.48h2.16v2.16h.48v-2.16h2.16v-.48h-2.16v-2.16Zm0,24h-.48v2.16h-2.16v.48h2.16v2.16h.48v-2.16h2.16v-.48h-2.16v-2.16Zm0,24h-.48v2.16h-2.16v.48h2.16v2.16h.48v-2.16h2.16v-.48h-2.16v-2.16Zm24-72h-.48v2.16h-2.16v.48h2.16v2.16h.48v-2.16h2.16v-.48h-2.16v-2.16Zm0,24h-.48v2.16h-2.16v.48h2.16v2.16h.48v-2.16h2.16v-.48h-2.16v-2.16Zm0,24h-.48v2.16h-2.16v.48h2.16v2.16h.48v-2.16h2.16v-.48h-2.16v-2.16Zm0,24h-.48v2.16h-2.16v.48h2.16v2.16h.48v-2.16h2.16v-.48h-2.16v-2.16Zm24-72h-.48v2.16h-2.16v.48h2.16v2.16h.48v-2.16h2.16v-.48h-2.16v-2.16Zm0,24h-.48v2.16h-2.16v.48h2.16v2.16h.48v-2.16h2.16v-.48h-2.16v-2.16Zm0,24h-.48v2.16h-2.16v.48h2.16v2.16h.48v-2.16h2.16v-.48h-2.16v-2.16Zm0,24h-.48v2.16h-2.16v.48h2.16v2.16h.48v-2.16h2.16v-.48h-2.16v-2.16Zm23.52-72v2.16h-2.16v.48h2.16v2.16h.48v-2.16h2.16v-.48h-2.16v-2.16h-.48Zm-2.16,26.64h2.16v2.16h.48v-2.16h2.16v-.48h-2.16v-2.16h-.48v2.16h-2.16v.48Zm0,24h2.16v2.16h.48v-2.16h2.16v-.48h-2.16v-2.16h-.48v2.16h-2.16v.48Zm0,24h2.16v2.16h.48v-2.16h2.16v-.48h-2.16v-2.16h-.48v2.16h-2.16v.48Zm-93.36,21.36h-.48v2.16h-2.16v.48h2.16v2.16h.48v-2.16h2.16v-.48h-2.16v-2.16Zm24,0h-.48v2.16h-2.16v.48h2.16v2.16h.48v-2.16h2.16v-.48h-2.16v-2.16Zm24,0h-.48v2.16h-2.16v.48h2.16v2.16h.48v-2.16h2.16v-.48h-2.16v-2.16Zm24,0h-.48v2.16h-2.16v.48h2.16v2.16h.48v-2.16h2.16v-.48h-2.16v-2.16Zm48-96h-.48v2.16h-2.16v.48h2.16v2.16h.48v-2.16h2.16v-.48h-2.16v-2.16Zm0,24h-.48v2.16h-2.16v.48h2.16v2.16h.48v-2.16h2.16v-.48h-2.16v-2.16Zm0,24h-.48v2.16h-2.16v.48h2.16v2.16h.48v-2.16h2.16v-.48h-2.16v-2.16Zm0,24h-.48v2.16h-2.16v.48h2.16v2.16h.48v-2.16h2.16v-.48h-2.16v-2.16Zm24-72h-.48v2.16h-2.16v.48h2.16v2.16h.48v-2.16h2.16v-.48h-2.16v-2.16Zm0,24h-.48v2.16h-2.16v.48h2.16v2.16h.48v-2.16h2.16v-.48h-2.16v-2.16Zm0,24h-.48v2.16h-2.16v.48h2.16v2.16h.48v-2.16h2.16v-.48h-2.16v-2.16Zm0,24h-.48v2.16h-2.16v.48h2.16v2.16h.48v-2.16h2.16v-.48h-2.16v-2.16Zm24-72h-.48v2.16h-2.16v.48h2.16v2.16h.48v-2.16h2.16v-.48h-2.16v-2.16Zm0,24h-.48v2.16h-2.16v.48h2.16v2.16h.48v-2.16h2.16v-.48h-2.16v-2.16Zm0,24h-.48v2.16h-2.16v.48h2.16v2.16h.48v-2.16h2.16v-.48h-2.16v-2.16Zm0,24h-.48v2.16h-2.16v.48h2.16v2.16h.48v-2.16h2.16v-.48h-2.16v-2.16Zm24-72h-.48v2.16h-2.16v.48h2.16v2.16h.48v-2.16h2.16v-.48h-2.16v-2.16Zm0,24h-.48v2.16h-2.16v.48h2.16v2.16h.48v-2.16h2.16v-.48h-2.16v-2.16Zm0,24h-.48v2.16h-2.16v.48h2.16v2.16h.48v-2.16h2.16v-.48h-2.16v-2.16Zm0,24h-.48v2.16h-2.16v.48h2.16v2.16h.48v-2.16h2.16v-.48h-2.16v-2.16Zm23.52-72v2.16h-2.16v.48h2.16v2.16h.48v-2.16h2.16v-.48h-2.16v-2.16h-.48Zm-2.16,26.64h2.16v2.16h.48v-2.16h2.16v-.48h-2.16v-2.16h-.48v2.16h-2.16v.48Zm0,24h2.16v2.16h.48v-2.16h2.16v-.48h-2.16v-2.16h-.48v2.16h-2.16v.48Zm0,24h2.16v2.16h.48v-2.16h2.16v-.48h-2.16v-2.16h-.48v2.16h-2.16v.48Zm-93.36,21.36h-.48v2.16h-2.16v.48h2.16v2.16h.48v-2.16h2.16v-.48h-2.16v-2.16Zm24,0h-.48v2.16h-2.16v.48h2.16v2.16h.48v-2.16h2.16v-.48h-2.16v-2.16Zm24,0h-.48v2.16h-2.16v.48h2.16v2.16h.48v-2.16h2.16v-.48h-2.16v-2.16Zm24,0h-.48v2.16h-2.16v.48h2.16v2.16h.48v-2.16h2.16v-.48h-2.16v-2.16ZM269.04,26.4h-.48v2.16h-2.16v.48h2.16v2.16h.48v-2.16h2.16v-.48h-2.16v-2.16Zm0,24h-.48v2.16h-2.16v.48h2.16v2.16h.48v-2.16h2.16v-.48h-2.16v-2.16Zm0,24h-.48v2.16h-2.16v.48h2.16v2.16h.48v-2.16h2.16v-.48h-2.16v-2.16Zm0,24h-.48v2.16h-2.16v.48h2.16v2.16h.48v-2.16h2.16v-.48h-2.16v-2.16Zm24-72h-.48v2.16h-2.16v.48h2.16v2.16h.48v-2.16h2.16v-.48h-2.16v-2.16Zm0,24h-.48v2.16h-2.16v.48h2.16v2.16h.48v-2.16h2.16v-.48h-2.16v-2.16Zm0,24h-.48v2.16h-2.16v.48h2.16v2.16h.48v-2.16h2.16v-.48h-2.16v-2.16Zm0,24h-.48v2.16h-2.16v.48h2.16v2.16h.48v-2.16h2.16v-.48h-2.16v-2.16Zm24-72h-.48v2.16h-2.16v.48h2.16v2.16h.48v-2.16h2.16v-.48h-2.16v-2.16Zm0,24h-.48v2.16h-2.16v.48h2.16v2.16h.48v-2.16h2.16v-.48h-2.16v-2.16Zm0,24h-.48v2.16h-2.16v.48h2.16v2.16h.48v-2.16h2.16v-.48h-2.16v-2.16Zm0,24h-.48v2.16h-2.16v.48h2.16v2.16h.48v-2.16h2.16v-.48h-2.16v-2.16Zm24-72h-.48v2.16h-2.16v.48h2.16v2.16h.48v-2.16h2.16v-.48h-2.16v-2.16Zm0,24h-.48v2.16h-2.16v.48h2.16v2.16h.48v-2.16h2.16v-.48h-2.16v-2.16Zm0,24h-.48v2.16h-2.16v.48h2.16v2.16h.48v-2.16h2.16v-.48h-2.16v-2.16Zm0,24h-.48v2.16h-2.16v.48h2.16v2.16h.48v-2.16h2.16v-.48h-2.16v-2.16Zm23.52-72v2.16h-2.16v.48h2.16v2.16h.48v-2.16h2.16v-.48h-2.16v-2.16h-.48Zm-2.16,26.64h2.16v2.16h.48v-2.16h2.16v-.48h-2.16v-2.16h-.48v2.16h-2.16v.48Zm0,24h2.16v2.16h.48v-2.16h2.16v-.48h-2.16v-2.16h-.48v2.16h-2.16v.48Zm0,24h2.16v2.16h.48v-2.16h2.16v-.48h-2.16v-2.16h-.48v2.16h-2.16v.48ZM269.04,2.4h-.48v2.16h-2.16v.48h2.16v2.16h.48v-2.16h2.16v-.48h-2.16v-2.16Zm24,0h-.48v2.16h-2.16v.48h2.16v2.16h.48v-2.16h2.16v-.48h-2.16v-2.16Zm24,0h-.48v2.16h-2.16v.48h2.16v2.16h.48v-2.16h2.16v-.48h-2.16v-2.16Zm24,0h-.48v2.16h-2.16v.48h2.16v2.16h.48v-2.16h2.16v-.48h-2.16v-2.16Zm-72,120h-.48v2.16h-2.16v.48h2.16v2.16h.48v-2.16h2.16v-.48h-2.16v-2.16Zm24,0h-.48v2.16h-2.16v.48h2.16v2.16h.48v-2.16h2.16v-.48h-2.16v-2.16Zm24,0h-.48v2.16h-2.16v.48h2.16v2.16h.48v-2.16h2.16v-.48h-2.16v-2.16Zm24,0h-.48v2.16h-2.16v.48h2.16v2.16h.48v-2.16h2.16v-.48h-2.16v-2.16Zm48-96h-.48v2.16h-2.16v.48h2.16v2.16h.48v-2.16h2.16v-.48h-2.16v-2.16Zm0,24h-.48v2.16h-2.16v.48h2.16v2.16h.48v-2.16h2.16v-.48h-2.16v-2.16Zm0,24h-.48v2.16h-2.16v.48h2.16v2.16h.48v-2.16h2.16v-.48h-2.16v-2.16Zm0,24h-.48v2.16h-2.16v.48h2.16v2.16h.48v-2.16h2.16v-.48h-2.16v-2.16Zm24-72h-.48v2.16h-2.16v.48h2.16v2.16h.48v-2.16h2.16v-.48h-2.16v-2.16Zm0,24h-.48v2.16h-2.16v.48h2.16v2.16h.48v-2.16h2.16v-.48h-2.16v-2.16Zm0,24h-.48v2.16h-2.16v.48h2.16v2.16h.48v-2.16h2.16v-.48h-2.16v-2.16Zm0,24h-.48v2.16h-2.16v.48h2.16v2.16h.48v-2.16h2.16v-.48h-2.16v-2.16Zm24-72h-.48v2.16h-2.16v.48h2.16v2.16h.48v-2.16h2.16v-.48h-2.16v-2.16Zm0,24h-.48v2.16h-2.16v.48h2.16v2.16h.48v-2.16h2.16v-.48h-2.16v-2.16Zm0,24h-.48v2.16h-2.16v.48h2.16v2.16h.48v-2.16h2.16v-.48h-2.16v-2.16Zm0,24h-.48v2.16h-2.16v.48h2.16v2.16h.48v-2.16h2.16v-.48h-2.16v-2.16Zm24-72h-.48v2.16h-2.16v.48h2.16v2.16h.48v-2.16h2.16v-.48h-2.16v-2.16Zm0,24h-.48v2.16h-2.16v.48h2.16v2.16h.48v-2.16h2.16v-.48h-2.16v-2.16Zm0,24h-.48v2.16h-2.16v.48h2.16v2.16h.48v-2.16h2.16v-.48h-2.16v-2.16Zm0,24h-.48v2.16h-2.16v.48h2.16v2.16h.48v-2.16h2.16v-.48h-2.16v-2.16Zm23.52-72v2.16h-2.16v.48h2.16v2.16h.48v-2.16h2.16v-.48h-2.16v-2.16h-.48Zm-2.16,26.64h2.16v2.16h.48v-2.16h2.16v-.48h-2.16v-2.16h-.48v2.16h-2.16v.48Zm0,24h2.16v2.16h.48v-2.16h2.16v-.48h-2.16v-2.16h-.48v2.16h-2.16v.48Zm0,24h2.16v2.16h.48v-2.16h2.16v-.48h-2.16v-2.16h-.48v2.16h-2.16v.48ZM389.04,2.4h-.48v2.16h-2.16v.48h2.16v2.16h.48v-2.16h2.16v-.48h-2.16v-2.16Zm24,0h-.48v2.16h-2.16v.48h2.16v2.16h.48v-2.16h2.16v-.48h-2.16v-2.16Zm24,0h-.48v2.16h-2.16v.48h2.16v2.16h.48v-2.16h2.16v-.48h-2.16v-2.16Zm24,0h-.48v2.16h-2.16v.48h2.16v2.16h.48v-2.16h2.16v-.48h-2.16v-2.16Zm-72,120h-.48v2.16h-2.16v.48h2.16v2.16h.48v-2.16h2.16v-.48h-2.16v-2.16Zm24,0h-.48v2.16h-2.16v.48h2.16v2.16h.48v-2.16h2.16v-.48h-2.16v-2.16Zm24,0h-.48v2.16h-2.16v.48h2.16v2.16h.48v-2.16h2.16v-.48h-2.16v-2.16Zm24,0h-.48v2.16h-2.16v.48h2.16v2.16h.48v-2.16h2.16v-.48h-2.16v-2.16Zm-192,24h-.48v2.16h-2.16v.48h2.16v2.16h.48v-2.16h2.16v-.48h-2.16v-2.16Zm0,24h-.48v2.16h-2.16v.48h2.16v2.16h.48v-2.16h2.16v-.48h-2.16v-2.16Zm0,24h-.48v2.16h-2.16v.48h2.16v2.16h.48v-2.16h2.16v-.48h-2.16v-2.16Zm0,24h-.48v2.16h-2.16v.48h2.16v2.16h.48v-2.16h2.16v-.48h-2.16v-2.16Zm24-72h-.48v2.16h-2.16v.48h2.16v2.16h.48v-2.16h2.16v-.48h-2.16v-2.16Zm0,24h-.48v2.16h-2.16v.48h2.16v2.16h.48v-2.16h2.16v-.48h-2.16v-2.16Zm0,24h-.48v2.16h-2.16v.48h2.16v2.16h.48v-2.16h2.16v-.48h-2.16v-2.16Zm0,24h-.48v2.16h-2.16v.48h2.16v2.16h.48v-2.16h2.16v-.48h-2.16v-2.16Zm24-72h-.48v2.16h-2.16v.48h2.16v2.16h.48v-2.16h2.16v-.48h-2.16v-2.16Zm0,24h-.48v2.16h-2.16v.48h2.16v2.16h.48v-2.16h2.16v-.48h-2.16v-2.16Zm0,24h-.48v2.16h-2.16v.48h2.16v2.16h.48v-2.16h2.16v-.48h-2.16v-2.16Zm0,24h-.48v2.16h-2.16v.48h2.16v2.16h.48v-2.16h2.16v-.48h-2.16v-2.16Zm24-72h-.48v2.16h-2.16v.48h2.16v2.16h.48v-2.16h2.16v-.48h-2.16v-2.16Zm0,24h-.48v2.16h-2.16v.48h2.16v2.16h.48v-2.16h2.16v-.48h-2.16v-2.16Zm0,24h-.48v2.16h-2.16v.48h2.16v2.16h.48v-2.16h2.16v-.48h-2.16v-2.16Zm0,24h-.48v2.16h-2.16v.48h2.16v2.16h.48v-2.16h2.16v-.48h-2.16v-2.16Zm23.52-72v2.16h-2.16v.48h2.16v2.16h.48v-2.16h2.16v-.48h-2.16v-2.16h-.48Zm-2.16,26.64h2.16v2.16h.48v-2.16h2.16v-.48h-2.16v-2.16h-.48v2.16h-2.16v.48Zm0,24h2.16v2.16h.48v-2.16h2.16v-.48h-2.16v-2.16h-.48v2.16h-2.16v.48Zm0,24h2.16v2.16h.48v-2.16h2.16v-.48h-2.16v-2.16h-.48v2.16h-2.16v.48Zm-93.36,21.36h-.48v2.16h-2.16v.48h2.16v2.16h.48v-2.16h2.16v-.48h-2.16v-2.16Zm24,0h-.48v2.16h-2.16v.48h2.16v2.16h.48v-2.16h2.16v-.48h-2.16v-2.16Zm24,0h-.48v2.16h-2.16v.48h2.16v2.16h.48v-2.16h2.16v-.48h-2.16v-2.16Zm24,0h-.48v2.16h-2.16v.48h2.16v2.16h.48v-2.16h2.16v-.48h-2.16v-2.16Zm48-96h-.48v2.16h-2.16v.48h2.16v2.16h.48v-2.16h2.16v-.48h-2.16v-2.16Zm0,24h-.48v2.16h-2.16v.48h2.16v2.16h.48v-2.16h2.16v-.48h-2.16v-2.16Zm0,24h-.48v2.16h-2.16v.48h2.16v2.16h.48v-2.16h2.16v-.48h-2.16v-2.16Zm0,24h-.48v2.16h-2.16v.48h2.16v2.16h.48v-2.16h2.16v-.48h-2.16v-2.16Zm24-72h-.48v2.16h-2.16v.48h2.16v2.16h.48v-2.16h2.16v-.48h-2.16v-2.16Zm0,24h-.48v2.16h-2.16v.48h2.16v2.16h.48v-2.16h2.16v-.48h-2.16v-2.16Zm0,24h-.48v2.16h-2.16v.48h2.16v2.16h.48v-2.16h2.16v-.48h-2.16v-2.16Zm0,24h-.48v2.16h-2.16v.48h2.16v2.16h.48v-2.16h2.16v-.48h-2.16v-2.16Zm24-72h-.48v2.16h-2.16v.48h2.16v2.16h.48v-2.16h2.16v-.48h-2.16v-2.16Zm0,24h-.48v2.16h-2.16v.48h2.16v2.16h.48v-2.16h2.16v-.48h-2.16v-2.16Zm0,24h-.48v2.16h-2.16v.48h2.16v2.16h.48v-2.16h2.16v-.48h-2.16v-2.16Zm0,24h-.48v2.16h-2.16v.48h2.16v2.16h.48v-2.16h2.16v-.48h-2.16v-2.16Zm24-72h-.48v2.16h-2.16v.48h2.16v2.16h.48v-2.16h2.16v-.48h-2.16v-2.16Zm0,24h-.48v2.16h-2.16v.48h2.16v2.16h.48v-2.16h2.16v-.48h-2.16v-2.16Zm0,24h-.48v2.16h-2.16v.48h2.16v2.16h.48v-2.16h2.16v-.48h-2.16v-2.16Zm0,24h-.48v2.16h-2.16v.48h2.16v2.16h.48v-2.16h2.16v-.48h-2.16v-2.16Zm23.52-72v2.16h-2.16v.48h2.16v2.16h.48v-2.16h2.16v-.48h-2.16v-2.16h-.48Zm-2.16,26.64h2.16v2.16h.48v-2.16h2.16v-.48h-2.16v-2.16h-.48v2.16h-2.16v.48Zm0,24h2.16v2.16h.48v-2.16h2.16v-.48h-2.16v-2.16h-.48v2.16h-2.16v.48Zm0,24h2.16v2.16h.48v-2.16h2.16v-.48h-2.16v-2.16h-.48v2.16h-2.16v.48Zm-93.36,21.36h-.48v2.16h-2.16v.48h2.16v2.16h.48v-2.16h2.16v-.48h-2.16v-2.16Zm24,0h-.48v2.16h-2.16v.48h2.16v2.16h.48v-2.16h2.16v-.48h-2.16v-2.16Zm24,0h-.48v2.16h-2.16v.48h2.16v2.16h.48v-2.16h2.16v-.48h-2.16v-2.16Zm24,0h-.48v2.16h-2.16v.48h2.16v2.16h.48v-2.16h2.16v-.48h-2.16v-2.16Zm-192,24h-.48v2.16h-2.16v.48h2.16v2.16h.48v-2.16h2.16v-.48h-2.16v-2.16Zm0,24h-.48v2.16h-2.16v.48h2.16v2.16h.48v-2.16h2.16v-.48h-2.16v-2.16Zm0,24h-.48v2.16h-2.16v.48h2.16v2.16h.48v-2.16h2.16v-.48h-2.16v-2.16Zm0,24h-.48v2.16h-2.16v.48h2.16v2.16h.48v-2.16h2.16v-.48h-2.16v-2.16Zm24-72h-.48v2.16h-2.16v.48h2.16v2.16h.48v-2.16h2.16v-.48h-2.16v-2.16Zm0,24h-.48v2.16h-2.16v.48h2.16v2.16h.48v-2.16h2.16v-.48h-2.16v-2.16Zm0,24h-.48v2.16h-2.16v.48h2.16v2.16h.48v-2.16h2.16v-.48h-2.16v-2.16Zm0,24h-.48v2.16h-2.16v.48h2.16v2.16h.48v-2.16h2.16v-.48h-2.16v-2.16Zm24-72h-.48v2.16h-2.16v.48h2.16v2.16h.48v-2.16h2.16v-.48h-2.16v-2.16Zm0,24h-.48v2.16h-2.16v.48h2.16v2.16h.48v-2.16h2.16v-.48h-2.16v-2.16Zm0,24h-.48v2.16h-2.16v.48h2.16v2.16h.48v-2.16h2.16v-.48h-2.16v-2.16Zm0,24h-.48v2.16h-2.16v.48h2.16v2.16h.48v-2.16h2.16v-.48h-2.16v-2.16Zm24-72h-.48v2.16h-2.16v.48h2.16v2.16h.48v-2.16h2.16v-.48h-2.16v-2.16Zm0,24h-.48v2.16h-2.16v.48h2.16v2.16h.48v-2.16h2.16v-.48h-2.16v-2.16Zm0,24h-.48v2.16h-2.16v.48h2.16v2.16h.48v-2.16h2.16v-.48h-2.16v-2.16Zm0,24h-.48v2.16h-2.16v.48h2.16v2.16h.48v-2.16h2.16v-.48h-2.16v-2.16Zm23.52-72v2.16h-2.16v.48h2.16v2.16h.48v-2.16h2.16v-.48h-2.16v-2.16h-.48Zm-2.16,26.64h2.16v2.16h.48v-2.16h2.16v-.48h-2.16v-2.16h-.48v2.16h-2.16v.48Zm0,24h2.16v2.16h.48v-2.16h2.16v-.48h-2.16v-2.16h-.48v2.16h-2.16v.48Zm0,24h2.16v2.16h.48v-2.16h2.16v-.48h-2.16v-2.16h-.48v2.16h-2.16v.48Zm-93.36,21.36h-.48v2.16h-2.16v.48h2.16v2.16h.48v-2.16h2.16v-.48h-2.16v-2.16Zm24,0h-.48v2.16h-2.16v.48h2.16v2.16h.48v-2.16h2.16v-.48h-2.16v-2.16Zm24,0h-.48v2.16h-2.16v.48h2.16v2.16h.48v-2.16h2.16v-.48h-2.16v-2.16Zm24,0h-.48v2.16h-2.16v.48h2.16v2.16h.48v-2.16h2.16v-.48h-2.16v-2.16Zm48-96h-.48v2.16h-2.16v.48h2.16v2.16h.48v-2.16h2.16v-.48h-2.16v-2.16Zm0,24h-.48v2.16h-2.16v.48h2.16v2.16h.48v-2.16h2.16v-.48h-2.16v-2.16Zm0,24h-.48v2.16h-2.16v.48h2.16v2.16h.48v-2.16h2.16v-.48h-2.16v-2.16Zm0,24h-.48v2.16h-2.16v.48h2.16v2.16h.48v-2.16h2.16v-.48h-2.16v-2.16Zm24-72h-.48v2.16h-2.16v.48h2.16v2.16h.48v-2.16h2.16v-.48h-2.16v-2.16Zm0,24h-.48v2.16h-2.16v.48h2.16v2.16h.48v-2.16h2.16v-.48h-2.16v-2.16Zm0,24h-.48v2.16h-2.16v.48h2.16v2.16h.48v-2.16h2.16v-.48h-2.16v-2.16Zm0,24h-.48v2.16h-2.16v.48h2.16v2.16h.48v-2.16h2.16v-.48h-2.16v-2.16Zm24-72h-.48v2.16h-2.16v.48h2.16v2.16h.48v-2.16h2.16v-.48h-2.16v-2.16Zm0,24h-.48v2.16h-2.16v.48h2.16v2.16h.48v-2.16h2.16v-.48h-2.16v-2.16Zm0,24h-.48v2.16h-2.16v.48h2.16v2.16h.48v-2.16h2.16v-.48h-2.16v-2.16Zm0,24h-.48v2.16h-2.16v.48h2.16v2.16h.48v-2.16h2.16v-.48h-2.16v-2.16Zm24-72h-.48v2.16h-2.16v.48h2.16v2.16h.48v-2.16h2.16v-.48h-2.16v-2.16Zm0,24h-.48v2.16h-2.16v.48h2.16v2.16h.48v-2.16h2.16v-.48h-2.16v-2.16Zm0,24h-.48v2.16h-2.16v.48h2.16v2.16h.48v-2.16h2.16v-.48h-2.16v-2.16Zm0,24h-.48v2.16h-2.16v.48h2.16v2.16h.48v-2.16h2.16v-.48h-2.16v-2.16Zm23.52-72v2.16h-2.16v.48h2.16v2.16h.48v-2.16h2.16v-.48h-2.16v-2.16h-.48Zm-2.16,26.64h2.16v2.16h.48v-2.16h2.16v-.48h-2.16v-2.16h-.48v2.16h-2.16v.48Zm0,24h2.16v2.16h.48v-2.16h2.16v-.48h-2.16v-2.16h-.48v2.16h-2.16v.48Zm0,24h2.16v2.16h.48v-2.16h2.16v-.48h-2.16v-2.16h-.48v2.16h-2.16v.48Zm-93.36,21.36h-.48v2.16h-2.16v.48h2.16v2.16h.48v-2.16h2.16v-.48h-2.16v-2.16Zm24,0h-.48v2.16h-2.16v.48h2.16v2.16h.48v-2.16h2.16v-.48h-2.16v-2.16Zm24,0h-.48v2.16h-2.16v.48h2.16v2.16h.48v-2.16h2.16v-.48h-2.16v-2.16Zm24,0h-.48v2.16h-2.16v.48h2.16v2.16h.48v-2.16h2.16v-.48h-2.16v-2.16Zm-192,24h-.48v2.16h-2.16v.48h2.16v2.16h.48v-2.16h2.16v-.48h-2.16v-2.16Zm0,24h-.48v2.16h-2.16v.48h2.16v2.16h.48v-2.16h2.16v-.48h-2.16v-2.16Zm0,24h-.48v2.16h-2.16v.48h2.16v2.16h.48v-2.16h2.16v-.48h-2.16v-2.16Zm0,24h-.48v2.16h-2.16v.48h2.16v2.16h.48v-2.16h2.16v-.48h-2.16v-2.16Zm24-72h-.48v2.16h-2.16v.48h2.16v2.16h.48v-2.16h2.16v-.48h-2.16v-2.16Zm0,24h-.48v2.16h-2.16v.48h2.16v2.16h.48v-2.16h2.16v-.48h-2.16v-2.16Zm0,24h-.48v2.16h-2.16v.48h2.16v2.16h.48v-2.16h2.16v-.48h-2.16v-2.16Zm0,24h-.48v2.16h-2.16v.48h2.16v2.16h.48v-2.16h2.16v-.48h-2.16v-2.16Zm24-72h-.48v2.16h-2.16v.48h2.16v2.16h.48v-2.16h2.16v-.48h-2.16v-2.16Zm0,24h-.48v2.16h-2.16v.48h2.16v2.16h.48v-2.16h2.16v-.48h-2.16v-2.16Zm0,24h-.48v2.16h-2.16v.48h2.16v2.16h.48v-2.16h2.16v-.48h-2.16v-2.16Zm0,24h-.48v2.16h-2.16v.48h2.16v2.16h.48v-2.16h2.16v-.48h-2.16v-2.16Zm24-72h-.48v2.16h-2.16v.48h2.16v2.16h.48v-2.16h2.16v-.48h-2.16v-2.16Zm0,24h-.48v2.16h-2.16v.48h2.16v2.16h.48v-2.16h2.16v-.48h-2.16v-2.16Zm0,24h-.48v2.16h-2.16v.48h2.16v2.16h.48v-2.16h2.16v-.48h-2.16v-2.16Zm0,24h-.48v2.16h-2.16v.48h2.16v2.16h.48v-2.16h2.16v-.48h-2.16v-2.16Zm23.52-72v2.16h-2.16v.48h2.16v2.16h.48v-2.16h2.16v-.48h-2.16v-2.16h-.48Zm-2.16,26.64h2.16v2.16h.48v-2.16h2.16v-.48h-2.16v-2.16h-.48v2.16h-2.16v.48Zm0,24h2.16v2.16h.48v-2.16h2.16v-.48h-2.16v-2.16h-.48v2.16h-2.16v.48Zm0,24h2.16v2.16h.48v-2.16h2.16v-.48h-2.16v-2.16h-.48v2.16h-2.16v.48Zm-93.36,21.36h-.48v2.16h-2.16v.48h2.16v2.16h.48v-2.16h2.16v-.48h-2.16v-2.16Zm24,0h-.48v2.16h-2.16v.48h2.16v2.16h.48v-2.16h2.16v-.48h-2.16v-2.16Zm24,0h-.48v2.16h-2.16v.48h2.16v2.16h.48v-2.16h2.16v-.48h-2.16v-2.16Zm24,0h-.48v2.16h-2.16v.48h2.16v2.16h.48v-2.16h2.16v-.48h-2.16v-2.16Zm48-96h-.48v2.16h-2.16v.48h2.16v2.16h.48v-2.16h2.16v-.48h-2.16v-2.16Zm0,24h-.48v2.16h-2.16v.48h2.16v2.16h.48v-2.16h2.16v-.48h-2.16v-2.16Zm0,24h-.48v2.16h-2.16v.48h2.16v2.16h.48v-2.16h2.16v-.48h-2.16v-2.16Zm0,24h-.48v2.16h-2.16v.48h2.16v2.16h.48v-2.16h2.16v-.48h-2.16v-2.16Zm24-72h-.48v2.16h-2.16v.48h2.16v2.16h.48v-2.16h2.16v-.48h-2.16v-2.16Zm0,24h-.48v2.16h-2.16v.48h2.16v2.16h.48v-2.16h2.16v-.48h-2.16v-2.16Zm0,24h-.48v2.16h-2.16v.48h2.16v2.16h.48v-2.16h2.16v-.48h-2.16v-2.16Zm0,24h-.48v2.16h-2.16v.48h2.16v2.16h.48v-2.16h2.16v-.48h-2.16v-2.16Zm24-72h-.48v2.16h-2.16v.48h2.16v2.16h.48v-2.16h2.16v-.48h-2.16v-2.16Zm0,24h-.48v2.16h-2.16v.48h2.16v2.16h.48v-2.16h2.16v-.48h-2.16v-2.16Zm0,24h-.48v2.16h-2.16v.48h2.16v2.16h.48v-2.16h2.16v-.48h-2.16v-2.16Zm0,24h-.48v2.16h-2.16v.48h2.16v2.16h.48v-2.16h2.16v-.48h-2.16v-2.16Zm24-72h-.48v2.16h-2.16v.48h2.16v2.16h.48v-2.16h2.16v-.48h-2.16v-2.16Zm0,24h-.48v2.16h-2.16v.48h2.16v2.16h.48v-2.16h2.16v-.48h-2.16v-2.16Zm0,24h-.48v2.16h-2.16v.48h2.16v2.16h.48v-2.16h2.16v-.48h-2.16v-2.16Zm0,24h-.48v2.16h-2.16v.48h2.16v2.16h.48v-2.16h2.16v-.48h-2.16v-2.16Zm23.52-72v2.16h-2.16v.48h2.16v2.16h.48v-2.16h2.16v-.48h-2.16v-2.16h-.48Zm-2.16,26.64h2.16v2.16h.48v-2.16h2.16v-.48h-2.16v-2.16h-.48v2.16h-2.16v.48Zm0,24h2.16v2.16h.48v-2.16h2.16v-.48h-2.16v-2.16h-.48v2.16h-2.16v.48Zm0,24h2.16v2.16h.48v-2.16h2.16v-.48h-2.16v-2.16h-.48v2.16h-2.16v.48Zm-93.36,21.36h-.48v2.16h-2.16v.48h2.16v2.16h.48v-2.16h2.16v-.48h-2.16v-2.16Zm24,0h-.48v2.16h-2.16v.48h2.16v2.16h.48v-2.16h2.16v-.48h-2.16v-2.16Zm24,0h-.48v2.16h-2.16v.48h2.16v2.16h.48v-2.16h2.16v-.48h-2.16v-2.16Zm24,0h-.48v2.16h-2.16v.48h2.16v2.16h.48v-2.16h2.16v-.48h-2.16v-2.16Zm-192,24h-.48v2.16h-2.16v.48h2.16v2.16h.48v-2.16h2.16v-.48h-2.16v-2.16Zm0,24h-.48v2.16h-2.16v.48h2.16v2.16h.48v-2.16h2.16v-.48h-2.16v-2.16Zm0,24h-.48v2.16h-2.16v.48h2.16v2.16h.48v-2.16h2.16v-.48h-2.16v-2.16Zm0,24h-.48v2.16h-2.16v.48h2.16v2.16h.48v-2.16h2.16v-.48h-2.16v-2.16Zm24-72h-.48v2.16h-2.16v.48h2.16v2.16h.48v-2.16h2.16v-.48h-2.16v-2.16Zm0,24h-.48v2.16h-2.16v.48h2.16v2.16h.48v-2.16h2.16v-.48h-2.16v-2.16Zm0,24h-.48v2.16h-2.16v.48h2.16v2.16h.48v-2.16h2.16v-.48h-2.16v-2.16Zm0,24h-.48v2.16h-2.16v.48h2.16v2.16h.48v-2.16h2.16v-.48h-2.16v-2.16Zm24-72h-.48v2.16h-2.16v.48h2.16v2.16h.48v-2.16h2.16v-.48h-2.16v-2.16Zm0,24h-.48v2.16h-2.16v.48h2.16v2.16h.48v-2.16h2.16v-.48h-2.16v-2.16Zm0,24h-.48v2.16h-2.16v.48h2.16v2.16h.48v-2.16h2.16v-.48h-2.16v-2.16Zm0,24h-.48v2.16h-2.16v.48h2.16v2.16h.48v-2.16h2.16v-.48h-2.16v-2.16Zm24-72h-.48v2.16h-2.16v.48h2.16v2.16h.48v-2.16h2.16v-.48h-2.16v-2.16Zm0,24h-.48v2.16h-2.16v.48h2.16v2.16h.48v-2.16h2.16v-.48h-2.16v-2.16Zm0,24h-.48v2.16h-2.16v.48h2.16v2.16h.48v-2.16h2.16v-.48h-2.16v-2.16Zm0,24h-.48v2.16h-2.16v.48h2.16v2.16h.48v-2.16h2.16v-.48h-2.16v-2.16Zm23.52-72v2.16h-2.16v.48h2.16v2.16h.48v-2.16h2.16v-.48h-2.16v-2.16h-.48Zm-2.16,26.64h2.16v2.16h.48v-2.16h2.16v-.48h-2.16v-2.16h-.48v2.16h-2.16v.48Zm0,24h2.16v2.16h.48v-2.16h2.16v-.48h-2.16v-2.16h-.48v2.16h-2.16v.48Zm0,24h2.16v2.16h.48v-2.16h2.16v-.48h-2.16v-2.16h-.48v2.16h-2.16v.48Zm-93.36,21.36h-.48v2.16h-2.16v.48h2.16v2.16h.48v-2.16h2.16v-.48h-2.16v-2.16Zm24,0h-.48v2.16h-2.16v.48h2.16v2.16h.48v-2.16h2.16v-.48h-2.16v-2.16Zm24,0h-.48v2.16h-2.16v.48h2.16v2.16h.48v-2.16h2.16v-.48h-2.16v-2.16Zm24,0h-.48v2.16h-2.16v.48h2.16v2.16h.48v-2.16h2.16v-.48h-2.16v-2.16Zm48-96h-.48v2.16h-2.16v.48h2.16v2.16h.48v-2.16h2.16v-.48h-2.16v-2.16Zm0,24h-.48v2.16h-2.16v.48h2.16v2.16h.48v-2.16h2.16v-.48h-2.16v-2.16Zm0,24h-.48v2.16h-2.16v.48h2.16v2.16h.48v-2.16h2.16v-.48h-2.16v-2.16Zm0,24h-.48v2.16h-2.16v.48h2.16v2.16h.48v-2.16h2.16v-.48h-2.16v-2.16Zm24-72h-.48v2.16h-2.16v.48h2.16v2.16h.48v-2.16h2.16v-.48h-2.16v-2.16Zm0,24h-.48v2.16h-2.16v.48h2.16v2.16h.48v-2.16h2.16v-.48h-2.16v-2.16Zm0,24h-.48v2.16h-2.16v.48h2.16v2.16h.48v-2.16h2.16v-.48h-2.16v-2.16Zm0,24h-.48v2.16h-2.16v.48h2.16v2.16h.48v-2.16h2.16v-.48h-2.16v-2.16Zm24-72h-.48v2.16h-2.16v.48h2.16v2.16h.48v-2.16h2.16v-.48h-2.16v-2.16Zm0,24h-.48v2.16h-2.16v.48h2.16v2.16h.48v-2.16h2.16v-.48h-2.16v-2.16Zm0,24h-.48v2.16h-2.16v.48h2.16v2.16h.48v-2.16h2.16v-.48h-2.16v-2.16Zm0,24h-.48v2.16h-2.16v.48h2.16v2.16h.48v-2.16h2.16v-.48h-2.16v-2.16Zm24-72h-.48v2.16h-2.16v.48h2.16v2.16h.48v-2.16h2.16v-.48h-2.16v-2.16Zm0,24h-.48v2.16h-2.16v.48h2.16v2.16h.48v-2.16h2.16v-.48h-2.16v-2.16Zm0,24h-.48v2.16h-2.16v.48h2.16v2.16h.48v-2.16h2.16v-.48h-2.16v-2.16Zm0,24h-.48v2.16h-2.16v.48h2.16v2.16h.48v-2.16h2.16v-.48h-2.16v-2.16Zm23.52-72v2.16h-2.16v.48h2.16v2.16h.48v-2.16h2.16v-.48h-2.16v-2.16h-.48Zm-2.16,26.64h2.16v2.16h.48v-2.16h2.16v-.48h-2.16v-2.16h-.48v2.16h-2.16v.48Zm0,24h2.16v2.16h.48v-2.16h2.16v-.48h-2.16v-2.16h-.48v2.16h-2.16v.48Zm0,24h2.16v2.16h.48v-2.16h2.16v-.48h-2.16v-2.16h-.48v2.16h-2.16v.48Zm-93.36,21.36h-.48v2.16h-2.16v.48h2.16v2.16h.48v-2.16h2.16v-.48h-2.16v-2.16Zm24,0h-.48v2.16h-2.16v.48h2.16v2.16h.48v-2.16h2.16v-.48h-2.16v-2.16Zm24,0h-.48v2.16h-2.16v.48h2.16v2.16h.48v-2.16h2.16v-.48h-2.16v-2.16Zm24,0h-.48v2.16h-2.16v.48h2.16v2.16h.48v-2.16h2.16v-.48h-2.16v-2.16Zm-192,24h-.48v2.16h-2.16v.48h2.16v2.16h.48v-2.16h2.16v-.48h-2.16v-2.16Zm0,24h-.48v2.16h-2.16v.48h2.16v2.16h.48v-2.16h2.16v-.48h-2.16v-2.16Zm0,24h-.48v2.16h-2.16v.48h2.16v2.16h.48v-2.16h2.16v-.48h-2.16v-2.16Zm0,24h-.48v2.16h-2.16v.48h2.16v2.16h.48v-2.16h2.16v-.48h-2.16v-2.16Zm24-72h-.48v2.16h-2.16v.48h2.16v2.16h.48v-2.16h2.16v-.48h-2.16v-2.16Zm0,24h-.48v2.16h-2.16v.48h2.16v2.16h.48v-2.16h2.16v-.48h-2.16v-2.16Zm0,24h-.48v2.16h-2.16v.48h2.16v2.16h.48v-2.16h2.16v-.48h-2.16v-2.16Zm0,24h-.48v2.16h-2.16v.48h2.16v2.16h.48v-2.16h2.16v-.48h-2.16v-2.16Zm24-72h-.48v2.16h-2.16v.48h2.16v2.16h.48v-2.16h2.16v-.48h-2.16v-2.16Zm0,24h-.48v2.16h-2.16v.48h2.16v2.16h.48v-2.16h2.16v-.48h-2.16v-2.16Zm0,24h-.48v2.16h-2.16v.48h2.16v2.16h.48v-2.16h2.16v-.48h-2.16v-2.16Zm0,24h-.48v2.16h-2.16v.48h2.16v2.16h.48v-2.16h2.16v-.48h-2.16v-2.16Zm24-72h-.48v2.16h-2.16v.48h2.16v2.16h.48v-2.16h2.16v-.48h-2.16v-2.16Zm0,24h-.48v2.16h-2.16v.48h2.16v2.16h.48v-2.16h2.16v-.48h-2.16v-2.16Zm0,24h-.48v2.16h-2.16v.48h2.16v2.16h.48v-2.16h2.16v-.48h-2.16v-2.16Zm0,24h-.48v2.16h-2.16v.48h2.16v2.16h.48v-2.16h2.16v-.48h-2.16v-2.16Zm23.52-72v2.16h-2.16v.48h2.16v2.16h.48v-2.16h2.16v-.48h-2.16v-2.16h-.48Zm-2.16,26.64h2.16v2.16h.48v-2.16h2.16v-.48h-2.16v-2.16h-.48v2.16h-2.16v.48Zm0,24h2.16v2.16h.48v-2.16h2.16v-.48h-2.16v-2.16h-.48v2.16h-2.16v.48Zm0,24h2.16v2.16h.48v-2.16h2.16v-.48h-2.16v-2.16h-.48v2.16h-2.16v.48Zm-93.36,21.36h-.48v2.16h-2.16v.48h2.16v2.16h.48v-2.16h2.16v-.48h-2.16v-2.16Zm24,0h-.48v2.16h-2.16v.48h2.16v2.16h.48v-2.16h2.16v-.48h-2.16v-2.16Zm24,0h-.48v2.16h-2.16v.48h2.16v2.16h.48v-2.16h2.16v-.48h-2.16v-2.16Zm24,0h-.48v2.16h-2.16v.48h2.16v2.16h.48v-2.16h2.16v-.48h-2.16v-2.16Zm48-96h-.48v2.16h-2.16v.48h2.16v2.16h.48v-2.16h2.16v-.48h-2.16v-2.16Zm0,24h-.48v2.16h-2.16v.48h2.16v2.16h.48v-2.16h2.16v-.48h-2.16v-2.16Zm0,24h-.48v2.16h-2.16v.48h2.16v2.16h.48v-2.16h2.16v-.48h-2.16v-2.16Zm0,24h-.48v2.16h-2.16v.48h2.16v2.16h.48v-2.16h2.16v-.48h-2.16v-2.16Zm24-72h-.48v2.16h-2.16v.48h2.16v2.16h.48v-2.16h2.16v-.48h-2.16v-2.16Zm0,24h-.48v2.16h-2.16v.48h2.16v2.16h.48v-2.16h2.16v-.48h-2.16v-2.16Zm0,24h-.48v2.16h-2.16v.48h2.16v2.16h.48v-2.16h2.16v-.48h-2.16v-2.16Zm0,24h-.48v2.16h-2.16v.48h2.16v2.16h.48v-2.16h2.16v-.48h-2.16v-2.16Zm24-72h-.48v2.16h-2.16v.48h2.16v2.16h.48v-2.16h2.16v-.48h-2.16v-2.16Zm0,24h-.48v2.16h-2.16v.48h2.16v2.16h.48v-2.16h2.16v-.48h-2.16v-2.16Zm0,24h-.48v2.16h-2.16v.48h2.16v2.16h.48v-2.16h2.16v-.48h-2.16v-2.16Zm0,24h-.48v2.16h-2.16v.48h2.16v2.16h.48v-2.16h2.16v-.48h-2.16v-2.16Zm24-72h-.48v2.16h-2.16v.48h2.16v2.16h.48v-2.16h2.16v-.48h-2.16v-2.16Zm0,24h-.48v2.16h-2.16v.48h2.16v2.16h.48v-2.16h2.16v-.48h-2.16v-2.16Zm0,24h-.48v2.16h-2.16v.48h2.16v2.16h.48v-2.16h2.16v-.48h-2.16v-2.16Zm0,24h-.48v2.16h-2.16v.48h2.16v2.16h.48v-2.16h2.16v-.48h-2.16v-2.16Zm23.52-72v2.16h-2.16v.48h2.16v2.16h.48v-2.16h2.16v-.48h-2.16v-2.16h-.48Zm-2.16,26.64h2.16v2.16h.48v-2.16h2.16v-.48h-2.16v-2.16h-.48v2.16h-2.16v.48Zm0,24h2.16v2.16h.48v-2.16h2.16v-.48h-2.16v-2.16h-.48v2.16h-2.16v.48Zm0,24h2.16v2.16h.48v-2.16h2.16v-.48h-2.16v-2.16h-.48v2.16h-2.16v.48Zm-93.36,21.36h-.48v2.16h-2.16v.48h2.16v2.16h.48v-2.16h2.16v-.48h-2.16v-2.16Zm24,0h-.48v2.16h-2.16v.48h2.16v2.16h.48v-2.16h2.16v-.48h-2.16v-2.16Zm24,0h-.48v2.16h-2.16v.48h2.16v2.16h.48v-2.16h2.16v-.48h-2.16v-2.16Zm24,0h-.48v2.16h-2.16v.48h2.16v2.16h.48v-2.16h2.16v-.48h-2.16v-2.16ZM509.04,26.4h-.48v2.16h-2.16v.48h2.16v2.16h.48v-2.16h2.16v-.48h-2.16v-2.16Zm0,24h-.48v2.16h-2.16v.48h2.16v2.16h.48v-2.16h2.16v-.48h-2.16v-2.16Zm0,24h-.48v2.16h-2.16v.48h2.16v2.16h.48v-2.16h2.16v-.48h-2.16v-2.16Zm0,24h-.48v2.16h-2.16v.48h2.16v2.16h.48v-2.16h2.16v-.48h-2.16v-2.16Zm24-72h-.48v2.16h-2.16v.48h2.16v2.16h.48v-2.16h2.16v-.48h-2.16v-2.16Zm0,24h-.48v2.16h-2.16v.48h2.16v2.16h.48v-2.16h2.16v-.48h-2.16v-2.16Zm0,24h-.48v2.16h-2.16v.48h2.16v2.16h.48v-2.16h2.16v-.48h-2.16v-2.16Zm0,24h-.48v2.16h-2.16v.48h2.16v2.16h.48v-2.16h2.16v-.48h-2.16v-2.16Zm24-72h-.48v2.16h-2.16v.48h2.16v2.16h.48v-2.16h2.16v-.48h-2.16v-2.16Zm0,24h-.48v2.16h-2.16v.48h2.16v2.16h.48v-2.16h2.16v-.48h-2.16v-2.16Zm0,24h-.48v2.16h-2.16v.48h2.16v2.16h.48v-2.16h2.16v-.48h-2.16v-2.16Zm0,24h-.48v2.16h-2.16v.48h2.16v2.16h.48v-2.16h2.16v-.48h-2.16v-2.16Zm24-72h-.48v2.16h-2.16v.48h2.16v2.16h.48v-2.16h2.16v-.48h-2.16v-2.16Zm0,24h-.48v2.16h-2.16v.48h2.16v2.16h.48v-2.16h2.16v-.48h-2.16v-2.16Zm0,24h-.48v2.16h-2.16v.48h2.16v2.16h.48v-2.16h2.16v-.48h-2.16v-2.16Zm0,24h-.48v2.16h-2.16v.48h2.16v2.16h.48v-2.16h2.16v-.48h-2.16v-2.16Zm23.52-72v2.16h-2.16v.48h2.16v2.16h.48v-2.16h2.16v-.48h-2.16v-2.16h-.48Zm-2.16,26.64h2.16v2.16h.48v-2.16h2.16v-.48h-2.16v-2.16h-.48v2.16h-2.16v.48Zm0,24h2.16v2.16h.48v-2.16h2.16v-.48h-2.16v-2.16h-.48v2.16h-2.16v.48Zm0,24h2.16v2.16h.48v-2.16h2.16v-.48h-2.16v-2.16h-.48v2.16h-2.16v.48ZM509.04,2.4h-.48v2.16h-2.16v.48h2.16v2.16h.48v-2.16h2.16v-.48h-2.16v-2.16Zm24,0h-.48v2.16h-2.16v.48h2.16v2.16h.48v-2.16h2.16v-.48h-2.16v-2.16Zm24,0h-.48v2.16h-2.16v.48h2.16v2.16h.48v-2.16h2.16v-.48h-2.16v-2.16Zm24,0h-.48v2.16h-2.16v.48h2.16v2.16h.48v-2.16h2.16v-.48h-2.16v-2.16Zm-72,120h-.48v2.16h-2.16v.48h2.16v2.16h.48v-2.16h2.16v-.48h-2.16v-2.16Zm24,0h-.48v2.16h-2.16v.48h2.16v2.16h.48v-2.16h2.16v-.48h-2.16v-2.16Zm24,0h-.48v2.16h-2.16v.48h2.16v2.16h.48v-2.16h2.16v-.48h-2.16v-2.16Zm24,0h-.48v2.16h-2.16v.48h2.16v2.16h.48v-2.16h2.16v-.48h-2.16v-2.16Zm48-96h-.48v2.16h-2.16v.48h2.16v2.16h.48v-2.16h2.16v-.48h-2.16v-2.16Zm0,24h-.48v2.16h-2.16v.48h2.16v2.16h.48v-2.16h2.16v-.48h-2.16v-2.16Zm0,24h-.48v2.16h-2.16v.48h2.16v2.16h.48v-2.16h2.16v-.48h-2.16v-2.16Zm0,24h-.48v2.16h-2.16v.48h2.16v2.16h.48v-2.16h2.16v-.48h-2.16v-2.16Zm24-72h-.48v2.16h-2.16v.48h2.16v2.16h.48v-2.16h2.16v-.48h-2.16v-2.16Zm0,24h-.48v2.16h-2.16v.48h2.16v2.16h.48v-2.16h2.16v-.48h-2.16v-2.16Zm0,24h-.48v2.16h-2.16v.48h2.16v2.16h.48v-2.16h2.16v-.48h-2.16v-2.16Zm0,24h-.48v2.16h-2.16v.48h2.16v2.16h.48v-2.16h2.16v-.48h-2.16v-2.16Zm24-72h-.48v2.16h-2.16v.48h2.16v2.16h.48v-2.16h2.16v-.48h-2.16v-2.16Zm0,24h-.48v2.16h-2.16v.48h2.16v2.16h.48v-2.16h2.16v-.48h-2.16v-2.16Zm0,24h-.48v2.16h-2.16v.48h2.16v2.16h.48v-2.16h2.16v-.48h-2.16v-2.16Zm0,24h-.48v2.16h-2.16v.48h2.16v2.16h.48v-2.16h2.16v-.48h-2.16v-2.16Zm24-72h-.48v2.16h-2.16v.48h2.16v2.16h.48v-2.16h2.16v-.48h-2.16v-2.16Zm0,24h-.48v2.16h-2.16v.48h2.16v2.16h.48v-2.16h2.16v-.48h-2.16v-2.16Zm0,24h-.48v2.16h-2.16v.48h2.16v2.16h.48v-2.16h2.16v-.48h-2.16v-2.16Zm0,24h-.48v2.16h-2.16v.48h2.16v2.16h.48v-2.16h2.16v-.48h-2.16v-2.16Zm23.52-72v2.16h-2.16v.48h2.16v2.16h.48v-2.16h2.16v-.48h-2.16v-2.16h-.48Zm-2.16,26.64h2.16v2.16h.48v-2.16h2.16v-.48h-2.16v-2.16h-.48v2.16h-2.16v.48Zm0,24h2.16v2.16h.48v-2.16h2.16v-.48h-2.16v-2.16h-.48v2.16h-2.16v.48Zm0,24h2.16v2.16h.48v-2.16h2.16v-.48h-2.16v-2.16h-.48v2.16h-2.16v.48ZM629.04,2.4h-.48v2.16h-2.16v.48h2.16v2.16h.48v-2.16h2.16v-.48h-2.16v-2.16Zm24,0h-.48v2.16h-2.16v.48h2.16v2.16h.48v-2.16h2.16v-.48h-2.16v-2.16Zm24,0h-.48v2.16h-2.16v.48h2.16v2.16h.48v-2.16h2.16v-.48h-2.16v-2.16Zm24,0h-.48v2.16h-2.16v.48h2.16v2.16h.48v-2.16h2.16v-.48h-2.16v-2.16Zm-72,120h-.48v2.16h-2.16v.48h2.16v2.16h.48v-2.16h2.16v-.48h-2.16v-2.16Zm24,0h-.48v2.16h-2.16v.48h2.16v2.16h.48v-2.16h2.16v-.48h-2.16v-2.16Zm24,0h-.48v2.16h-2.16v.48h2.16v2.16h.48v-2.16h2.16v-.48h-2.16v-2.16Zm24,0h-.48v2.16h-2.16v.48h2.16v2.16h.48v-2.16h2.16v-.48h-2.16v-2.16Zm-192,24h-.48v2.16h-2.16v.48h2.16v2.16h.48v-2.16h2.16v-.48h-2.16v-2.16Zm0,24h-.48v2.16h-2.16v.48h2.16v2.16h.48v-2.16h2.16v-.48h-2.16v-2.16Zm0,24h-.48v2.16h-2.16v.48h2.16v2.16h.48v-2.16h2.16v-.48h-2.16v-2.16Zm0,24h-.48v2.16h-2.16v.48h2.16v2.16h.48v-2.16h2.16v-.48h-2.16v-2.16Zm24-72h-.48v2.16h-2.16v.48h2.16v2.16h.48v-2.16h2.16v-.48h-2.16v-2.16Zm0,24h-.48v2.16h-2.16v.48h2.16v2.16h.48v-2.16h2.16v-.48h-2.16v-2.16Zm0,24h-.48v2.16h-2.16v.48h2.16v2.16h.48v-2.16h2.16v-.48h-2.16v-2.16Zm0,24h-.48v2.16h-2.16v.48h2.16v2.16h.48v-2.16h2.16v-.48h-2.16v-2.16Zm24-72h-.48v2.16h-2.16v.48h2.16v2.16h.48v-2.16h2.16v-.48h-2.16v-2.16Zm0,24h-.48v2.16h-2.16v.48h2.16v2.16h.48v-2.16h2.16v-.48h-2.16v-2.16Zm0,24h-.48v2.16h-2.16v.48h2.16v2.16h.48v-2.16h2.16v-.48h-2.16v-2.16Zm0,24h-.48v2.16h-2.16v.48h2.16v2.16h.48v-2.16h2.16v-.48h-2.16v-2.16Zm24-72h-.48v2.16h-2.16v.48h2.16v2.16h.48v-2.16h2.16v-.48h-2.16v-2.16Zm0,24h-.48v2.16h-2.16v.48h2.16v2.16h.48v-2.16h2.16v-.48h-2.16v-2.16Zm0,24h-.48v2.16h-2.16v.48h2.16v2.16h.48v-2.16h2.16v-.48h-2.16v-2.16Zm0,24h-.48v2.16h-2.16v.48h2.16v2.16h.48v-2.16h2.16v-.48h-2.16v-2.16Zm23.52-72v2.16h-2.16v.48h2.16v2.16h.48v-2.16h2.16v-.48h-2.16v-2.16h-.48Zm-2.16,26.64h2.16v2.16h.48v-2.16h2.16v-.48h-2.16v-2.16h-.48v2.16h-2.16v.48Zm0,24h2.16v2.16h.48v-2.16h2.16v-.48h-2.16v-2.16h-.48v2.16h-2.16v.48Zm0,24h2.16v2.16h.48v-2.16h2.16v-.48h-2.16v-2.16h-.48v2.16h-2.16v.48Zm-93.36,21.36h-.48v2.16h-2.16v.48h2.16v2.16h.48v-2.16h2.16v-.48h-2.16v-2.16Zm24,0h-.48v2.16h-2.16v.48h2.16v2.16h.48v-2.16h2.16v-.48h-2.16v-2.16Zm24,0h-.48v2.16h-2.16v.48h2.16v2.16h.48v-2.16h2.16v-.48h-2.16v-2.16Zm24,0h-.48v2.16h-2.16v.48h2.16v2.16h.48v-2.16h2.16v-.48h-2.16v-2.16Zm48-96h-.48v2.16h-2.16v.48h2.16v2.16h.48v-2.16h2.16v-.48h-2.16v-2.16Zm0,24h-.48v2.16h-2.16v.48h2.16v2.16h.48v-2.16h2.16v-.48h-2.16v-2.16Zm0,24h-.48v2.16h-2.16v.48h2.16v2.16h.48v-2.16h2.16v-.48h-2.16v-2.16Zm0,24h-.48v2.16h-2.16v.48h2.16v2.16h.48v-2.16h2.16v-.48h-2.16v-2.16Zm24-72h-.48v2.16h-2.16v.48h2.16v2.16h.48v-2.16h2.16v-.48h-2.16v-2.16Zm0,24h-.48v2.16h-2.16v.48h2.16v2.16h.48v-2.16h2.16v-.48h-2.16v-2.16Zm0,24h-.48v2.16h-2.16v.48h2.16v2.16h.48v-2.16h2.16v-.48h-2.16v-2.16Zm0,24h-.48v2.16h-2.16v.48h2.16v2.16h.48v-2.16h2.16v-.48h-2.16v-2.16Zm24-72h-.48v2.16h-2.16v.48h2.16v2.16h.48v-2.16h2.16v-.48h-2.16v-2.16Zm0,24h-.48v2.16h-2.16v.48h2.16v2.16h.48v-2.16h2.16v-.48h-2.16v-2.16Zm0,24h-.48v2.16h-2.16v.48h2.16v2.16h.48v-2.16h2.16v-.48h-2.16v-2.16Zm0,24h-.48v2.16h-2.16v.48h2.16v2.16h.48v-2.16h2.16v-.48h-2.16v-2.16Zm24-72h-.48v2.16h-2.16v.48h2.16v2.16h.48v-2.16h2.16v-.48h-2.16v-2.16Zm0,24h-.48v2.16h-2.16v.48h2.16v2.16h.48v-2.16h2.16v-.48h-2.16v-2.16Zm0,24h-.48v2.16h-2.16v.48h2.16v2.16h.48v-2.16h2.16v-.48h-2.16v-2.16Zm0,24h-.48v2.16h-2.16v.48h2.16v2.16h.48v-2.16h2.16v-.48h-2.16v-2.16Zm23.52-72v2.16h-2.16v.48h2.16v2.16h.48v-2.16h2.16v-.48h-2.16v-2.16h-.48Zm-2.16,26.64h2.16v2.16h.48v-2.16h2.16v-.48h-2.16v-2.16h-.48v2.16h-2.16v.48Zm0,24h2.16v2.16h.48v-2.16h2.16v-.48h-2.16v-2.16h-.48v2.16h-2.16v.48Zm0,24h2.16v2.16h.48v-2.16h2.16v-.48h-2.16v-2.16h-.48v2.16h-2.16v.48Zm-93.36,21.36h-.48v2.16h-2.16v.48h2.16v2.16h.48v-2.16h2.16v-.48h-2.16v-2.16Zm24,0h-.48v2.16h-2.16v.48h2.16v2.16h.48v-2.16h2.16v-.48h-2.16v-2.16Zm24,0h-.48v2.16h-2.16v.48h2.16v2.16h.48v-2.16h2.16v-.48h-2.16v-2.16Zm24,0h-.48v2.16h-2.16v.48h2.16v2.16h.48v-2.16h2.16v-.48h-2.16v-2.16Zm-192,24h-.48v2.16h-2.16v.48h2.16v2.16h.48v-2.16h2.16v-.48h-2.16v-2.16Zm0,24h-.48v2.16h-2.16v.48h2.16v2.16h.48v-2.16h2.16v-.48h-2.16v-2.16Zm0,24h-.48v2.16h-2.16v.48h2.16v2.16h.48v-2.16h2.16v-.48h-2.16v-2.16Zm0,24h-.48v2.16h-2.16v.48h2.16v2.16h.48v-2.16h2.16v-.48h-2.16v-2.16Zm24-72h-.48v2.16h-2.16v.48h2.16v2.16h.48v-2.16h2.16v-.48h-2.16v-2.16Zm0,24h-.48v2.16h-2.16v.48h2.16v2.16h.48v-2.16h2.16v-.48h-2.16v-2.16Zm0,24h-.48v2.16h-2.16v.48h2.16v2.16h.48v-2.16h2.16v-.48h-2.16v-2.16Zm0,24h-.48v2.16h-2.16v.48h2.16v2.16h.48v-2.16h2.16v-.48h-2.16v-2.16Zm24-72h-.48v2.16h-2.16v.48h2.16v2.16h.48v-2.16h2.16v-.48h-2.16v-2.16Zm0,24h-.48v2.16h-2.16v.48h2.16v2.16h.48v-2.16h2.16v-.48h-2.16v-2.16Zm0,24h-.48v2.16h-2.16v.48h2.16v2.16h.48v-2.16h2.16v-.48h-2.16v-2.16Zm0,24h-.48v2.16h-2.16v.48h2.16v2.16h.48v-2.16h2.16v-.48h-2.16v-2.16Zm24-72h-.48v2.16h-2.16v.48h2.16v2.16h.48v-2.16h2.16v-.48h-2.16v-2.16Zm0,24h-.48v2.16h-2.16v.48h2.16v2.16h.48v-2.16h2.16v-.48h-2.16v-2.16Zm0,24h-.48v2.16h-2.16v.48h2.16v2.16h.48v-2.16h2.16v-.48h-2.16v-2.16Zm0,24h-.48v2.16h-2.16v.48h2.16v2.16h.48v-2.16h2.16v-.48h-2.16v-2.16Zm23.52-72v2.16h-2.16v.48h2.16v2.16h.48v-2.16h2.16v-.48h-2.16v-2.16h-.48Zm-2.16,26.64h2.16v2.16h.48v-2.16h2.16v-.48h-2.16v-2.16h-.48v2.16h-2.16v.48Zm0,24h2.16v2.16h.48v-2.16h2.16v-.48h-2.16v-2.16h-.48v2.16h-2.16v.48Zm0,24h2.16v2.16h.48v-2.16h2.16v-.48h-2.16v-2.16h-.48v2.16h-2.16v.48Zm-93.36,21.36h-.48v2.16h-2.16v.48h2.16v2.16h.48v-2.16h2.16v-.48h-2.16v-2.16Zm24,0h-.48v2.16h-2.16v.48h2.16v2.16h.48v-2.16h2.16v-.48h-2.16v-2.16Zm24,0h-.48v2.16h-2.16v.48h2.16v2.16h.48v-2.16h2.16v-.48h-2.16v-2.16Zm24,0h-.48v2.16h-2.16v.48h2.16v2.16h.48v-2.16h2.16v-.48h-2.16v-2.16Zm48-96h-.48v2.16h-2.16v.48h2.16v2.16h.48v-2.16h2.16v-.48h-2.16v-2.16Zm0,24h-.48v2.16h-2.16v.48h2.16v2.16h.48v-2.16h2.16v-.48h-2.16v-2.16Zm0,24h-.48v2.16h-2.16v.48h2.16v2.16h.48v-2.16h2.16v-.48h-2.16v-2.16Zm0,24h-.48v2.16h-2.16v.48h2.16v2.16h.48v-2.16h2.16v-.48h-2.16v-2.16Zm24-72h-.48v2.16h-2.16v.48h2.16v2.16h.48v-2.16h2.16v-.48h-2.16v-2.16Zm0,24h-.48v2.16h-2.16v.48h2.16v2.16h.48v-2.16h2.16v-.48h-2.16v-2.16Zm0,24h-.48v2.16h-2.16v.48h2.16v2.16h.48v-2.16h2.16v-.48h-2.16v-2.16Zm0,24h-.48v2.16h-2.16v.48h2.16v2.16h.48v-2.16h2.16v-.48h-2.16v-2.16Zm24-72h-.48v2.16h-2.16v.48h2.16v2.16h.48v-2.16h2.16v-.48h-2.16v-2.16Zm0,24h-.48v2.16h-2.16v.48h2.16v2.16h.48v-2.16h2.16v-.48h-2.16v-2.16Zm0,24h-.48v2.16h-2.16v.48h2.16v2.16h.48v-2.16h2.16v-.48h-2.16v-2.16Zm0,24h-.48v2.16h-2.16v.48h2.16v2.16h.48v-2.16h2.16v-.48h-2.16v-2.16Zm24-72h-.48v2.16h-2.16v.48h2.16v2.16h.48v-2.16h2.16v-.48h-2.16v-2.16Zm0,24h-.48v2.16h-2.16v.48h2.16v2.16h.48v-2.16h2.16v-.48h-2.16v-2.16Zm0,24h-.48v2.16h-2.16v.48h2.16v2.16h.48v-2.16h2.16v-.48h-2.16v-2.16Zm0,24h-.48v2.16h-2.16v.48h2.16v2.16h.48v-2.16h2.16v-.48h-2.16v-2.16Zm23.52-72v2.16h-2.16v.48h2.16v2.16h.48v-2.16h2.16v-.48h-2.16v-2.16h-.48Zm-2.16,26.64h2.16v2.16h.48v-2.16h2.16v-.48h-2.16v-2.16h-.48v2.16h-2.16v.48Zm0,24h2.16v2.16h.48v-2.16h2.16v-.48h-2.16v-2.16h-.48v2.16h-2.16v.48Zm0,24h2.16v2.16h.48v-2.16h2.16v-.48h-2.16v-2.16h-.48v2.16h-2.16v.48Zm-93.36,21.36h-.48v2.16h-2.16v.48h2.16v2.16h.48v-2.16h2.16v-.48h-2.16v-2.16Zm24,0h-.48v2.16h-2.16v.48h2.16v2.16h.48v-2.16h2.16v-.48h-2.16v-2.16Zm24,0h-.48v2.16h-2.16v.48h2.16v2.16h.48v-2.16h2.16v-.48h-2.16v-2.16Zm24,0h-.48v2.16h-2.16v.48h2.16v2.16h.48v-2.16h2.16v-.48h-2.16v-2.16Zm-192,24h-.48v2.16h-2.16v.48h2.16v2.16h.48v-2.16h2.16v-.48h-2.16v-2.16Zm0,24h-.48v2.16h-2.16v.48h2.16v2.16h.48v-2.16h2.16v-.48h-2.16v-2.16Zm0,24h-.48v2.16h-2.16v.48h2.16v2.16h.48v-2.16h2.16v-.48h-2.16v-2.16Zm0,24h-.48v2.16h-2.16v.48h2.16v2.16h.48v-2.16h2.16v-.48h-2.16v-2.16Zm24-72h-.48v2.16h-2.16v.48h2.16v2.16h.48v-2.16h2.16v-.48h-2.16v-2.16Zm0,24h-.48v2.16h-2.16v.48h2.16v2.16h.48v-2.16h2.16v-.48h-2.16v-2.16Zm0,24h-.48v2.16h-2.16v.48h2.16v2.16h.48v-2.16h2.16v-.48h-2.16v-2.16Zm0,24h-.48v2.16h-2.16v.48h2.16v2.16h.48v-2.16h2.16v-.48h-2.16v-2.16Zm24-72h-.48v2.16h-2.16v.48h2.16v2.16h.48v-2.16h2.16v-.48h-2.16v-2.16Zm0,24h-.48v2.16h-2.16v.48h2.16v2.16h.48v-2.16h2.16v-.48h-2.16v-2.16Zm0,24h-.48v2.16h-2.16v.48h2.16v2.16h.48v-2.16h2.16v-.48h-2.16v-2.16Zm0,24h-.48v2.16h-2.16v.48h2.16v2.16h.48v-2.16h2.16v-.48h-2.16v-2.16Zm24-72h-.48v2.16h-2.16v.48h2.16v2.16h.48v-2.16h2.16v-.48h-2.16v-2.16Zm0,24h-.48v2.16h-2.16v.48h2.16v2.16h.48v-2.16h2.16v-.48h-2.16v-2.16Zm0,24h-.48v2.16h-2.16v.48h2.16v2.16h.48v-2.16h2.16v-.48h-2.16v-2.16Zm0,24h-.48v2.16h-2.16v.48h2.16v2.16h.48v-2.16h2.16v-.48h-2.16v-2.16Zm23.52-72v2.16h-2.16v.48h2.16v2.16h.48v-2.16h2.16v-.48h-2.16v-2.16h-.48Zm-2.16,26.64h2.16v2.16h.48v-2.16h2.16v-.48h-2.16v-2.16h-.48v2.16h-2.16v.48Zm0,24h2.16v2.16h.48v-2.16h2.16v-.48h-2.16v-2.16h-.48v2.16h-2.16v.48Zm0,24h2.16v2.16h.48v-2.16h2.16v-.48h-2.16v-2.16h-.48v2.16h-2.16v.48Zm-93.36,21.36h-.48v2.16h-2.16v.48h2.16v2.16h.48v-2.16h2.16v-.48h-2.16v-2.16Zm24,0h-.48v2.16h-2.16v.48h2.16v2.16h.48v-2.16h2.16v-.48h-2.16v-2.16Zm24,0h-.48v2.16h-2.16v.48h2.16v2.16h.48v-2.16h2.16v-.48h-2.16v-2.16Zm24,0h-.48v2.16h-2.16v.48h2.16v2.16h.48v-2.16h2.16v-.48h-2.16v-2.16Zm48-96h-.48v2.16h-2.16v.48h2.16v2.16h.48v-2.16h2.16v-.48h-2.16v-2.16Zm0,24h-.48v2.16h-2.16v.48h2.16v2.16h.48v-2.16h2.16v-.48h-2.16v-2.16Zm0,24h-.48v2.16h-2.16v.48h2.16v2.16h.48v-2.16h2.16v-.48h-2.16v-2.16Zm0,24h-.48v2.16h-2.16v.48h2.16v2.16h.48v-2.16h2.16v-.48h-2.16v-2.16Zm24-72h-.48v2.16h-2.16v.48h2.16v2.16h.48v-2.16h2.16v-.48h-2.16v-2.16Zm0,24h-.48v2.16h-2.16v.48h2.16v2.16h.48v-2.16h2.16v-.48h-2.16v-2.16Zm0,24h-.48v2.16h-2.16v.48h2.16v2.16h.48v-2.16h2.16v-.48h-2.16v-2.16Zm0,24h-.48v2.16h-2.16v.48h2.16v2.16h.48v-2.16h2.16v-.48h-2.16v-2.16Zm24-72h-.48v2.16h-2.16v.48h2.16v2.16h.48v-2.16h2.16v-.48h-2.16v-2.16Zm0,24h-.48v2.16h-2.16v.48h2.16v2.16h.48v-2.16h2.16v-.48h-2.16v-2.16Zm0,24h-.48v2.16h-2.16v.48h2.16v2.16h.48v-2.16h2.16v-.48h-2.16v-2.16Zm0,24h-.48v2.16h-2.16v.48h2.16v2.16h.48v-2.16h2.16v-.48h-2.16v-2.16Zm24-72h-.48v2.16h-2.16v.48h2.16v2.16h.48v-2.16h2.16v-.48h-2.16v-2.16Zm0,24h-.48v2.16h-2.16v.48h2.16v2.16h.48v-2.16h2.16v-.48h-2.16v-2.16Zm0,24h-.48v2.16h-2.16v.48h2.16v2.16h.48v-2.16h2.16v-.48h-2.16v-2.16Zm0,24h-.48v2.16h-2.16v.48h2.16v2.16h.48v-2.16h2.16v-.48h-2.16v-2.16Zm23.52-72v2.16h-2.16v.48h2.16v2.16h.48v-2.16h2.16v-.48h-2.16v-2.16h-.48Zm-2.16,26.64h2.16v2.16h.48v-2.16h2.16v-.48h-2.16v-2.16h-.48v2.16h-2.16v.48Zm0,24h2.16v2.16h.48v-2.16h2.16v-.48h-2.16v-2.16h-.48v2.16h-2.16v.48Zm0,24h2.16v2.16h.48v-2.16h2.16v-.48h-2.16v-2.16h-.48v2.16h-2.16v.48Zm-93.36,21.36h-.48v2.16h-2.16v.48h2.16v2.16h.48v-2.16h2.16v-.48h-2.16v-2.16Zm24,0h-.48v2.16h-2.16v.48h2.16v2.16h.48v-2.16h2.16v-.48h-2.16v-2.16Zm24,0h-.48v2.16h-2.16v.48h2.16v2.16h.48v-2.16h2.16v-.48h-2.16v-2.16Zm24,0h-.48v2.16h-2.16v.48h2.16v2.16h.48v-2.16h2.16v-.48h-2.16v-2.16Zm-192,24h-.48v2.16h-2.16v.48h2.16v2.16h.48v-2.16h2.16v-.48h-2.16v-2.16Zm0,24h-.48v2.16h-2.16v.48h2.16v2.16h.48v-2.16h2.16v-.48h-2.16v-2.16Zm0,24h-.48v2.16h-2.16v.48h2.16v2.16h.48v-2.16h2.16v-.48h-2.16v-2.16Zm0,24h-.48v2.16h-2.16v.48h2.16v2.16h.48v-2.16h2.16v-.48h-2.16v-2.16Zm24-72h-.48v2.16h-2.16v.48h2.16v2.16h.48v-2.16h2.16v-.48h-2.16v-2.16Zm0,24h-.48v2.16h-2.16v.48h2.16v2.16h.48v-2.16h2.16v-.48h-2.16v-2.16Zm0,24h-.48v2.16h-2.16v.48h2.16v2.16h.48v-2.16h2.16v-.48h-2.16v-2.16Zm0,24h-.48v2.16h-2.16v.48h2.16v2.16h.48v-2.16h2.16v-.48h-2.16v-2.16Zm24-72h-.48v2.16h-2.16v.48h2.16v2.16h.48v-2.16h2.16v-.48h-2.16v-2.16Zm0,24h-.48v2.16h-2.16v.48h2.16v2.16h.48v-2.16h2.16v-.48h-2.16v-2.16Zm0,24h-.48v2.16h-2.16v.48h2.16v2.16h.48v-2.16h2.16v-.48h-2.16v-2.16Zm0,24h-.48v2.16h-2.16v.48h2.16v2.16h.48v-2.16h2.16v-.48h-2.16v-2.16Zm24-72h-.48v2.16h-2.16v.48h2.16v2.16h.48v-2.16h2.16v-.48h-2.16v-2.16Zm0,24h-.48v2.16h-2.16v.48h2.16v2.16h.48v-2.16h2.16v-.48h-2.16v-2.16Zm0,24h-.48v2.16h-2.16v.48h2.16v2.16h.48v-2.16h2.16v-.48h-2.16v-2.16Zm0,24h-.48v2.16h-2.16v.48h2.16v2.16h.48v-2.16h2.16v-.48h-2.16v-2.16Zm23.52-72v2.16h-2.16v.48h2.16v2.16h.48v-2.16h2.16v-.48h-2.16v-2.16h-.48Zm-2.16,26.64h2.16v2.16h.48v-2.16h2.16v-.48h-2.16v-2.16h-.48v2.16h-2.16v.48Zm0,24h2.16v2.16h.48v-2.16h2.16v-.48h-2.16v-2.16h-.48v2.16h-2.16v.48Zm0,24h2.16v2.16h.48v-2.16h2.16v-.48h-2.16v-2.16h-.48v2.16h-2.16v.48Zm-93.36,21.36h-.48v2.16h-2.16v.48h2.16v2.16h.48v-2.16h2.16v-.48h-2.16v-2.16Zm24,0h-.48v2.16h-2.16v.48h2.16v2.16h.48v-2.16h2.16v-.48h-2.16v-2.16Zm24,0h-.48v2.16h-2.16v.48h2.16v2.16h.48v-2.16h2.16v-.48h-2.16v-2.16Zm24,0h-.48v2.16h-2.16v.48h2.16v2.16h.48v-2.16h2.16v-.48h-2.16v-2.16Zm48-96h-.48v2.16h-2.16v.48h2.16v2.16h.48v-2.16h2.16v-.48h-2.16v-2.16Zm0,24h-.48v2.16h-2.16v.48h2.16v2.16h.48v-2.16h2.16v-.48h-2.16v-2.16Zm0,24h-.48v2.16h-2.16v.48h2.16v2.16h.48v-2.16h2.16v-.48h-2.16v-2.16Zm0,24h-.48v2.16h-2.16v.48h2.16v2.16h.48v-2.16h2.16v-.48h-2.16v-2.16Zm24-72h-.48v2.16h-2.16v.48h2.16v2.16h.48v-2.16h2.16v-.48h-2.16v-2.16Zm0,24h-.48v2.16h-2.16v.48h2.16v2.16h.48v-2.16h2.16v-.48h-2.16v-2.16Zm0,24h-.48v2.16h-2.16v.48h2.16v2.16h.48v-2.16h2.16v-.48h-2.16v-2.16Zm0,24h-.48v2.16h-2.16v.48h2.16v2.16h.48v-2.16h2.16v-.48h-2.16v-2.16Zm24-72h-.48v2.16h-2.16v.48h2.16v2.16h.48v-2.16h2.16v-.48h-2.16v-2.16Zm0,24h-.48v2.16h-2.16v.48h2.16v2.16h.48v-2.16h2.16v-.48h-2.16v-2.16Zm0,24h-.48v2.16h-2.16v.48h2.16v2.16h.48v-2.16h2.16v-.48h-2.16v-2.16Zm0,24h-.48v2.16h-2.16v.48h2.16v2.16h.48v-2.16h2.16v-.48h-2.16v-2.16Zm24-72h-.48v2.16h-2.16v.48h2.16v2.16h.48v-2.16h2.16v-.48h-2.16v-2.16Zm0,24h-.48v2.16h-2.16v.48h2.16v2.16h.48v-2.16h2.16v-.48h-2.16v-2.16Zm0,24h-.48v2.16h-2.16v.48h2.16v2.16h.48v-2.16h2.16v-.48h-2.16v-2.16Zm0,24h-.48v2.16h-2.16v.48h2.16v2.16h.48v-2.16h2.16v-.48h-2.16v-2.16Zm23.52-72v2.16h-2.16v.48h2.16v2.16h.48v-2.16h2.16v-.48h-2.16v-2.16h-.48Zm-2.16,26.64h2.16v2.16h.48v-2.16h2.16v-.48h-2.16v-2.16h-.48v2.16h-2.16v.48Zm0,24h2.16v2.16h.48v-2.16h2.16v-.48h-2.16v-2.16h-.48v2.16h-2.16v.48Zm0,24h2.16v2.16h.48v-2.16h2.16v-.48h-2.16v-2.16h-.48v2.16h-2.16v.48Zm-93.36,21.36h-.48v2.16h-2.16v.48h2.16v2.16h.48v-2.16h2.16v-.48h-2.16v-2.16Zm24,0h-.48v2.16h-2.16v.48h2.16v2.16h.48v-2.16h2.16v-.48h-2.16v-2.16Zm24,0h-.48v2.16h-2.16v.48h2.16v2.16h.48v-2.16h2.16v-.48h-2.16v-2.16Zm24,0h-.48v2.16h-2.16v.48h2.16v2.16h.48v-2.16h2.16v-.48h-2.16v-2.16Zm-192,24h-.48v2.16h-2.16v.48h2.16v2.16h.48v-2.16h2.16v-.48h-2.16v-2.16Zm0,24h-.48v2.16h-2.16v.48h2.16v2.16h.48v-2.16h2.16v-.48h-2.16v-2.16Zm0,24h-.48v2.16h-2.16v.48h2.16v2.16h.48v-2.16h2.16v-.48h-2.16v-2.16Zm0,24h-.48v2.16h-2.16v.48h2.16v2.16h.48v-2.16h2.16v-.48h-2.16v-2.16Zm24-72h-.48v2.16h-2.16v.48h2.16v2.16h.48v-2.16h2.16v-.48h-2.16v-2.16Zm0,24h-.48v2.16h-2.16v.48h2.16v2.16h.48v-2.16h2.16v-.48h-2.16v-2.16Zm0,24h-.48v2.16h-2.16v.48h2.16v2.16h.48v-2.16h2.16v-.48h-2.16v-2.16Zm0,24h-.48v2.16h-2.16v.48h2.16v2.16h.48v-2.16h2.16v-.48h-2.16v-2.16Zm24-72h-.48v2.16h-2.16v.48h2.16v2.16h.48v-2.16h2.16v-.48h-2.16v-2.16Zm0,24h-.48v2.16h-2.16v.48h2.16v2.16h.48v-2.16h2.16v-.48h-2.16v-2.16Zm0,24h-.48v2.16h-2.16v.48h2.16v2.16h.48v-2.16h2.16v-.48h-2.16v-2.16Zm0,24h-.48v2.16h-2.16v.48h2.16v2.16h.48v-2.16h2.16v-.48h-2.16v-2.16Zm24-72h-.48v2.16h-2.16v.48h2.16v2.16h.48v-2.16h2.16v-.48h-2.16v-2.16Zm0,24h-.48v2.16h-2.16v.48h2.16v2.16h.48v-2.16h2.16v-.48h-2.16v-2.16Zm0,24h-.48v2.16h-2.16v.48h2.16v2.16h.48v-2.16h2.16v-.48h-2.16v-2.16Zm0,24h-.48v2.16h-2.16v.48h2.16v2.16h.48v-2.16h2.16v-.48h-2.16v-2.16Zm23.52-72v2.16h-2.16v.48h2.16v2.16h.48v-2.16h2.16v-.48h-2.16v-2.16h-.48Zm-2.16,26.64h2.16v2.16h.48v-2.16h2.16v-.48h-2.16v-2.16h-.48v2.16h-2.16v.48Zm0,24h2.16v2.16h.48v-2.16h2.16v-.48h-2.16v-2.16h-.48v2.16h-2.16v.48Zm0,24h2.16v2.16h.48v-2.16h2.16v-.48h-2.16v-2.16h-.48v2.16h-2.16v.48Zm-93.36,21.36h-.48v2.16h-2.16v.48h2.16v2.16h.48v-2.16h2.16v-.48h-2.16v-2.16Zm24,0h-.48v2.16h-2.16v.48h2.16v2.16h.48v-2.16h2.16v-.48h-2.16v-2.16Zm24,0h-.48v2.16h-2.16v.48h2.16v2.16h.48v-2.16h2.16v-.48h-2.16v-2.16Zm24,0h-.48v2.16h-2.16v.48h2.16v2.16h.48v-2.16h2.16v-.48h-2.16v-2.16Zm48-96h-.48v2.16h-2.16v.48h2.16v2.16h.48v-2.16h2.16v-.48h-2.16v-2.16Zm0,24h-.48v2.16h-2.16v.48h2.16v2.16h.48v-2.16h2.16v-.48h-2.16v-2.16Zm0,24h-.48v2.16h-2.16v.48h2.16v2.16h.48v-2.16h2.16v-.48h-2.16v-2.16Zm0,24h-.48v2.16h-2.16v.48h2.16v2.16h.48v-2.16h2.16v-.48h-2.16v-2.16Zm24-72h-.48v2.16h-2.16v.48h2.16v2.16h.48v-2.16h2.16v-.48h-2.16v-2.16Zm0,24h-.48v2.16h-2.16v.48h2.16v2.16h.48v-2.16h2.16v-.48h-2.16v-2.16Zm0,24h-.48v2.16h-2.16v.48h2.16v2.16h.48v-2.16h2.16v-.48h-2.16v-2.16Zm0,24h-.48v2.16h-2.16v.48h2.16v2.16h.48v-2.16h2.16v-.48h-2.16v-2.16Zm24-72h-.48v2.16h-2.16v.48h2.16v2.16h.48v-2.16h2.16v-.48h-2.16v-2.16Zm0,24h-.48v2.16h-2.16v.48h2.16v2.16h.48v-2.16h2.16v-.48h-2.16v-2.16Zm0,24h-.48v2.16h-2.16v.48h2.16v2.16h.48v-2.16h2.16v-.48h-2.16v-2.16Zm0,24h-.48v2.16h-2.16v.48h2.16v2.16h.48v-2.16h2.16v-.48h-2.16v-2.16Zm24-72h-.48v2.16h-2.16v.48h2.16v2.16h.48v-2.16h2.16v-.48h-2.16v-2.16Zm0,24h-.48v2.16h-2.16v.48h2.16v2.16h.48v-2.16h2.16v-.48h-2.16v-2.16Zm0,24h-.48v2.16h-2.16v.48h2.16v2.16h.48v-2.16h2.16v-.48h-2.16v-2.16Zm0,24h-.48v2.16h-2.16v.48h2.16v2.16h.48v-2.16h2.16v-.48h-2.16v-2.16Zm23.52-72v2.16h-2.16v.48h2.16v2.16h.48v-2.16h2.16v-.48h-2.16v-2.16h-.48Zm-2.16,26.64h2.16v2.16h.48v-2.16h2.16v-.48h-2.16v-2.16h-.48v2.16h-2.16v.48Zm0,24h2.16v2.16h.48v-2.16h2.16v-.48h-2.16v-2.16h-.48v2.16h-2.16v.48Zm0,24h2.16v2.16h.48v-2.16h2.16v-.48h-2.16v-2.16h-.48v2.16h-2.16v.48Zm-93.36,21.36h-.48v2.16h-2.16v.48h2.16v2.16h.48v-2.16h2.16v-.48h-2.16v-2.16Zm24,0h-.48v2.16h-2.16v.48h2.16v2.16h.48v-2.16h2.16v-.48h-2.16v-2.16Zm24,0h-.48v2.16h-2.16v.48h2.16v2.16h.48v-2.16h2.16v-.48h-2.16v-2.16Zm24,0h-.48v2.16h-2.16v.48h2.16v2.16h.48v-2.16h2.16v-.48h-2.16v-2.16ZM749.04,26.4h-.48v2.16h-2.16v.48h2.16v2.16h.48v-2.16h2.16v-.48h-2.16v-2.16Zm0,24h-.48v2.16h-2.16v.48h2.16v2.16h.48v-2.16h2.16v-.48h-2.16v-2.16Zm0,24h-.48v2.16h-2.16v.48h2.16v2.16h.48v-2.16h2.16v-.48h-2.16v-2.16Zm0,24h-.48v2.16h-2.16v.48h2.16v2.16h.48v-2.16h2.16v-.48h-2.16v-2.16Zm24-72h-.48v2.16h-2.16v.48h2.16v2.16h.48v-2.16h2.16v-.48h-2.16v-2.16Zm0,24h-.48v2.16h-2.16v.48h2.16v2.16h.48v-2.16h2.16v-.48h-2.16v-2.16Zm0,24h-.48v2.16h-2.16v.48h2.16v2.16h.48v-2.16h2.16v-.48h-2.16v-2.16Zm0,24h-.48v2.16h-2.16v.48h2.16v2.16h.48v-2.16h2.16v-.48h-2.16v-2.16Zm24-72h-.48v2.16h-2.16v.48h2.16v2.16h.48v-2.16h2.16v-.48h-2.16v-2.16Zm0,24h-.48v2.16h-2.16v.48h2.16v2.16h.48v-2.16h2.16v-.48h-2.16v-2.16Zm0,24h-.48v2.16h-2.16v.48h2.16v2.16h.48v-2.16h2.16v-.48h-2.16v-2.16Zm0,24h-.48v2.16h-2.16v.48h2.16v2.16h.48v-2.16h2.16v-.48h-2.16v-2.16Zm24-72h-.48v2.16h-2.16v.48h2.16v2.16h.48v-2.16h2.16v-.48h-2.16v-2.16Zm0,24h-.48v2.16h-2.16v.48h2.16v2.16h.48v-2.16h2.16v-.48h-2.16v-2.16Zm0,24h-.48v2.16h-2.16v.48h2.16v2.16h.48v-2.16h2.16v-.48h-2.16v-2.16Zm0,24h-.48v2.16h-2.16v.48h2.16v2.16h.48v-2.16h2.16v-.48h-2.16v-2.16Zm23.52-72v2.16h-2.16v.48h2.16v2.16h.48v-2.16h2.16v-.48h-2.16v-2.16h-.48Zm-2.16,26.64h2.16v2.16h.48v-2.16h2.16v-.48h-2.16v-2.16h-.48v2.16h-2.16v.48Zm0,24h2.16v2.16h.48v-2.16h2.16v-.48h-2.16v-2.16h-.48v2.16h-2.16v.48Zm0,24h2.16v2.16h.48v-2.16h2.16v-.48h-2.16v-2.16h-.48v2.16h-2.16v.48ZM749.04,2.4h-.48v2.16h-2.16v.48h2.16v2.16h.48v-2.16h2.16v-.48h-2.16v-2.16Zm24,0h-.48v2.16h-2.16v.48h2.16v2.16h.48v-2.16h2.16v-.48h-2.16v-2.16Zm24,0h-.48v2.16h-2.16v.48h2.16v2.16h.48v-2.16h2.16v-.48h-2.16v-2.16Zm24,0h-.48v2.16h-2.16v.48h2.16v2.16h.48v-2.16h2.16v-.48h-2.16v-2.16Zm-72,120h-.48v2.16h-2.16v.48h2.16v2.16h.48v-2.16h2.16v-.48h-2.16v-2.16Zm24,0h-.48v2.16h-2.16v.48h2.16v2.16h.48v-2.16h2.16v-.48h-2.16v-2.16Zm24,0h-.48v2.16h-2.16v.48h2.16v2.16h.48v-2.16h2.16v-.48h-2.16v-2.16Zm24,0h-.48v2.16h-2.16v.48h2.16v2.16h.48v-2.16h2.16v-.48h-2.16v-2.16Zm48-96h-.48v2.16h-2.16v.48h2.16v2.16h.48v-2.16h2.16v-.48h-2.16v-2.16Zm0,24h-.48v2.16h-2.16v.48h2.16v2.16h.48v-2.16h2.16v-.48h-2.16v-2.16Zm0,24h-.48v2.16h-2.16v.48h2.16v2.16h.48v-2.16h2.16v-.48h-2.16v-2.16Zm0,24h-.48v2.16h-2.16v.48h2.16v2.16h.48v-2.16h2.16v-.48h-2.16v-2.16Zm24-72h-.48v2.16h-2.16v.48h2.16v2.16h.48v-2.16h2.16v-.48h-2.16v-2.16Zm0,24h-.48v2.16h-2.16v.48h2.16v2.16h.48v-2.16h2.16v-.48h-2.16v-2.16Zm0,24h-.48v2.16h-2.16v.48h2.16v2.16h.48v-2.16h2.16v-.48h-2.16v-2.16Zm0,24h-.48v2.16h-2.16v.48h2.16v2.16h.48v-2.16h2.16v-.48h-2.16v-2.16Zm24-72h-.48v2.16h-2.16v.48h2.16v2.16h.48v-2.16h2.16v-.48h-2.16v-2.16Zm0,24h-.48v2.16h-2.16v.48h2.16v2.16h.48v-2.16h2.16v-.48h-2.16v-2.16Zm0,24h-.48v2.16h-2.16v.48h2.16v2.16h.48v-2.16h2.16v-.48h-2.16v-2.16Zm0,24h-.48v2.16h-2.16v.48h2.16v2.16h.48v-2.16h2.16v-.48h-2.16v-2.16Zm24-72h-.48v2.16h-2.16v.48h2.16v2.16h.48v-2.16h2.16v-.48h-2.16v-2.16Zm0,24h-.48v2.16h-2.16v.48h2.16v2.16h.48v-2.16h2.16v-.48h-2.16v-2.16Zm0,24h-.48v2.16h-2.16v.48h2.16v2.16h.48v-2.16h2.16v-.48h-2.16v-2.16Zm0,24h-.48v2.16h-2.16v.48h2.16v2.16h.48v-2.16h2.16v-.48h-2.16v-2.16Zm23.52-72v2.16h-2.16v.48h2.16v2.16h.48v-2.16h2.16v-.48h-2.16v-2.16h-.48Zm-2.16,26.64h2.16v2.16h.48v-2.16h2.16v-.48h-2.16v-2.16h-.48v2.16h-2.16v.48Zm0,24h2.16v2.16h.48v-2.16h2.16v-.48h-2.16v-2.16h-.48v2.16h-2.16v.48Zm0,24h2.16v2.16h.48v-2.16h2.16v-.48h-2.16v-2.16h-.48v2.16h-2.16v.48ZM869.04,2.4h-.48v2.16h-2.16v.48h2.16v2.16h.48v-2.16h2.16v-.48h-2.16v-2.16Zm24,0h-.48v2.16h-2.16v.48h2.16v2.16h.48v-2.16h2.16v-.48h-2.16v-2.16Zm24,0h-.48v2.16h-2.16v.48h2.16v2.16h.48v-2.16h2.16v-.48h-2.16v-2.16Zm24,0h-.48v2.16h-2.16v.48h2.16v2.16h.48v-2.16h2.16v-.48h-2.16v-2.16Zm-72,120h-.48v2.16h-2.16v.48h2.16v2.16h.48v-2.16h2.16v-.48h-2.16v-2.16Zm24,0h-.48v2.16h-2.16v.48h2.16v2.16h.48v-2.16h2.16v-.48h-2.16v-2.16Zm24,0h-.48v2.16h-2.16v.48h2.16v2.16h.48v-2.16h2.16v-.48h-2.16v-2.16Zm24,0h-.48v2.16h-2.16v.48h2.16v2.16h.48v-2.16h2.16v-.48h-2.16v-2.16Zm-192,24h-.48v2.16h-2.16v.48h2.16v2.16h.48v-2.16h2.16v-.48h-2.16v-2.16Zm0,24h-.48v2.16h-2.16v.48h2.16v2.16h.48v-2.16h2.16v-.48h-2.16v-2.16Zm0,24h-.48v2.16h-2.16v.48h2.16v2.16h.48v-2.16h2.16v-.48h-2.16v-2.16Zm0,24h-.48v2.16h-2.16v.48h2.16v2.16h.48v-2.16h2.16v-.48h-2.16v-2.16Zm24-72h-.48v2.16h-2.16v.48h2.16v2.16h.48v-2.16h2.16v-.48h-2.16v-2.16Zm0,24h-.48v2.16h-2.16v.48h2.16v2.16h.48v-2.16h2.16v-.48h-2.16v-2.16Zm0,24h-.48v2.16h-2.16v.48h2.16v2.16h.48v-2.16h2.16v-.48h-2.16v-2.16Zm0,24h-.48v2.16h-2.16v.48h2.16v2.16h.48v-2.16h2.16v-.48h-2.16v-2.16Zm24-72h-.48v2.16h-2.16v.48h2.16v2.16h.48v-2.16h2.16v-.48h-2.16v-2.16Zm0,24h-.48v2.16h-2.16v.48h2.16v2.16h.48v-2.16h2.16v-.48h-2.16v-2.16Zm0,24h-.48v2.16h-2.16v.48h2.16v2.16h.48v-2.16h2.16v-.48h-2.16v-2.16Zm0,24h-.48v2.16h-2.16v.48h2.16v2.16h.48v-2.16h2.16v-.48h-2.16v-2.16Zm24-72h-.48v2.16h-2.16v.48h2.16v2.16h.48v-2.16h2.16v-.48h-2.16v-2.16Zm0,24h-.48v2.16h-2.16v.48h2.16v2.16h.48v-2.16h2.16v-.48h-2.16v-2.16Zm0,24h-.48v2.16h-2.16v.48h2.16v2.16h.48v-2.16h2.16v-.48h-2.16v-2.16Zm0,24h-.48v2.16h-2.16v.48h2.16v2.16h.48v-2.16h2.16v-.48h-2.16v-2.16Zm23.52-72v2.16h-2.16v.48h2.16v2.16h.48v-2.16h2.16v-.48h-2.16v-2.16h-.48Zm-2.16,26.64h2.16v2.16h.48v-2.16h2.16v-.48h-2.16v-2.16h-.48v2.16h-2.16v.48Zm0,24h2.16v2.16h.48v-2.16h2.16v-.48h-2.16v-2.16h-.48v2.16h-2.16v.48Zm0,24h2.16v2.16h.48v-2.16h2.16v-.48h-2.16v-2.16h-.48v2.16h-2.16v.48Zm-93.36,21.36h-.48v2.16h-2.16v.48h2.16v2.16h.48v-2.16h2.16v-.48h-2.16v-2.16Zm24,0h-.48v2.16h-2.16v.48h2.16v2.16h.48v-2.16h2.16v-.48h-2.16v-2.16Zm24,0h-.48v2.16h-2.16v.48h2.16v2.16h.48v-2.16h2.16v-.48h-2.16v-2.16Zm24,0h-.48v2.16h-2.16v.48h2.16v2.16h.48v-2.16h2.16v-.48h-2.16v-2.16Zm48-96h-.48v2.16h-2.16v.48h2.16v2.16h.48v-2.16h2.16v-.48h-2.16v-2.16Zm0,24h-.48v2.16h-2.16v.48h2.16v2.16h.48v-2.16h2.16v-.48h-2.16v-2.16Zm0,24h-.48v2.16h-2.16v.48h2.16v2.16h.48v-2.16h2.16v-.48h-2.16v-2.16Zm0,24h-.48v2.16h-2.16v.48h2.16v2.16h.48v-2.16h2.16v-.48h-2.16v-2.16Zm24-72h-.48v2.16h-2.16v.48h2.16v2.16h.48v-2.16h2.16v-.48h-2.16v-2.16Zm0,24h-.48v2.16h-2.16v.48h2.16v2.16h.48v-2.16h2.16v-.48h-2.16v-2.16Zm0,24h-.48v2.16h-2.16v.48h2.16v2.16h.48v-2.16h2.16v-.48h-2.16v-2.16Zm0,24h-.48v2.16h-2.16v.48h2.16v2.16h.48v-2.16h2.16v-.48h-2.16v-2.16Zm24-72h-.48v2.16h-2.16v.48h2.16v2.16h.48v-2.16h2.16v-.48h-2.16v-2.16Zm0,24h-.48v2.16h-2.16v.48h2.16v2.16h.48v-2.16h2.16v-.48h-2.16v-2.16Zm0,24h-.48v2.16h-2.16v.48h2.16v2.16h.48v-2.16h2.16v-.48h-2.16v-2.16Zm0,24h-.48v2.16h-2.16v.48h2.16v2.16h.48v-2.16h2.16v-.48h-2.16v-2.16Zm24-72h-.48v2.16h-2.16v.48h2.16v2.16h.48v-2.16h2.16v-.48h-2.16v-2.16Zm0,24h-.48v2.16h-2.16v.48h2.16v2.16h.48v-2.16h2.16v-.48h-2.16v-2.16Zm0,24h-.48v2.16h-2.16v.48h2.16v2.16h.48v-2.16h2.16v-.48h-2.16v-2.16Zm0,24h-.48v2.16h-2.16v.48h2.16v2.16h.48v-2.16h2.16v-.48h-2.16v-2.16Zm23.52-72v2.16h-2.16v.48h2.16v2.16h.48v-2.16h2.16v-.48h-2.16v-2.16h-.48Zm-2.16,26.64h2.16v2.16h.48v-2.16h2.16v-.48h-2.16v-2.16h-.48v2.16h-2.16v.48Zm0,24h2.16v2.16h.48v-2.16h2.16v-.48h-2.16v-2.16h-.48v2.16h-2.16v.48Zm0,24h2.16v2.16h.48v-2.16h2.16v-.48h-2.16v-2.16h-.48v2.16h-2.16v.48Zm-93.36,21.36h-.48v2.16h-2.16v.48h2.16v2.16h.48v-2.16h2.16v-.48h-2.16v-2.16Zm24,0h-.48v2.16h-2.16v.48h2.16v2.16h.48v-2.16h2.16v-.48h-2.16v-2.16Zm24,0h-.48v2.16h-2.16v.48h2.16v2.16h.48v-2.16h2.16v-.48h-2.16v-2.16Zm24,0h-.48v2.16h-2.16v.48h2.16v2.16h.48v-2.16h2.16v-.48h-2.16v-2.16Zm-192,24h-.48v2.16h-2.16v.48h2.16v2.16h.48v-2.16h2.16v-.48h-2.16v-2.16Zm0,24h-.48v2.16h-2.16v.48h2.16v2.16h.48v-2.16h2.16v-.48h-2.16v-2.16Zm0,24h-.48v2.16h-2.16v.48h2.16v2.16h.48v-2.16h2.16v-.48h-2.16v-2.16Zm0,24h-.48v2.16h-2.16v.48h2.16v2.16h.48v-2.16h2.16v-.48h-2.16v-2.16Zm24-72h-.48v2.16h-2.16v.48h2.16v2.16h.48v-2.16h2.16v-.48h-2.16v-2.16Zm0,24h-.48v2.16h-2.16v.48h2.16v2.16h.48v-2.16h2.16v-.48h-2.16v-2.16Zm0,24h-.48v2.16h-2.16v.48h2.16v2.16h.48v-2.16h2.16v-.48h-2.16v-2.16Zm0,24h-.48v2.16h-2.16v.48h2.16v2.16h.48v-2.16h2.16v-.48h-2.16v-2.16Zm24-72h-.48v2.16h-2.16v.48h2.16v2.16h.48v-2.16h2.16v-.48h-2.16v-2.16Zm0,24h-.48v2.16h-2.16v.48h2.16v2.16h.48v-2.16h2.16v-.48h-2.16v-2.16Zm0,24h-.48v2.16h-2.16v.48h2.16v2.16h.48v-2.16h2.16v-.48h-2.16v-2.16Zm0,24h-.48v2.16h-2.16v.48h2.16v2.16h.48v-2.16h2.16v-.48h-2.16v-2.16Zm24-72h-.48v2.16h-2.16v.48h2.16v2.16h.48v-2.16h2.16v-.48h-2.16v-2.16Zm0,24h-.48v2.16h-2.16v.48h2.16v2.16h.48v-2.16h2.16v-.48h-2.16v-2.16Zm0,24h-.48v2.16h-2.16v.48h2.16v2.16h.48v-2.16h2.16v-.48h-2.16v-2.16Zm0,24h-.48v2.16h-2.16v.48h2.16v2.16h.48v-2.16h2.16v-.48h-2.16v-2.16Zm23.52-72v2.16h-2.16v.48h2.16v2.16h.48v-2.16h2.16v-.48h-2.16v-2.16h-.48Zm-2.16,26.64h2.16v2.16h.48v-2.16h2.16v-.48h-2.16v-2.16h-.48v2.16h-2.16v.48Zm0,24h2.16v2.16h.48v-2.16h2.16v-.48h-2.16v-2.16h-.48v2.16h-2.16v.48Zm0,24h2.16v2.16h.48v-2.16h2.16v-.48h-2.16v-2.16h-.48v2.16h-2.16v.48Zm-93.36,21.36h-.48v2.16h-2.16v.48h2.16v2.16h.48v-2.16h2.16v-.48h-2.16v-2.16Zm24,0h-.48v2.16h-2.16v.48h2.16v2.16h.48v-2.16h2.16v-.48h-2.16v-2.16Zm24,0h-.48v2.16h-2.16v.48h2.16v2.16h.48v-2.16h2.16v-.48h-2.16v-2.16Zm24,0h-.48v2.16h-2.16v.48h2.16v2.16h.48v-2.16h2.16v-.48h-2.16v-2.16Zm48-96h-.48v2.16h-2.16v.48h2.16v2.16h.48v-2.16h2.16v-.48h-2.16v-2.16Zm0,24h-.48v2.16h-2.16v.48h2.16v2.16h.48v-2.16h2.16v-.48h-2.16v-2.16Zm0,24h-.48v2.16h-2.16v.48h2.16v2.16h.48v-2.16h2.16v-.48h-2.16v-2.16Zm0,24h-.48v2.16h-2.16v.48h2.16v2.16h.48v-2.16h2.16v-.48h-2.16v-2.16Zm24-72h-.48v2.16h-2.16v.48h2.16v2.16h.48v-2.16h2.16v-.48h-2.16v-2.16Zm0,24h-.48v2.16h-2.16v.48h2.16v2.16h.48v-2.16h2.16v-.48h-2.16v-2.16Zm0,24h-.48v2.16h-2.16v.48h2.16v2.16h.48v-2.16h2.16v-.48h-2.16v-2.16Zm0,24h-.48v2.16h-2.16v.48h2.16v2.16h.48v-2.16h2.16v-.48h-2.16v-2.16Zm24-72h-.48v2.16h-2.16v.48h2.16v2.16h.48v-2.16h2.16v-.48h-2.16v-2.16Zm0,24h-.48v2.16h-2.16v.48h2.16v2.16h.48v-2.16h2.16v-.48h-2.16v-2.16Zm0,24h-.48v2.16h-2.16v.48h2.16v2.16h.48v-2.16h2.16v-.48h-2.16v-2.16Zm0,24h-.48v2.16h-2.16v.48h2.16v2.16h.48v-2.16h2.16v-.48h-2.16v-2.16Zm24-72h-.48v2.16h-2.16v.48h2.16v2.16h.48v-2.16h2.16v-.48h-2.16v-2.16Zm0,24h-.48v2.16h-2.16v.48h2.16v2.16h.48v-2.16h2.16v-.48h-2.16v-2.16Zm0,24h-.48v2.16h-2.16v.48h2.16v2.16h.48v-2.16h2.16v-.48h-2.16v-2.16Zm0,24h-.48v2.16h-2.16v.48h2.16v2.16h.48v-2.16h2.16v-.48h-2.16v-2.16Zm23.52-72v2.16h-2.16v.48h2.16v2.16h.48v-2.16h2.16v-.48h-2.16v-2.16h-.48Zm-2.16,26.64h2.16v2.16h.48v-2.16h2.16v-.48h-2.16v-2.16h-.48v2.16h-2.16v.48Zm0,24h2.16v2.16h.48v-2.16h2.16v-.48h-2.16v-2.16h-.48v2.16h-2.16v.48Zm0,24h2.16v2.16h.48v-2.16h2.16v-.48h-2.16v-2.16h-.48v2.16h-2.16v.48Zm-93.36,21.36h-.48v2.16h-2.16v.48h2.16v2.16h.48v-2.16h2.16v-.48h-2.16v-2.16Zm24,0h-.48v2.16h-2.16v.48h2.16v2.16h.48v-2.16h2.16v-.48h-2.16v-2.16Zm24,0h-.48v2.16h-2.16v.48h2.16v2.16h.48v-2.16h2.16v-.48h-2.16v-2.16Zm24,0h-.48v2.16h-2.16v.48h2.16v2.16h.48v-2.16h2.16v-.48h-2.16v-2.16Zm-192,24h-.48v2.16h-2.16v.48h2.16v2.16h.48v-2.16h2.16v-.48h-2.16v-2.16Zm0,24h-.48v2.16h-2.16v.48h2.16v2.16h.48v-2.16h2.16v-.48h-2.16v-2.16Zm0,24h-.48v2.16h-2.16v.48h2.16v2.16h.48v-2.16h2.16v-.48h-2.16v-2.16Zm0,24h-.48v2.16h-2.16v.48h2.16v2.16h.48v-2.16h2.16v-.48h-2.16v-2.16Zm24-72h-.48v2.16h-2.16v.48h2.16v2.16h.48v-2.16h2.16v-.48h-2.16v-2.16Zm0,24h-.48v2.16h-2.16v.48h2.16v2.16h.48v-2.16h2.16v-.48h-2.16v-2.16Zm0,24h-.48v2.16h-2.16v.48h2.16v2.16h.48v-2.16h2.16v-.48h-2.16v-2.16Zm0,24h-.48v2.16h-2.16v.48h2.16v2.16h.48v-2.16h2.16v-.48h-2.16v-2.16Zm24-72h-.48v2.16h-2.16v.48h2.16v2.16h.48v-2.16h2.16v-.48h-2.16v-2.16Zm0,24h-.48v2.16h-2.16v.48h2.16v2.16h.48v-2.16h2.16v-.48h-2.16v-2.16Zm0,24h-.48v2.16h-2.16v.48h2.16v2.16h.48v-2.16h2.16v-.48h-2.16v-2.16Zm0,24h-.48v2.16h-2.16v.48h2.16v2.16h.48v-2.16h2.16v-.48h-2.16v-2.16Zm24-72h-.48v2.16h-2.16v.48h2.16v2.16h.48v-2.16h2.16v-.48h-2.16v-2.16Zm0,24h-.48v2.16h-2.16v.48h2.16v2.16h.48v-2.16h2.16v-.48h-2.16v-2.16Zm0,24h-.48v2.16h-2.16v.48h2.16v2.16h.48v-2.16h2.16v-.48h-2.16v-2.16Zm0,24h-.48v2.16h-2.16v.48h2.16v2.16h.48v-2.16h2.16v-.48h-2.16v-2.16Zm23.52-72v2.16h-2.16v.48h2.16v2.16h.48v-2.16h2.16v-.48h-2.16v-2.16h-.48Zm-2.16,26.64h2.16v2.16h.48v-2.16h2.16v-.48h-2.16v-2.16h-.48v2.16h-2.16v.48Zm0,24h2.16v2.16h.48v-2.16h2.16v-.48h-2.16v-2.16h-.48v2.16h-2.16v.48Zm0,24h2.16v2.16h.48v-2.16h2.16v-.48h-2.16v-2.16h-.48v2.16h-2.16v.48Zm-93.36,21.36h-.48v2.16h-2.16v.48h2.16v2.16h.48v-2.16h2.16v-.48h-2.16v-2.16Zm24,0h-.48v2.16h-2.16v.48h2.16v2.16h.48v-2.16h2.16v-.48h-2.16v-2.16Zm24,0h-.48v2.16h-2.16v.48h2.16v2.16h.48v-2.16h2.16v-.48h-2.16v-2.16Zm24,0h-.48v2.16h-2.16v.48h2.16v2.16h.48v-2.16h2.16v-.48h-2.16v-2.16Zm48-96h-.48v2.16h-2.16v.48h2.16v2.16h.48v-2.16h2.16v-.48h-2.16v-2.16Zm0,24h-.48v2.16h-2.16v.48h2.16v2.16h.48v-2.16h2.16v-.48h-2.16v-2.16Zm0,24h-.48v2.16h-2.16v.48h2.16v2.16h.48v-2.16h2.16v-.48h-2.16v-2.16Zm0,24h-.48v2.16h-2.16v.48h2.16v2.16h.48v-2.16h2.16v-.48h-2.16v-2.16Zm24-72h-.48v2.16h-2.16v.48h2.16v2.16h.48v-2.16h2.16v-.48h-2.16v-2.16Zm0,24h-.48v2.16h-2.16v.48h2.16v2.16h.48v-2.16h2.16v-.48h-2.16v-2.16Zm0,24h-.48v2.16h-2.16v.48h2.16v2.16h.48v-2.16h2.16v-.48h-2.16v-2.16Zm0,24h-.48v2.16h-2.16v.48h2.16v2.16h.48v-2.16h2.16v-.48h-2.16v-2.16Zm24-72h-.48v2.16h-2.16v.48h2.16v2.16h.48v-2.16h2.16v-.48h-2.16v-2.16Zm0,24h-.48v2.16h-2.16v.48h2.16v2.16h.48v-2.16h2.16v-.48h-2.16v-2.16Zm0,24h-.48v2.16h-2.16v.48h2.16v2.16h.48v-2.16h2.16v-.48h-2.16v-2.16Zm0,24h-.48v2.16h-2.16v.48h2.16v2.16h.48v-2.16h2.16v-.48h-2.16v-2.16Zm24-72h-.48v2.16h-2.16v.48h2.16v2.16h.48v-2.16h2.16v-.48h-2.16v-2.16Zm0,24h-.48v2.16h-2.16v.48h2.16v2.16h.48v-2.16h2.16v-.48h-2.16v-2.16Zm0,24h-.48v2.16h-2.16v.48h2.16v2.16h.48v-2.16h2.16v-.48h-2.16v-2.16Zm0,24h-.48v2.16h-2.16v.48h2.16v2.16h.48v-2.16h2.16v-.48h-2.16v-2.16Zm23.52-72v2.16h-2.16v.48h2.16v2.16h.48v-2.16h2.16v-.48h-2.16v-2.16h-.48Zm-2.16,26.64h2.16v2.16h.48v-2.16h2.16v-.48h-2.16v-2.16h-.48v2.16h-2.16v.48Zm0,24h2.16v2.16h.48v-2.16h2.16v-.48h-2.16v-2.16h-.48v2.16h-2.16v.48Zm0,24h2.16v2.16h.48v-2.16h2.16v-.48h-2.16v-2.16h-.48v2.16h-2.16v.48Zm-93.36,21.36h-.48v2.16h-2.16v.48h2.16v2.16h.48v-2.16h2.16v-.48h-2.16v-2.16Zm24,0h-.48v2.16h-2.16v.48h2.16v2.16h.48v-2.16h2.16v-.48h-2.16v-2.16Zm24,0h-.48v2.16h-2.16v.48h2.16v2.16h.48v-2.16h2.16v-.48h-2.16v-2.16Zm24,0h-.48v2.16h-2.16v.48h2.16v2.16h.48v-2.16h2.16v-.48h-2.16v-2.16Zm-192,24h-.48v2.16h-2.16v.48h2.16v2.16h.48v-2.16h2.16v-.48h-2.16v-2.16Zm0,24h-.48v2.16h-2.16v.48h2.16v2.16h.48v-2.16h2.16v-.48h-2.16v-2.16Zm0,24h-.48v2.16h-2.16v.48h2.16v2.16h.48v-2.16h2.16v-.48h-2.16v-2.16Zm0,24h-.48v2.16h-2.16v.48h2.16v2.16h.48v-2.16h2.16v-.48h-2.16v-2.16Zm24-72h-.48v2.16h-2.16v.48h2.16v2.16h.48v-2.16h2.16v-.48h-2.16v-2.16Zm0,24h-.48v2.16h-2.16v.48h2.16v2.16h.48v-2.16h2.16v-.48h-2.16v-2.16Zm0,24h-.48v2.16h-2.16v.48h2.16v2.16h.48v-2.16h2.16v-.48h-2.16v-2.16Zm0,24h-.48v2.16h-2.16v.48h2.16v2.16h.48v-2.16h2.16v-.48h-2.16v-2.16Zm24-72h-.48v2.16h-2.16v.48h2.16v2.16h.48v-2.16h2.16v-.48h-2.16v-2.16Zm0,24h-.48v2.16h-2.16v.48h2.16v2.16h.48v-2.16h2.16v-.48h-2.16v-2.16Zm0,24h-.48v2.16h-2.16v.48h2.16v2.16h.48v-2.16h2.16v-.48h-2.16v-2.16Zm0,24h-.48v2.16h-2.16v.48h2.16v2.16h.48v-2.16h2.16v-.48h-2.16v-2.16Zm24-72h-.48v2.16h-2.16v.48h2.16v2.16h.48v-2.16h2.16v-.48h-2.16v-2.16Zm0,24h-.48v2.16h-2.16v.48h2.16v2.16h.48v-2.16h2.16v-.48h-2.16v-2.16Zm0,24h-.48v2.16h-2.16v.48h2.16v2.16h.48v-2.16h2.16v-.48h-2.16v-2.16Zm0,24h-.48v2.16h-2.16v.48h2.16v2.16h.48v-2.16h2.16v-.48h-2.16v-2.16Zm23.52-72v2.16h-2.16v.48h2.16v2.16h.48v-2.16h2.16v-.48h-2.16v-2.16h-.48Zm-2.16,26.64h2.16v2.16h.48v-2.16h2.16v-.48h-2.16v-2.16h-.48v2.16h-2.16v.48Zm0,24h2.16v2.16h.48v-2.16h2.16v-.48h-2.16v-2.16h-.48v2.16h-2.16v.48Zm0,24h2.16v2.16h.48v-2.16h2.16v-.48h-2.16v-2.16h-.48v2.16h-2.16v.48Zm-93.36,21.36h-.48v2.16h-2.16v.48h2.16v2.16h.48v-2.16h2.16v-.48h-2.16v-2.16Zm24,0h-.48v2.16h-2.16v.48h2.16v2.16h.48v-2.16h2.16v-.48h-2.16v-2.16Zm24,0h-.48v2.16h-2.16v.48h2.16v2.16h.48v-2.16h2.16v-.48h-2.16v-2.16Zm24,0h-.48v2.16h-2.16v.48h2.16v2.16h.48v-2.16h2.16v-.48h-2.16v-2.16Zm48-96h-.48v2.16h-2.16v.48h2.16v2.16h.48v-2.16h2.16v-.48h-2.16v-2.16Zm0,24h-.48v2.16h-2.16v.48h2.16v2.16h.48v-2.16h2.16v-.48h-2.16v-2.16Zm0,24h-.48v2.16h-2.16v.48h2.16v2.16h.48v-2.16h2.16v-.48h-2.16v-2.16Zm0,24h-.48v2.16h-2.16v.48h2.16v2.16h.48v-2.16h2.16v-.48h-2.16v-2.16Zm24-72h-.48v2.16h-2.16v.48h2.16v2.16h.48v-2.16h2.16v-.48h-2.16v-2.16Zm0,24h-.48v2.16h-2.16v.48h2.16v2.16h.48v-2.16h2.16v-.48h-2.16v-2.16Zm0,24h-.48v2.16h-2.16v.48h2.16v2.16h.48v-2.16h2.16v-.48h-2.16v-2.16Zm0,24h-.48v2.16h-2.16v.48h2.16v2.16h.48v-2.16h2.16v-.48h-2.16v-2.16Zm24-72h-.48v2.16h-2.16v.48h2.16v2.16h.48v-2.16h2.16v-.48h-2.16v-2.16Zm0,24h-.48v2.16h-2.16v.48h2.16v2.16h.48v-2.16h2.16v-.48h-2.16v-2.16Zm0,24h-.48v2.16h-2.16v.48h2.16v2.16h.48v-2.16h2.16v-.48h-2.16v-2.16Zm0,24h-.48v2.16h-2.16v.48h2.16v2.16h.48v-2.16h2.16v-.48h-2.16v-2.16Zm24-72h-.48v2.16h-2.16v.48h2.16v2.16h.48v-2.16h2.16v-.48h-2.16v-2.16Zm0,24h-.48v2.16h-2.16v.48h2.16v2.16h.48v-2.16h2.16v-.48h-2.16v-2.16Zm0,24h-.48v2.16h-2.16v.48h2.16v2.16h.48v-2.16h2.16v-.48h-2.16v-2.16Zm0,24h-.48v2.16h-2.16v.48h2.16v2.16h.48v-2.16h2.16v-.48h-2.16v-2.16Zm23.52-72v2.16h-2.16v.48h2.16v2.16h.48v-2.16h2.16v-.48h-2.16v-2.16h-.48Zm-2.16,26.64h2.16v2.16h.48v-2.16h2.16v-.48h-2.16v-2.16h-.48v2.16h-2.16v.48Zm0,24h2.16v2.16h.48v-2.16h2.16v-.48h-2.16v-2.16h-.48v2.16h-2.16v.48Zm0,24h2.16v2.16h.48v-2.16h2.16v-.48h-2.16v-2.16h-.48v2.16h-2.16v.48Zm-93.36,21.36h-.48v2.16h-2.16v.48h2.16v2.16h.48v-2.16h2.16v-.48h-2.16v-2.16Zm24,0h-.48v2.16h-2.16v.48h2.16v2.16h.48v-2.16h2.16v-.48h-2.16v-2.16Zm24,0h-.48v2.16h-2.16v.48h2.16v2.16h.48v-2.16h2.16v-.48h-2.16v-2.16Zm24,0h-.48v2.16h-2.16v.48h2.16v2.16h.48v-2.16h2.16v-.48h-2.16v-2.16Zm-192,24h-.48v2.16h-2.16v.48h2.16v2.16h.48v-2.16h2.16v-.48h-2.16v-2.16Zm0,24h-.48v2.16h-2.16v.48h2.16v2.16h.48v-2.16h2.16v-.48h-2.16v-2.16Zm0,24h-.48v2.16h-2.16v.48h2.16v2.16h.48v-2.16h2.16v-.48h-2.16v-2.16Zm0,24h-.48v2.16h-2.16v.48h2.16v2.16h.48v-2.16h2.16v-.48h-2.16v-2.16Zm24-72h-.48v2.16h-2.16v.48h2.16v2.16h.48v-2.16h2.16v-.48h-2.16v-2.16Zm0,24h-.48v2.16h-2.16v.48h2.16v2.16h.48v-2.16h2.16v-.48h-2.16v-2.16Zm0,24h-.48v2.16h-2.16v.48h2.16v2.16h.48v-2.16h2.16v-.48h-2.16v-2.16Zm0,24h-.48v2.16h-2.16v.48h2.16v2.16h.48v-2.16h2.16v-.48h-2.16v-2.16Zm24-72h-.48v2.16h-2.16v.48h2.16v2.16h.48v-2.16h2.16v-.48h-2.16v-2.16Zm0,24h-.48v2.16h-2.16v.48h2.16v2.16h.48v-2.16h2.16v-.48h-2.16v-2.16Zm0,24h-.48v2.16h-2.16v.48h2.16v2.16h.48v-2.16h2.16v-.48h-2.16v-2.16Zm0,24h-.48v2.16h-2.16v.48h2.16v2.16h.48v-2.16h2.16v-.48h-2.16v-2.16Zm24-72h-.48v2.16h-2.16v.48h2.16v2.16h.48v-2.16h2.16v-.48h-2.16v-2.16Zm0,24h-.48v2.16h-2.16v.48h2.16v2.16h.48v-2.16h2.16v-.48h-2.16v-2.16Zm0,24h-.48v2.16h-2.16v.48h2.16v2.16h.48v-2.16h2.16v-.48h-2.16v-2.16Zm0,24h-.48v2.16h-2.16v.48h2.16v2.16h.48v-2.16h2.16v-.48h-2.16v-2.16Zm23.52-72v2.16h-2.16v.48h2.16v2.16h.48v-2.16h2.16v-.48h-2.16v-2.16h-.48Zm-2.16,26.64h2.16v2.16h.48v-2.16h2.16v-.48h-2.16v-2.16h-.48v2.16h-2.16v.48Zm0,24h2.16v2.16h.48v-2.16h2.16v-.48h-2.16v-2.16h-.48v2.16h-2.16v.48Zm0,24h2.16v2.16h.48v-2.16h2.16v-.48h-2.16v-2.16h-.48v2.16h-2.16v.48Zm-93.36,21.36h-.48v2.16h-2.16v.48h2.16v2.16h.48v-2.16h2.16v-.48h-2.16v-2.16Zm24,0h-.48v2.16h-2.16v.48h2.16v2.16h.48v-2.16h2.16v-.48h-2.16v-2.16Zm24,0h-.48v2.16h-2.16v.48h2.16v2.16h.48v-2.16h2.16v-.48h-2.16v-2.16Zm24,0h-.48v2.16h-2.16v.48h2.16v2.16h.48v-2.16h2.16v-.48h-2.16v-2.16Zm48-96h-.48v2.16h-2.16v.48h2.16v2.16h.48v-2.16h2.16v-.48h-2.16v-2.16Zm0,24h-.48v2.16h-2.16v.48h2.16v2.16h.48v-2.16h2.16v-.48h-2.16v-2.16Zm0,24h-.48v2.16h-2.16v.48h2.16v2.16h.48v-2.16h2.16v-.48h-2.16v-2.16Zm0,24h-.48v2.16h-2.16v.48h2.16v2.16h.48v-2.16h2.16v-.48h-2.16v-2.16Zm24-72h-.48v2.16h-2.16v.48h2.16v2.16h.48v-2.16h2.16v-.48h-2.16v-2.16Zm0,24h-.48v2.16h-2.16v.48h2.16v2.16h.48v-2.16h2.16v-.48h-2.16v-2.16Zm0,24h-.48v2.16h-2.16v.48h2.16v2.16h.48v-2.16h2.16v-.48h-2.16v-2.16Zm0,24h-.48v2.16h-2.16v.48h2.16v2.16h.48v-2.16h2.16v-.48h-2.16v-2.16Zm24-72h-.48v2.16h-2.16v.48h2.16v2.16h.48v-2.16h2.16v-.48h-2.16v-2.16Zm0,24h-.48v2.16h-2.16v.48h2.16v2.16h.48v-2.16h2.16v-.48h-2.16v-2.16Zm0,24h-.48v2.16h-2.16v.48h2.16v2.16h.48v-2.16h2.16v-.48h-2.16v-2.16Zm0,24h-.48v2.16h-2.16v.48h2.16v2.16h.48v-2.16h2.16v-.48h-2.16v-2.16Zm24-72h-.48v2.16h-2.16v.48h2.16v2.16h.48v-2.16h2.16v-.48h-2.16v-2.16Zm0,24h-.48v2.16h-2.16v.48h2.16v2.16h.48v-2.16h2.16v-.48h-2.16v-2.16Zm0,24h-.48v2.16h-2.16v.48h2.16v2.16h.48v-2.16h2.16v-.48h-2.16v-2.16Zm0,24h-.48v2.16h-2.16v.48h2.16v2.16h.48v-2.16h2.16v-.48h-2.16v-2.16Zm23.52-72v2.16h-2.16v.48h2.16v2.16h.48v-2.16h2.16v-.48h-2.16v-2.16h-.48Zm-2.16,26.64h2.16v2.16h.48v-2.16h2.16v-.48h-2.16v-2.16h-.48v2.16h-2.16v.48Zm0,24h2.16v2.16h.48v-2.16h2.16v-.48h-2.16v-2.16h-.48v2.16h-2.16v.48Zm0,24h2.16v2.16h.48v-2.16h2.16v-.48h-2.16v-2.16h-.48v2.16h-2.16v.48Zm-93.36,21.36h-.48v2.16h-2.16v.48h2.16v2.16h.48v-2.16h2.16v-.48h-2.16v-2.16Zm24,0h-.48v2.16h-2.16v.48h2.16v2.16h.48v-2.16h2.16v-.48h-2.16v-2.16Zm24,0h-.48v2.16h-2.16v.48h2.16v2.16h.48v-2.16h2.16v-.48h-2.16v-2.16Zm24,0h-.48v2.16h-2.16v.48h2.16v2.16h.48v-2.16h2.16v-.48h-2.16v-2.16ZM989.04,26.4h-.48v2.16h-2.16v.48h2.16v2.16h.48v-2.16h2.16v-.48h-2.16v-2.16Zm0,24h-.48v2.16h-2.16v.48h2.16v2.16h.48v-2.16h2.16v-.48h-2.16v-2.16Zm0,24h-.48v2.16h-2.16v.48h2.16v2.16h.48v-2.16h2.16v-.48h-2.16v-2.16Zm0,24h-.48v2.16h-2.16v.48h2.16v2.16h.48v-2.16h2.16v-.48h-2.16v-2.16Zm24-72h-.48v2.16h-2.16v.48h2.16v2.16h.48v-2.16h2.16v-.48h-2.16v-2.16Zm0,24h-.48v2.16h-2.16v.48h2.16v2.16h.48v-2.16h2.16v-.48h-2.16v-2.16Zm0,24h-.48v2.16h-2.16v.48h2.16v2.16h.48v-2.16h2.16v-.48h-2.16v-2.16Zm0,24h-.48v2.16h-2.16v.48h2.16v2.16h.48v-2.16h2.16v-.48h-2.16v-2.16Zm24-72h-.48v2.16h-2.16v.48h2.16v2.16h.48v-2.16h2.16v-.48h-2.16v-2.16Zm0,24h-.48v2.16h-2.16v.48h2.16v2.16h.48v-2.16h2.16v-.48h-2.16v-2.16Zm0,24h-.48v2.16h-2.16v.48h2.16v2.16h.48v-2.16h2.16v-.48h-2.16v-2.16Zm0,24h-.48v2.16h-2.16v.48h2.16v2.16h.48v-2.16h2.16v-.48h-2.16v-2.16Zm24-72h-.48v2.16h-2.16v.48h2.16v2.16h.48v-2.16h2.16v-.48h-2.16v-2.16Zm0,24h-.48v2.16h-2.16v.48h2.16v2.16h.48v-2.16h2.16v-.48h-2.16v-2.16Zm0,24h-.48v2.16h-2.16v.48h2.16v2.16h.48v-2.16h2.16v-.48h-2.16v-2.16Zm0,24h-.48v2.16h-2.16v.48h2.16v2.16h.48v-2.16h2.16v-.48h-2.16v-2.16Zm23.52-72v2.16h-2.16v.48h2.16v2.16h.48v-2.16h2.16v-.48h-2.16v-2.16h-.48Zm-2.16,26.64h2.16v2.16h.48v-2.16h2.16v-.48h-2.16v-2.16h-.48v2.16h-2.16v.48Zm0,24h2.16v2.16h.48v-2.16h2.16v-.48h-2.16v-2.16h-.48v2.16h-2.16v.48Zm0,24h2.16v2.16h.48v-2.16h2.16v-.48h-2.16v-2.16h-.48v2.16h-2.16v.48ZM989.04,2.4h-.48v2.16h-2.16v.48h2.16v2.16h.48v-2.16h2.16v-.48h-2.16v-2.16Zm24,0h-.48v2.16h-2.16v.48h2.16v2.16h.48v-2.16h2.16v-.48h-2.16v-2.16Zm24,0h-.48v2.16h-2.16v.48h2.16v2.16h.48v-2.16h2.16v-.48h-2.16v-2.16Zm24,0h-.48v2.16h-2.16v.48h2.16v2.16h.48v-2.16h2.16v-.48h-2.16v-2.16Zm-72,120h-.48v2.16h-2.16v.48h2.16v2.16h.48v-2.16h2.16v-.48h-2.16v-2.16Zm24,0h-.48v2.16h-2.16v.48h2.16v2.16h.48v-2.16h2.16v-.48h-2.16v-2.16Zm24,0h-.48v2.16h-2.16v.48h2.16v2.16h.48v-2.16h2.16v-.48h-2.16v-2.16Zm24,0h-.48v2.16h-2.16v.48h2.16v2.16h.48v-2.16h2.16v-.48h-2.16v-2.16Zm-72,24h-.48v2.16h-2.16v.48h2.16v2.16h.48v-2.16h2.16v-.48h-2.16v-2.16Zm0,24h-.48v2.16h-2.16v.48h2.16v2.16h.48v-2.16h2.16v-.48h-2.16v-2.16Zm0,24h-.48v2.16h-2.16v.48h2.16v2.16h.48v-2.16h2.16v-.48h-2.16v-2.16Zm0,24h-.48v2.16h-2.16v.48h2.16v2.16h.48v-2.16h2.16v-.48h-2.16v-2.16Zm24-72h-.48v2.16h-2.16v.48h2.16v2.16h.48v-2.16h2.16v-.48h-2.16v-2.16Zm0,24h-.48v2.16h-2.16v.48h2.16v2.16h.48v-2.16h2.16v-.48h-2.16v-2.16Zm0,24h-.48v2.16h-2.16v.48h2.16v2.16h.48v-2.16h2.16v-.48h-2.16v-2.16Zm0,24h-.48v2.16h-2.16v.48h2.16v2.16h.48v-2.16h2.16v-.48h-2.16v-2.16Zm24-72h-.48v2.16h-2.16v.48h2.16v2.16h.48v-2.16h2.16v-.48h-2.16v-2.16Zm0,24h-.48v2.16h-2.16v.48h2.16v2.16h.48v-2.16h2.16v-.48h-2.16v-2.16Zm0,24h-.48v2.16h-2.16v.48h2.16v2.16h.48v-2.16h2.16v-.48h-2.16v-2.16Zm0,24h-.48v2.16h-2.16v.48h2.16v2.16h.48v-2.16h2.16v-.48h-2.16v-2.16Zm24-72h-.48v2.16h-2.16v.48h2.16v2.16h.48v-2.16h2.16v-.48h-2.16v-2.16Zm0,24h-.48v2.16h-2.16v.48h2.16v2.16h.48v-2.16h2.16v-.48h-2.16v-2.16Zm0,24h-.48v2.16h-2.16v.48h2.16v2.16h.48v-2.16h2.16v-.48h-2.16v-2.16Zm0,24h-.48v2.16h-2.16v.48h2.16v2.16h.48v-2.16h2.16v-.48h-2.16v-2.16Zm23.52-72v2.16h-2.16v.48h2.16v2.16h.48v-2.16h2.16v-.48h-2.16v-2.16h-.48Zm-2.16,26.64h2.16v2.16h.48v-2.16h2.16v-.48h-2.16v-2.16h-.48v2.16h-2.16v.48Zm0,24h2.16v2.16h.48v-2.16h2.16v-.48h-2.16v-2.16h-.48v2.16h-2.16v.48Zm0,24h2.16v2.16h.48v-2.16h2.16v-.48h-2.16v-2.16h-.48v2.16h-2.16v.48Zm-93.36,21.36h-.48v2.16h-2.16v.48h2.16v2.16h.48v-2.16h2.16v-.48h-2.16v-2.16Zm24,0h-.48v2.16h-2.16v.48h2.16v2.16h.48v-2.16h2.16v-.48h-2.16v-2.16Zm24,0h-.48v2.16h-2.16v.48h2.16v2.16h.48v-2.16h2.16v-.48h-2.16v-2.16Zm24,0h-.48v2.16h-2.16v.48h2.16v2.16h.48v-2.16h2.16v-.48h-2.16v-2.16Zm-72,24h-.48v2.16h-2.16v.48h2.16v2.16h.48v-2.16h2.16v-.48h-2.16v-2.16Zm0,24h-.48v2.16h-2.16v.48h2.16v2.16h.48v-2.16h2.16v-.48h-2.16v-2.16Zm0,24h-.48v2.16h-2.16v.48h2.16v2.16h.48v-2.16h2.16v-.48h-2.16v-2.16Zm0,24h-.48v2.16h-2.16v.48h2.16v2.16h.48v-2.16h2.16v-.48h-2.16v-2.16Zm24-72h-.48v2.16h-2.16v.48h2.16v2.16h.48v-2.16h2.16v-.48h-2.16v-2.16Zm0,24h-.48v2.16h-2.16v.48h2.16v2.16h.48v-2.16h2.16v-.48h-2.16v-2.16Zm0,24h-.48v2.16h-2.16v.48h2.16v2.16h.48v-2.16h2.16v-.48h-2.16v-2.16Zm0,24h-.48v2.16h-2.16v.48h2.16v2.16h.48v-2.16h2.16v-.48h-2.16v-2.16Zm24-72h-.48v2.16h-2.16v.48h2.16v2.16h.48v-2.16h2.16v-.48h-2.16v-2.16Zm0,24h-.48v2.16h-2.16v.48h2.16v2.16h.48v-2.16h2.16v-.48h-2.16v-2.16Zm0,24h-.48v2.16h-2.16v.48h2.16v2.16h.48v-2.16h2.16v-.48h-2.16v-2.16Zm0,24h-.48v2.16h-2.16v.48h2.16v2.16h.48v-2.16h2.16v-.48h-2.16v-2.16Zm24-72h-.48v2.16h-2.16v.48h2.16v2.16h.48v-2.16h2.16v-.48h-2.16v-2.16Zm0,24h-.48v2.16h-2.16v.48h2.16v2.16h.48v-2.16h2.16v-.48h-2.16v-2.16Zm0,24h-.48v2.16h-2.16v.48h2.16v2.16h.48v-2.16h2.16v-.48h-2.16v-2.16Zm0,24h-.48v2.16h-2.16v.48h2.16v2.16h.48v-2.16h2.16v-.48h-2.16v-2.16Zm23.52-72v2.16h-2.16v.48h2.16v2.16h.48v-2.16h2.16v-.48h-2.16v-2.16h-.48Zm-2.16,26.64h2.16v2.16h.48v-2.16h2.16v-.48h-2.16v-2.16h-.48v2.16h-2.16v.48Zm0,24h2.16v2.16h.48v-2.16h2.16v-.48h-2.16v-2.16h-.48v2.16h-2.16v.48Zm0,24h2.16v2.16h.48v-2.16h2.16v-.48h-2.16v-2.16h-.48v2.16h-2.16v.48Zm-93.36,21.36h-.48v2.16h-2.16v.48h2.16v2.16h.48v-2.16h2.16v-.48h-2.16v-2.16Zm24,0h-.48v2.16h-2.16v.48h2.16v2.16h.48v-2.16h2.16v-.48h-2.16v-2.16Zm24,0h-.48v2.16h-2.16v.48h2.16v2.16h.48v-2.16h2.16v-.48h-2.16v-2.16Zm24,0h-.48v2.16h-2.16v.48h2.16v2.16h.48v-2.16h2.16v-.48h-2.16v-2.16Zm-72,24h-.48v2.16h-2.16v.48h2.16v2.16h.48v-2.16h2.16v-.48h-2.16v-2.16Zm0,24h-.48v2.16h-2.16v.48h2.16v2.16h.48v-2.16h2.16v-.48h-2.16v-2.16Zm0,24h-.48v2.16h-2.16v.48h2.16v2.16h.48v-2.16h2.16v-.48h-2.16v-2.16Zm0,24h-.48v2.16h-2.16v.48h2.16v2.16h.48v-2.16h2.16v-.48h-2.16v-2.16Zm24-72h-.48v2.16h-2.16v.48h2.16v2.16h.48v-2.16h2.16v-.48h-2.16v-2.16Zm0,24h-.48v2.16h-2.16v.48h2.16v2.16h.48v-2.16h2.16v-.48h-2.16v-2.16Zm0,24h-.48v2.16h-2.16v.48h2.16v2.16h.48v-2.16h2.16v-.48h-2.16v-2.16Zm0,24h-.48v2.16h-2.16v.48h2.16v2.16h.48v-2.16h2.16v-.48h-2.16v-2.16Zm24-72h-.48v2.16h-2.16v.48h2.16v2.16h.48v-2.16h2.16v-.48h-2.16v-2.16Zm0,24h-.48v2.16h-2.16v.48h2.16v2.16h.48v-2.16h2.16v-.48h-2.16v-2.16Zm0,24h-.48v2.16h-2.16v.48h2.16v2.16h.48v-2.16h2.16v-.48h-2.16v-2.16Zm0,24h-.48v2.16h-2.16v.48h2.16v2.16h.48v-2.16h2.16v-.48h-2.16v-2.16Zm24-72h-.48v2.16h-2.16v.48h2.16v2.16h.48v-2.16h2.16v-.48h-2.16v-2.16Zm0,24h-.48v2.16h-2.16v.48h2.16v2.16h.48v-2.16h2.16v-.48h-2.16v-2.16Zm0,24h-.48v2.16h-2.16v.48h2.16v2.16h.48v-2.16h2.16v-.48h-2.16v-2.16Zm0,24h-.48v2.16h-2.16v.48h2.16v2.16h.48v-2.16h2.16v-.48h-2.16v-2.16Zm23.52-72v2.16h-2.16v.48h2.16v2.16h.48v-2.16h2.16v-.48h-2.16v-2.16h-.48Zm-2.16,26.64h2.16v2.16h.48v-2.16h2.16v-.48h-2.16v-2.16h-.48v2.16h-2.16v.48Zm0,24h2.16v2.16h.48v-2.16h2.16v-.48h-2.16v-2.16h-.48v2.16h-2.16v.48Zm0,24h2.16v2.16h.48v-2.16h2.16v-.48h-2.16v-2.16h-.48v2.16h-2.16v.48Zm-93.36,21.36h-.48v2.16h-2.16v.48h2.16v2.16h.48v-2.16h2.16v-.48h-2.16v-2.16Zm24,0h-.48v2.16h-2.16v.48h2.16v2.16h.48v-2.16h2.16v-.48h-2.16v-2.16Zm24,0h-.48v2.16h-2.16v.48h2.16v2.16h.48v-2.16h2.16v-.48h-2.16v-2.16Zm24,0h-.48v2.16h-2.16v.48h2.16v2.16h.48v-2.16h2.16v-.48h-2.16v-2.16Zm-72,24h-.48v2.16h-2.16v.48h2.16v2.16h.48v-2.16h2.16v-.48h-2.16v-2.16Zm0,24h-.48v2.16h-2.16v.48h2.16v2.16h.48v-2.16h2.16v-.48h-2.16v-2.16Zm0,24h-.48v2.16h-2.16v.48h2.16v2.16h.48v-2.16h2.16v-.48h-2.16v-2.16Zm0,24h-.48v2.16h-2.16v.48h2.16v2.16h.48v-2.16h2.16v-.48h-2.16v-2.16Zm24-72h-.48v2.16h-2.16v.48h2.16v2.16h.48v-2.16h2.16v-.48h-2.16v-2.16Zm0,24h-.48v2.16h-2.16v.48h2.16v2.16h.48v-2.16h2.16v-.48h-2.16v-2.16Zm0,24h-.48v2.16h-2.16v.48h2.16v2.16h.48v-2.16h2.16v-.48h-2.16v-2.16Zm0,24h-.48v2.16h-2.16v.48h2.16v2.16h.48v-2.16h2.16v-.48h-2.16v-2.16Zm24-72h-.48v2.16h-2.16v.48h2.16v2.16h.48v-2.16h2.16v-.48h-2.16v-2.16Zm0,24h-.48v2.16h-2.16v.48h2.16v2.16h.48v-2.16h2.16v-.48h-2.16v-2.16Zm0,24h-.48v2.16h-2.16v.48h2.16v2.16h.48v-2.16h2.16v-.48h-2.16v-2.16Zm0,24h-.48v2.16h-2.16v.48h2.16v2.16h.48v-2.16h2.16v-.48h-2.16v-2.16Zm24-72h-.48v2.16h-2.16v.48h2.16v2.16h.48v-2.16h2.16v-.48h-2.16v-2.16Zm0,24h-.48v2.16h-2.16v.48h2.16v2.16h.48v-2.16h2.16v-.48h-2.16v-2.16Zm0,24h-.48v2.16h-2.16v.48h2.16v2.16h.48v-2.16h2.16v-.48h-2.16v-2.16Zm0,24h-.48v2.16h-2.16v.48h2.16v2.16h.48v-2.16h2.16v-.48h-2.16v-2.16Zm23.52-72v2.16h-2.16v.48h2.16v2.16h.48v-2.16h2.16v-.48h-2.16v-2.16h-.48Zm-2.16,26.64h2.16v2.16h.48v-2.16h2.16v-.48h-2.16v-2.16h-.48v2.16h-2.16v.48Zm0,24h2.16v2.16h.48v-2.16h2.16v-.48h-2.16v-2.16h-.48v2.16h-2.16v.48Zm0,24h2.16v2.16h.48v-2.16h2.16v-.48h-2.16v-2.16h-.48v2.16h-2.16v.48Zm-93.36,21.36h-.48v2.16h-2.16v.48h2.16v2.16h.48v-2.16h2.16v-.48h-2.16v-2.16Zm24,0h-.48v2.16h-2.16v.48h2.16v2.16h.48v-2.16h2.16v-.48h-2.16v-2.16Zm24,0h-.48v2.16h-2.16v.48h2.16v2.16h.48v-2.16h2.16v-.48h-2.16v-2.16Zm24,0h-.48v2.16h-2.16v.48h2.16v2.16h.48v-2.16h2.16v-.48h-2.16v-2.16Zm-72,24h-.48v2.16h-2.16v.48h2.16v2.16h.48v-2.16h2.16v-.48h-2.16v-2.16Zm0,24h-.48v2.16h-2.16v.48h2.16v2.16h.48v-2.16h2.16v-.48h-2.16v-2.16Zm0,24h-.48v2.16h-2.16v.48h2.16v2.16h.48v-2.16h2.16v-.48h-2.16v-2.16Zm0,24h-.48v2.16h-2.16v.48h2.16v2.16h.48v-2.16h2.16v-.48h-2.16v-2.16Zm24-72h-.48v2.16h-2.16v.48h2.16v2.16h.48v-2.16h2.16v-.48h-2.16v-2.16Zm0,24h-.48v2.16h-2.16v.48h2.16v2.16h.48v-2.16h2.16v-.48h-2.16v-2.16Zm0,24h-.48v2.16h-2.16v.48h2.16v2.16h.48v-2.16h2.16v-.48h-2.16v-2.16Zm0,24h-.48v2.16h-2.16v.48h2.16v2.16h.48v-2.16h2.16v-.48h-2.16v-2.16Zm24-72h-.48v2.16h-2.16v.48h2.16v2.16h.48v-2.16h2.16v-.48h-2.16v-2.16Zm0,24h-.48v2.16h-2.16v.48h2.16v2.16h.48v-2.16h2.16v-.48h-2.16v-2.16Zm0,24h-.48v2.16h-2.16v.48h2.16v2.16h.48v-2.16h2.16v-.48h-2.16v-2.16Zm0,24h-.48v2.16h-2.16v.48h2.16v2.16h.48v-2.16h2.16v-.48h-2.16v-2.16Zm24-72h-.48v2.16h-2.16v.48h2.16v2.16h.48v-2.16h2.16v-.48h-2.16v-2.16Zm0,24h-.48v2.16h-2.16v.48h2.16v2.16h.48v-2.16h2.16v-.48h-2.16v-2.16Zm0,24h-.48v2.16h-2.16v.48h2.16v2.16h.48v-2.16h2.16v-.48h-2.16v-2.16Zm0,24h-.48v2.16h-2.16v.48h2.16v2.16h.48v-2.16h2.16v-.48h-2.16v-2.16Zm23.52-72v2.16h-2.16v.48h2.16v2.16h.48v-2.16h2.16v-.48h-2.16v-2.16h-.48Zm-2.16,26.64h2.16v2.16h.48v-2.16h2.16v-.48h-2.16v-2.16h-.48v2.16h-2.16v.48Zm0,24h2.16v2.16h.48v-2.16h2.16v-.48h-2.16v-2.16h-.48v2.16h-2.16v.48Zm0,24h2.16v2.16h.48v-2.16h2.16v-.48h-2.16v-2.16h-.48v2.16h-2.16v.48Zm-93.36,21.36h-.48v2.16h-2.16v.48h2.16v2.16h.48v-2.16h2.16v-.48h-2.16v-2.16Zm24,0h-.48v2.16h-2.16v.48h2.16v2.16h.48v-2.16h2.16v-.48h-2.16v-2.16Zm24,0h-.48v2.16h-2.16v.48h2.16v2.16h.48v-2.16h2.16v-.48h-2.16v-2.16Zm24,0h-.48v2.16h-2.16v.48h2.16v2.16h.48v-2.16h2.16v-.48h-2.16v-2.16ZM5.28,0h-.96v4.32H0v.96h4.32v4.32h.96v-4.32h4.32v-.96h-4.32V0Zm120,0h-.96v4.32h-4.32v.96h4.32v4.32h.96v-4.32h4.32v-.96h-4.32V0ZM5.28,120h-.96v4.32H0v.96h4.32v4.32h.96v-4.32h4.32v-.96h-4.32v-4.32Zm120,0h-.96v4.32h-4.32v.96h4.32v4.32h.96v-4.32h4.32v-.96h-4.32v-4.32ZM5.28,240h-.96v4.32H0v.96h4.32v4.32h.96v-4.32h4.32v-.96h-4.32v-4.32Zm120,0h-.96v4.32h-4.32v.96h4.32v4.32h.96v-4.32h4.32v-.96h-4.32v-4.32ZM5.28,360h-.96v4.32H0v.96h4.32v4.32h.96v-4.32h4.32v-.96h-4.32v-4.32Zm120,0h-.96v4.32h-4.32v.96h4.32v4.32h.96v-4.32h4.32v-.96h-4.32v-4.32ZM245.28,0h-.96v4.32h-4.32v.96h4.32v4.32h.96v-4.32h4.32v-.96h-4.32V0Zm120,0h-.96v4.32h-4.32v.96h4.32v4.32h.96v-4.32h4.32v-.96h-4.32V0Zm-120,120h-.96v4.32h-4.32v.96h4.32v4.32h.96v-4.32h4.32v-.96h-4.32v-4.32Zm120,0h-.96v4.32h-4.32v.96h4.32v4.32h.96v-4.32h4.32v-.96h-4.32v-4.32Zm-120,120h-.96v4.32h-4.32v.96h4.32v4.32h.96v-4.32h4.32v-.96h-4.32v-4.32Zm120,0h-.96v4.32h-4.32v.96h4.32v4.32h.96v-4.32h4.32v-.96h-4.32v-4.32Zm-120,120h-.96v4.32h-4.32v.96h4.32v4.32h.96v-4.32h4.32v-.96h-4.32v-4.32Zm120,0h-.96v4.32h-4.32v.96h4.32v4.32h.96v-4.32h4.32v-.96h-4.32v-4.32ZM485.28,0h-.96v4.32h-4.32v.96h4.32v4.32h.96v-4.32h4.32v-.96h-4.32V0Zm120,0h-.96v4.32h-4.32v.96h4.32v4.32h.96v-4.32h4.32v-.96h-4.32V0Zm-120,120h-.96v4.32h-4.32v.96h4.32v4.32h.96v-4.32h4.32v-.96h-4.32v-4.32Zm120,0h-.96v4.32h-4.32v.96h4.32v4.32h.96v-4.32h4.32v-.96h-4.32v-4.32Zm-120,120h-.96v4.32h-4.32v.96h4.32v4.32h.96v-4.32h4.32v-.96h-4.32v-4.32Zm120,0h-.96v4.32h-4.32v.96h4.32v4.32h.96v-4.32h4.32v-.96h-4.32v-4.32Zm-120,120h-.96v4.32h-4.32v.96h4.32v4.32h.96v-4.32h4.32v-.96h-4.32v-4.32Zm120,0h-.96v4.32h-4.32v.96h4.32v4.32h.96v-4.32h4.32v-.96h-4.32v-4.32ZM725.28,0h-.96v4.32h-4.32v.96h4.32v4.32h.96v-4.32h4.32v-.96h-4.32V0Zm120,0h-.96v4.32h-4.32v.96h4.32v4.32h.96v-4.32h4.32v-.96h-4.32V0Zm-120,120h-.96v4.32h-4.32v.96h4.32v4.32h.96v-4.32h4.32v-.96h-4.32v-4.32Zm120,0h-.96v4.32h-4.32v.96h4.32v4.32h.96v-4.32h4.32v-.96h-4.32v-4.32Zm-120,120h-.96v4.32h-4.32v.96h4.32v4.32h.96v-4.32h4.32v-.96h-4.32v-4.32Zm120,0h-.96v4.32h-4.32v.96h4.32v4.32h.96v-4.32h4.32v-.96h-4.32v-4.32Zm-120,120h-.96v4.32h-4.32v.96h4.32v4.32h.96v-4.32h4.32v-.96h-4.32v-4.32Zm120,0h-.96v4.32h-4.32v.96h4.32v4.32h.96v-4.32h4.32v-.96h-4.32v-4.32ZM965.28,0h-.96v4.32h-4.32v.96h4.32v4.32h.96v-4.32h4.32v-.96h-4.32V0Zm120,4.32V0h-.96v4.32h-4.32v.96h4.32v4.32h.96v-4.32h4.32v-.96h-4.32Zm-120,115.68h-.96v4.32h-4.32v.96h4.32v4.32h.96v-4.32h4.32v-.96h-4.32v-4.32Zm120,0h-.96v4.32h-4.32v.96h4.32v4.32h.96v-4.32h4.32v-.96h-4.32v-4.32Zm-120,120h-.96v4.32h-4.32v.96h4.32v4.32h.96v-4.32h4.32v-.96h-4.32v-4.32Zm120,0h-.96v4.32h-4.32v.96h4.32v4.32h.96v-4.32h4.32v-.96h-4.32v-4.32Zm-120,120h-.96v4.32h-4.32v.96h4.32v4.32h.96v-4.32h4.32v-.96h-4.32v-4.32Zm120,0h-.96v4.32h-4.32v.96h4.32v4.32h.96v-4.32h4.32v-.96h-4.32v-4.32ZM5.28,480h-.96v4.32H0v.96h4.32v4.32h.96v-4.32h4.32v-.96h-4.32v-4.32Zm120,0h-.96v4.32h-4.32v.96h4.32v4.32h.96v-4.32h4.32v-.96h-4.32v-4.32ZM5.28,600h-.96v4.32H0v.96h4.32v4.32h.96v-4.32h4.32v-.96h-4.32v-4.32Zm120,0h-.96v4.32h-4.32v.96h4.32v4.32h.96v-4.32h4.32v-.96h-4.32v-4.32ZM5.28,720h-.96v4.32H0v.96h4.32v4.32h.96v-4.32h4.32v-.96h-4.32v-4.32Zm120,0h-.96v4.32h-4.32v.96h4.32v4.32h.96v-4.32h4.32v-.96h-4.32v-4.32Zm120-240h-.96v4.32h-4.32v.96h4.32v4.32h.96v-4.32h4.32v-.96h-4.32v-4.32Zm120,0h-.96v4.32h-4.32v.96h4.32v4.32h.96v-4.32h4.32v-.96h-4.32v-4.32Zm-120,120h-.96v4.32h-4.32v.96h4.32v4.32h.96v-4.32h4.32v-.96h-4.32v-4.32Zm120,0h-.96v4.32h-4.32v.96h4.32v4.32h.96v-4.32h4.32v-.96h-4.32v-4.32Zm-120,120h-.96v4.32h-4.32v.96h4.32v4.32h.96v-4.32h4.32v-.96h-4.32v-4.32Zm120,0h-.96v4.32h-4.32v.96h4.32v4.32h.96v-4.32h4.32v-.96h-4.32v-4.32Zm120-240h-.96v4.32h-4.32v.96h4.32v4.32h.96v-4.32h4.32v-.96h-4.32v-4.32Zm120,0h-.96v4.32h-4.32v.96h4.32v4.32h.96v-4.32h4.32v-.96h-4.32v-4.32Zm-120,120h-.96v4.32h-4.32v.96h4.32v4.32h.96v-4.32h4.32v-.96h-4.32v-4.32Zm120,0h-.96v4.32h-4.32v.96h4.32v4.32h.96v-4.32h4.32v-.96h-4.32v-4.32Zm-120,120h-.96v4.32h-4.32v.96h4.32v4.32h.96v-4.32h4.32v-.96h-4.32v-4.32Zm120,0h-.96v4.32h-4.32v.96h4.32v4.32h.96v-4.32h4.32v-.96h-4.32v-4.32Zm120-240h-.96v4.32h-4.32v.96h4.32v4.32h.96v-4.32h4.32v-.96h-4.32v-4.32Zm120,0h-.96v4.32h-4.32v.96h4.32v4.32h.96v-4.32h4.32v-.96h-4.32v-4.32Zm-120,120h-.96v4.32h-4.32v.96h4.32v4.32h.96v-4.32h4.32v-.96h-4.32v-4.32Zm120,0h-.96v4.32h-4.32v.96h4.32v4.32h.96v-4.32h4.32v-.96h-4.32v-4.32Zm-120,120h-.96v4.32h-4.32v.96h4.32v4.32h.96v-4.32h4.32v-.96h-4.32v-4.32Zm120,0h-.96v4.32h-4.32v.96h4.32v4.32h.96v-4.32h4.32v-.96h-4.32v-4.32Zm120-240h-.96v4.32h-4.32v.96h4.32v4.32h.96v-4.32h4.32v-.96h-4.32v-4.32Zm120,0h-.96v4.32h-4.32v.96h4.32v4.32h.96v-4.32h4.32v-.96h-4.32v-4.32Zm-120,120h-.96v4.32h-4.32v.96h4.32v4.32h.96v-4.32h4.32v-.96h-4.32v-4.32Zm120,0h-.96v4.32h-4.32v.96h4.32v4.32h.96v-4.32h4.32v-.96h-4.32v-4.32Zm-120,120h-.96v4.32h-4.32v.96h4.32v4.32h.96v-4.32h4.32v-.96h-4.32v-4.32Zm120,0h-.96v4.32h-4.32v.96h4.32v4.32h.96v-4.32h4.32v-.96h-4.32v-4.32Z"/></g></svg>